<svg width="750.5599853515624px" height="110.72000732421874px" xmlns="http://www.w3.org/2000/svg" viewBox="-125.27999267578122 19.63999633789063 750.5599853515624 110.72000732421874" style="background: rgb(0, 0, 0);" preserveAspectRatio="xMidYMid"><defs><linearGradient id="editing-gradient-gradient" x1="0.4912737967813583" x2="0.5087262032186417" y1="0.00007615242180436521" y2="0.9999238475781956" gradientUnits="objectBoundingBox"><stop offset="0" stop-color="rgba(0%,0%,0%,0)"></stop><stop offset="1" stop-color="#d2d6d9"></stop></linearGradient></defs><g><g transform="translate(-18.480023860931396, 103.73500061035156)"><path d="M40.83-42.37L46.40-42.37L46.40 0L41.60 0L41.60-35.07L25.92-14.91L9.98-35.07L9.98 0L5.18 0L5.18-42.37L10.75-42.37L25.92-22.27L40.83-42.37ZM80.13 0L80.13-5.12L80.13-5.12Q76.29 0.51 68.67 0.51L68.67 0.51L68.67 0.51Q61.76 0.51 57.41-4.29L57.41-4.29L57.41-4.29Q53.18-9.02 53.18-16L53.18-16L53.18-16Q53.18-22.98 57.41-27.71L57.41-27.71L57.41-27.71Q61.76-32.51 68.99-32.51L68.99-32.51L68.99-32.51Q76.22-32.51 80.13-26.82L80.13-26.82L80.13-32L84.93-32L84.93 0L80.13 0ZM69.31-3.84L69.31-3.84L69.31-3.84Q74.50-3.84 77.50-7.42L77.50-7.42L77.50-7.42Q80.38-10.82 80.38-16L80.38-16L80.38-16Q80.38-21.18 77.50-24.58L77.50-24.58L77.50-24.58Q74.50-28.16 69.31-28.16L69.31-28.16L69.31-28.16Q64.19-28.16 60.99-24.58L60.99-24.58L60.99-24.58Q57.98-21.18 57.98-16L57.98-16L57.98-16Q57.98-10.82 60.99-7.42L60.99-7.42L60.99-7.42Q64.19-3.84 69.31-3.84ZM93.25 0L93.25-32L98.05-32L98.05 0L93.25 0ZM93.06-43.65L98.24-43.65L98.24-37.38L93.06-37.38L93.06-43.65ZM106.37-32L111.17-32L111.17-27.01L111.17-27.01Q112.90-29.31 115.39-30.91L115.39-30.91L115.39-30.91Q117.89-32.51 121.09-32.51L121.09-32.51L121.09-32.51Q124.29-32.51 126.59-31.62L126.59-31.62L126.59-31.62Q128.90-30.72 130.62-28.93L130.62-28.93L130.62-28.93Q134.59-25.02 134.59-18.62L134.59-18.62L134.59 0L129.79 0L129.79-18.50L129.79-18.50Q129.79-22.91 127.30-25.54L127.30-25.54L127.30-25.54Q124.80-28.16 120.83-28.16L120.83-28.16L120.83-28.16Q116.80-28.16 113.98-25.47L113.98-25.47L113.98-25.47Q111.17-22.72 111.17-18.43L111.17-18.43L111.17 0L106.37 0L106.37-32ZM161.02-32L161.02-26.88L161.02-26.88Q164.86-32.51 172.48-32.51L172.48-32.51L172.48-32.51Q179.39-32.51 183.68-27.71L183.68-27.71L183.68-27.71Q187.97-22.98 187.97-16L187.97-16L187.97-16Q187.97-9.02 183.68-4.29L183.68-4.29L183.68-4.29Q179.39 0.51 172.16 0.51L172.16 0.51L172.16 0.51Q164.93 0.51 161.02-5.18L161.02-5.18L161.02 12.67L156.22 12.67L156.22-32L161.02-32ZM171.84-28.16L171.84-28.16L171.84-28.16Q166.66-28.16 163.65-24.58L163.65-24.58L163.65-24.58Q160.77-21.18 160.77-16L160.77-16L160.77-16Q160.77-10.82 163.65-7.42L163.65-7.42L163.65-7.42Q166.66-3.84 171.84-3.84L171.84-3.84L171.84-3.84Q176.96-3.84 180.16-7.42L180.16-7.42L180.16-7.42Q183.17-10.82 183.17-16L183.17-16L183.17-16Q183.17-21.18 180.16-24.58L180.16-24.58L180.16-24.58Q176.96-28.16 171.84-28.16ZM208.13-32.51L208.13-32.51L208.13-32.51Q215.30-32.51 219.78-27.71L219.78-27.71L219.78-27.71Q224-23.10 224-16L224-16L224-16Q224-8.90 219.78-4.29L219.78-4.29L219.78-4.29Q215.30 0.51 208.13 0.51L208.13 0.51L208.13 0.51Q200.96 0.51 196.48-4.29L196.48-4.29L196.48-4.29Q192.26-8.90 192.26-16L192.26-16L192.26-16Q192.26-23.10 196.48-27.71L196.48-27.71L196.48-27.71Q200.96-32.51 208.13-32.51ZM208.13-3.84L208.13-3.84L208.13-3.84Q213.31-3.84 216.32-7.42L216.32-7.42L216.32-7.42Q219.20-10.82 219.20-16L219.20-16L219.20-16Q219.20-21.18 216.32-24.58L216.32-24.58L216.32-24.58Q213.31-28.16 208.13-28.16L208.13-28.16L208.13-28.16Q202.94-28.16 199.94-24.58L199.94-24.58L199.94-24.58Q197.06-21.18 197.06-16L197.06-16L197.06-16Q197.06-10.82 199.94-7.42L199.94-7.42L199.94-7.42Q202.94-3.84 208.13-3.84ZM235.14-44.80L235.14 0L230.34 0L230.34-44.80L235.14-44.80ZM248.26-44.80L248.26 0L243.46 0L243.46-44.80L248.26-44.80ZM280.26-23.42L275.39-23.42L275.39-23.42Q274.75-28.42 267.36-28.42L267.36-28.42L267.36-28.42Q259.97-28.42 259.97-23.81L259.97-23.81L259.97-23.81Q259.97-21.89 261.54-20.90L261.54-20.90L261.54-20.90Q263.10-19.90 265.47-19.26L265.47-19.26L265.47-19.26Q267.84-18.62 270.62-18.08L270.62-18.08L270.62-18.08Q273.41-17.54 275.78-16.54L275.78-16.54L275.78-16.54Q278.14-15.55 279.71-13.82L279.71-13.82L279.71-13.82Q281.28-12.10 281.28-9.09L281.28-9.09L281.28-9.09Q281.28-4.42 277.76-1.95L277.76-1.95L277.76-1.95Q274.24 0.51 268.22 0.51L268.22 0.51L268.22 0.51Q261.82 0.51 258.05-2.69L258.05-2.69L258.05-2.69Q254.59-5.50 254.34-10.05L254.34-10.05L259.33-10.05L259.33-10.05Q259.78-5.63 264.32-4.10L264.32-4.10L264.32-4.10Q265.98-3.58 267.62-3.58L267.62-3.58L267.62-3.58Q269.25-3.58 270.66-3.78L270.66-3.78L270.66-3.78Q272.06-3.97 273.41-4.48L273.41-4.48L273.41-4.48Q276.48-5.70 276.48-8.64L276.48-8.64L276.48-8.64Q276.48-10.62 274.91-11.68L274.91-11.68L274.91-11.68Q273.34-12.74 270.98-13.41L270.98-13.41L270.98-13.41Q268.61-14.08 265.82-14.62L265.82-14.62L265.82-14.62Q263.04-15.17 260.67-16.13L260.67-16.13L260.67-16.13Q258.30-17.09 256.74-18.75L256.74-18.75L256.74-18.75Q255.17-20.42 255.17-23.36L255.17-23.36L255.17-23.36Q255.17-27.71 258.34-30.11L258.34-30.11L258.34-30.11Q261.50-32.51 267.71-32.51L267.71-32.51L267.71-32.51Q273.60-32.51 276.99-29.70L276.99-29.70L276.99-29.70Q279.81-27.33 280.26-23.42L280.26-23.42ZM295.68 0L290.88 0L290.88-27.78L284.35-27.78L284.35-32L290.88-32L290.88-43.46L295.68-43.46L295.68-32L303.04-32L303.04-27.78L295.68-27.78L295.68 0ZM321.92-3.84L321.92-3.84L321.92-3.84Q328.38-3.84 331.20-9.22L331.20-9.22L336.45-9.22L336.45-9.22Q334.78-4.86 331.17-2.18L331.17-2.18L331.17-2.18Q327.55 0.51 321.86 0.51L321.86 0.51L321.86 0.51Q314.62 0.51 310.08-4.29L310.08-4.29L310.08-4.29Q305.66-8.96 305.66-16L305.66-16L305.66-16Q305.66-23.10 309.89-27.71L309.89-27.71L309.89-27.71Q314.37-32.51 321.54-32.51L321.54-32.51L321.54-32.51Q328.70-32.51 333.18-27.71L333.18-27.71L333.18-27.71Q337.41-23.10 337.41-16L337.41-16L337.41-14.08L310.59-14.08L310.59-14.08Q311.10-9.66 314.11-6.78L314.11-6.78L314.11-6.78Q317.18-3.84 321.92-3.84ZM321.54-28.16L321.54-28.16L321.54-28.16Q317.12-28.16 314.11-25.41L314.11-25.41L314.11-25.41Q311.30-22.78 310.66-18.56L310.66-18.56L332.42-18.56L332.42-18.56Q331.78-22.78 328.96-25.41L328.96-25.41L328.96-25.41Q325.95-28.16 321.54-28.16ZM359.87-32.51L360.19-32.51L360.19-27.71L359.62-27.71L359.62-27.71Q354.43-27.71 351.17-23.55L351.17-23.55L351.17-23.55Q348.10-19.58 348.10-14.08L348.10-14.08L348.10 0L343.30 0L343.30-32L348.10-32L348.10-24.13L348.10-24.13Q349.63-29.12 354.75-31.49L354.75-31.49L354.75-31.49Q356.86-32.51 359.87-32.51L359.87-32.51ZM383.81-32L383.81-26.88L383.81-26.88Q387.65-32.51 395.26-32.51L395.26-32.51L395.26-32.51Q402.18-32.51 406.46-27.71L406.46-27.71L406.46-27.71Q410.75-22.98 410.75-16L410.75-16L410.75-16Q410.75-9.02 406.46-4.29L406.46-4.29L406.46-4.29Q402.18 0.51 394.94 0.51L394.94 0.51L394.94 0.51Q387.71 0.51 383.81-5.18L383.81-5.18L383.81 12.67L379.01 12.67L379.01-32L383.81-32ZM394.62-28.16L394.62-28.16L394.62-28.16Q389.44-28.16 386.43-24.58L386.43-24.58L386.43-24.58Q383.55-21.18 383.55-16L383.55-16L383.55-16Q383.55-10.82 386.43-7.42L386.43-7.42L386.43-7.42Q389.44-3.84 394.62-3.84L394.62-3.84L394.62-3.84Q399.74-3.84 402.94-7.42L402.94-7.42L402.94-7.42Q405.95-10.82 405.95-16L405.95-16L405.95-16Q405.95-21.18 402.94-24.58L402.94-24.58L402.94-24.58Q399.74-28.16 394.62-28.16ZM441.98 0L441.98-5.12L441.98-5.12Q438.14 0.51 430.53 0.51L430.53 0.51L430.53 0.51Q423.62 0.51 419.26-4.29L419.26-4.29L419.26-4.29Q415.04-9.02 415.04-16L415.04-16L415.04-16Q415.04-22.98 419.26-27.71L419.26-27.71L419.26-27.71Q423.62-32.51 430.85-32.51L430.85-32.51L430.85-32.51Q438.08-32.51 441.98-26.82L441.98-26.82L441.98-32L446.78-32L446.78 0L441.98 0ZM431.17-3.84L431.17-3.84L431.17-3.84Q436.35-3.84 439.36-7.42L439.36-7.42L439.36-7.42Q442.24-10.82 442.24-16L442.24-16L442.24-16Q442.24-21.18 439.36-24.58L439.36-24.58L439.36-24.58Q436.35-28.16 431.17-28.16L431.17-28.16L431.17-28.16Q426.05-28.16 422.85-24.58L422.85-24.58L422.85-24.58Q419.84-21.18 419.84-16L419.84-16L419.84-16Q419.84-10.82 422.85-7.42L422.85-7.42L422.85-7.42Q426.05-3.84 431.17-3.84ZM455.10-32L459.90-32L459.90-27.01L459.90-27.01Q461.63-29.31 464.13-30.91L464.13-30.91L464.13-30.91Q466.62-32.51 469.82-32.51L469.82-32.51L469.82-32.51Q473.02-32.51 475.33-31.62L475.33-31.62L475.33-31.62Q477.63-30.72 479.36-28.93L479.36-28.93L479.36-28.93Q483.33-25.02 483.33-18.62L483.33-18.62L483.33 0L478.53 0L478.53-18.50L478.53-18.50Q478.53-22.91 476.03-25.54L476.03-25.54L476.03-25.54Q473.54-28.16 469.57-28.16L469.57-28.16L469.57-28.16Q465.54-28.16 462.72-25.47L462.72-25.47L462.72-25.47Q459.90-22.72 459.90-18.43L459.90-18.43L459.90 0L455.10 0L455.10-32ZM505.60-3.84L505.60-3.84L505.60-3.84Q512.06-3.84 514.88-9.22L514.88-9.22L520.13-9.22L520.13-9.22Q518.46-4.86 514.85-2.18L514.85-2.18L514.85-2.18Q511.23 0.51 505.54 0.51L505.54 0.51L505.54 0.51Q498.30 0.51 493.76-4.29L493.76-4.29L493.76-4.29Q489.34-8.96 489.34-16L489.34-16L489.34-16Q489.34-23.10 493.57-27.71L493.57-27.71L493.57-27.71Q498.05-32.51 505.22-32.51L505.22-32.51L505.22-32.51Q512.38-32.51 516.86-27.71L516.86-27.71L516.86-27.71Q521.09-23.10 521.09-16L521.09-16L521.09-14.08L494.27-14.08L494.27-14.08Q494.78-9.66 497.79-6.78L497.79-6.78L497.79-6.78Q500.86-3.84 505.60-3.84ZM505.22-28.16L505.22-28.16L505.22-28.16Q500.80-28.16 497.79-25.41L497.79-25.41L497.79-25.41Q494.98-22.78 494.34-18.56L494.34-18.56L516.10-18.56L516.10-18.56Q515.46-22.78 512.64-25.41L512.64-25.41L512.64-25.41Q509.63-28.16 505.22-28.16ZM531.78-44.80L531.78 0L526.98 0L526.98-44.80L531.78-44.80Z" fill="url(#editing-gradient-gradient)"></path></g></g><style>text {
  font-size: 64px;
  font-family: Arial Black;
  dominant-baseline: central;
  text-anchor: middle;
}</style></svg>