<?xml version="1.0" encoding="UTF-8" standalone="no"?>
<svg
   width="380"
   height="80"
   viewBox="22.640002 19.639996 380 79.999999"
   preserveAspectRatio="xMidYMid"
   version="1.1"
   id="svg3"
   sodipodi:docname="4.svg"
   inkscape:export-filename="4.svg"
   inkscape:export-xdpi="96"
   inkscape:export-ydpi="96"
   xmlns:inkscape="http://www.inkscape.org/namespaces/inkscape"
   xmlns:sodipodi="http://sodipodi.sourceforge.net/DTD/sodipodi-0.dtd"
   xmlns:xlink="http://www.w3.org/1999/xlink"
   xmlns="http://www.w3.org/2000/svg"
   xmlns:svg="http://www.w3.org/2000/svg">
  <sodipodi:namedview
     id="namedview3"
     pagecolor="#ffffff"
     bordercolor="#000000"
     borderopacity="0.25"
     inkscape:showpageshadow="2"
     inkscape:pageopacity="0.0"
     inkscape:pagecheckerboard="0"
     inkscape:deskcolor="#d1d1d1" />
  <defs
     id="defs2">
    <linearGradient
       id="linearGradient3"
       inkscape:collect="always">
      <stop
         style="stop-color:#000000;stop-opacity:1;"
         offset="0"
         id="stop3" />
      <stop
         style="stop-color:#000000;stop-opacity:0;"
         offset="1"
         id="stop4" />
    </linearGradient>
    <linearGradient
       inkscape:collect="always"
       xlink:href="#linearGradient3"
       id="linearGradient4"
       x1="93.840012"
       y1="87.669998"
       x2="406.16"
       y2="87.669998"
       gradientUnits="userSpaceOnUse"
       gradientTransform="translate(0,-2.5546067)" />
    <linearGradient
       inkscape:collect="always"
       xlink:href="#linearGradient3"
       id="linearGradient5"
       gradientUnits="userSpaceOnUse"
       x1="93.840012"
       y1="87.669998"
       x2="406.16"
       y2="87.669998"
       gradientTransform="translate(0,-2.5546067)" />
    <linearGradient
       inkscape:collect="always"
       xlink:href="#linearGradient3"
       id="linearGradient6"
       gradientUnits="userSpaceOnUse"
       x1="93.840012"
       y1="87.669998"
       x2="406.16"
       y2="87.669998"
       gradientTransform="translate(0,-2.5546067)" />
  </defs>
  <g
     id="g3"
     transform="translate(-50.2406,-24.694531)"
     style="fill:url(#linearGradient4)">
    <g
       transform="translate(89.870012,103.16)"
       id="g2"
       style="fill:url(#linearGradient6)">
      <path
         d="m 4.16,0 v -32 h 4.8 V 0 Z M 3.97,-43.65 h 5.18 v 6.27 H 3.97 Z M 17.28,-32 h 4.8 v 4.99 0 q 1.73,-2.3 4.22,-3.9 v 0 0 q 2.5,-1.6 5.7,-1.6 v 0 0 q 3.2,0 5.5,0.89 v 0 0 q 2.31,0.9 4.04,2.69 v 0 0 q 3.96,3.91 3.96,10.31 v 0 V 0 h -4.8 v -18.5 0 q 0,-4.41 -2.49,-7.04 v 0 0 q -2.5,-2.62 -6.47,-2.62 v 0 0 q -4.03,0 -6.84,2.69 v 0 0 q -2.82,2.75 -2.82,7.04 v 0 V 0 h -4.8 z m 61.18,44.67 v -17.85 0 q -3.9,5.69 -11.45,5.69 v 0 0 q -6.91,0 -11.27,-4.8 v 0 0 Q 51.52,-9.02 51.52,-16 v 0 0 q 0,-6.98 4.22,-11.71 v 0 0 q 4.36,-4.8 11.62,-4.8 v 0 0 q 7.26,0 11.1,5.63 v 0 -5.12 h 4.8 V 12.67 Z M 67.65,-28.16 v 0 0 q -5.12,0 -8.32,3.58 v 0 0 q -3.01,3.4 -3.01,8.58 v 0 0 q 0,5.18 3.01,8.58 v 0 0 q 3.2,3.58 8.32,3.58 v 0 0 q 5.18,0 8.19,-3.58 v 0 0 q 2.88,-3.4 2.88,-8.58 v 0 0 q 0,-5.18 -2.88,-8.58 v 0 0 q -3.01,-3.58 -8.19,-3.58 z M 119.49,0 h -4.8 v -4.99 0 q -1.73,2.3 -4.23,3.9 v 0 0 q -2.49,1.6 -5.69,1.6 v 0 0 q -3.2,0 -5.51,-0.89 v 0 0 q -2.3,-0.9 -4.03,-2.69 v 0 0 q -3.97,-3.91 -3.97,-10.31 v 0 V -32 h 4.8 v 18.5 0 q 0,4.41 2.5,7.04 v 0 0 q 2.5,2.62 6.46,2.62 v 0 0 q 4.04,0 6.85,-2.69 v 0 0 q 2.82,-2.75 2.82,-7.04 v 0 V -32 h 4.8 z m 8.32,0 v -32 h 4.8 V 0 Z m -0.19,-43.65 h 5.18 v 6.27 h -5.18 z m 29.88,11.14 h 0.32 v 4.8 h -0.57 v 0 q -5.19,0 -8.45,4.16 v 0 0 q -3.07,3.97 -3.07,9.47 v 0 V 0 h -4.8 v -32 h 4.8 v 7.87 0 q 1.53,-4.99 6.65,-7.36 v 0 0 q 2.12,-1.02 5.12,-1.02 z m 32.96,0.51 -18.94,44.67 h -5.18 L 172.16,-0.45 159.1,-32 h 5.32 l 10.3,26.24 10.5,-26.24 z m 42.95,32 v -5.12 0 q -3.84,5.63 -11.46,5.63 v 0 0 q -6.91,0 -11.26,-4.8 v 0 0 Q 206.46,-9.02 206.46,-16 v 0 0 q 0,-6.98 4.23,-11.71 v 0 0 q 4.35,-4.8 11.58,-4.8 v 0 0 q 7.23,0 11.14,5.69 v 0 -5.18 h 4.8 V 0 Z m -10.82,-3.84 v 0 0 q 5.19,0 8.19,-3.58 v 0 0 q 2.88,-3.4 2.88,-8.58 v 0 0 q 0,-5.18 -2.88,-8.58 v 0 0 q -3,-3.58 -8.19,-3.58 v 0 0 q -5.12,0 -8.32,3.58 v 0 0 q -3.01,3.4 -3.01,8.58 v 0 0 q 0,5.18 3.01,8.58 v 0 0 q 3.2,3.58 8.32,3.58 z M 251.33,-32 v 5.12 0 q 3.84,-5.63 11.45,-5.63 v 0 0 q 6.92,0 11.2,4.8 v 0 0 q 4.29,4.73 4.29,11.71 v 0 0 q 0,6.98 -4.29,11.71 v 0 0 q -4.28,4.8 -11.52,4.8 v 0 0 q -7.23,0 -11.13,-5.69 v 0 17.85 h -4.8 V -32 Z m 10.81,3.84 v 0 0 q -5.18,0 -8.19,3.58 v 0 0 q -2.88,3.4 -2.88,8.58 v 0 0 q 0,5.18 2.88,8.58 v 0 0 q 3.01,3.58 8.19,3.58 v 0 0 q 5.12,0 8.32,-3.58 v 0 0 q 3.01,-3.4 3.01,-8.58 v 0 0 q 0,-5.18 -3.01,-8.58 v 0 0 q -3.2,-3.58 -8.32,-3.58 z m 27.2,-3.84 v 5.12 0 q 3.84,-5.63 11.46,-5.63 v 0 0 q 6.91,0 11.2,4.8 v 0 0 q 4.29,4.73 4.29,11.71 v 0 0 q 0,6.98 -4.29,11.71 v 0 0 q -4.29,4.8 -11.52,4.8 v 0 0 q -7.23,0 -11.14,-5.69 v 0 17.85 h -4.8 V -32 Z m 10.82,3.84 v 0 0 q -5.18,0 -8.19,3.58 v 0 0 q -2.88,3.4 -2.88,8.58 v 0 0 q 0,5.18 2.88,8.58 v 0 0 q 3.01,3.58 8.19,3.58 v 0 0 q 5.12,0 8.32,-3.58 v 0 0 q 3.01,-3.4 3.01,-8.58 v 0 0 q 0,-5.18 -3.01,-8.58 v 0 0 q -3.2,-3.58 -8.32,-3.58 z"
         fill="url(#editing-gradient-gradient)"
         id="path2"
         style="fill:url(#linearGradient5)" />
    </g>
  </g>
  <style
     id="style3">text {
  font-size: 64px;
  font-family: Arial Black;
  dominant-baseline: central;
  text-anchor: middle;
}</style>
</svg>
