<?xml version="1.0" encoding="UTF-8" standalone="no"?>
<svg
   width="247"
   height="80"
   viewBox="75.619995 19.639996 247 80.000001"
   preserveAspectRatio="xMidYMid"
   version="1.1"
   id="svg3"
   sodipodi:docname="5.svg"
   inkscape:version="1.3.2 (091e20e, 2023-11-25, custom)"
   inkscape:export-filename="5.svg"
   inkscape:export-xdpi="96"
   inkscape:export-ydpi="96"
   xmlns:inkscape="http://www.inkscape.org/namespaces/inkscape"
   xmlns:sodipodi="http://sodipodi.sourceforge.net/DTD/sodipodi-0.dtd"
   xmlns:xlink="http://www.w3.org/1999/xlink"
   xmlns="http://www.w3.org/2000/svg"
   xmlns:svg="http://www.w3.org/2000/svg">
  <sodipodi:namedview
     id="namedview3"
     pagecolor="#ffffff"
     bordercolor="#000000"
     borderopacity="0.25"
     inkscape:showpageshadow="2"
     inkscape:pageopacity="0.0"
     inkscape:pagecheckerboard="0"
     inkscape:deskcolor="#d1d1d1"
     inkscape:zoom="1.3289941"
     inkscape:cx="-32.731522"
     inkscape:cy="31.979073"
     inkscape:window-width="1920"
     inkscape:window-height="1017"
     inkscape:window-x="-8"
     inkscape:window-y="-8"
     inkscape:window-maximized="1"
     inkscape:current-layer="svg3" />
  <defs
     id="defs2">
    <linearGradient
       id="linearGradient21"
       inkscape:collect="always">
      <stop
         style="stop-color:#dadada;stop-opacity:1;"
         offset="0"
         id="stop21" />
      <stop
         style="stop-color:#fdfdfd;stop-opacity:0;"
         offset="1"
         id="stop22" />
    </linearGradient>
    <linearGradient
       id="editing-gradient-gradient"
       x1="117.18457"
       x2="2.5448205"
       y1="-31.530003"
       y2="-31.530003"
       gradientUnits="userSpaceOnUse"
       gradientTransform="matrix(2.0355069,0,0,0.49127812,51.077917,25.538958)">
      <stop
         offset="0"
         stop-color="rgba(0%,0%,0%,0)"
         id="stop1" />
      <stop
         offset="1"
         stop-color="#d2d6d9"
         id="stop2" />
    </linearGradient>
    <linearGradient
       inkscape:collect="always"
       xlink:href="#linearGradient21"
       id="linearGradient22"
       x1="133.325"
       y1="87.67"
       x2="366.675"
       y2="87.67"
       gradientUnits="userSpaceOnUse" />
  </defs>
  <g
     id="g3"
     transform="translate(-51.077917,-25.538958)"
     style="fill:url(#linearGradient22);stroke:none;fill-opacity:1;stroke-opacity:1">
    <g
       transform="translate(128.145,103.16)"
       id="g2"
       style="fill:url(#linearGradient22);stroke:none;fill-opacity:1;stroke-opacity:1">
      <path
         d="M 9.98,-42.37 V 0 H 5.18 V -42.37 Z M 19.33,-32 h 4.8 v 4.99 0 q 1.73,-2.3 4.22,-3.9 v 0 0 q 2.5,-1.6 5.7,-1.6 v 0 0 q 3.2,0 5.5,0.89 v 0 0 q 2.31,0.9 4.03,2.69 v 0 0 q 3.97,3.91 3.97,10.31 v 0 V 0 h -4.8 v -18.5 0 q 0,-4.41 -2.49,-7.04 v 0 0 q -2.5,-2.62 -6.47,-2.62 v 0 0 q -4.03,0 -6.85,2.69 v 0 0 q -2.81,2.75 -2.81,7.04 v 0 V 0 h -4.8 z m 61.18,44.67 v -17.85 0 q -3.9,5.69 -11.45,5.69 v 0 0 q -6.92,0 -11.27,-4.8 v 0 0 Q 53.57,-9.02 53.57,-16 v 0 0 q 0,-6.98 4.22,-11.71 v 0 0 q 4.35,-4.8 11.62,-4.8 v 0 0 q 7.26,0 11.1,5.63 v 0 -5.12 h 4.8 V 12.67 Z M 69.7,-28.16 v 0 0 q -5.12,0 -8.32,3.58 v 0 0 q -3.01,3.4 -3.01,8.58 v 0 0 q 0,5.18 3.01,8.58 v 0 0 q 3.2,3.58 8.32,3.58 v 0 0 q 5.18,0 8.19,-3.58 v 0 0 q 2.88,-3.4 2.88,-8.58 v 0 0 q 0,-5.18 -2.88,-8.58 v 0 0 q -3.01,-3.58 -8.19,-3.58 z M 121.54,0 h -4.8 v -4.99 0 q -1.73,2.3 -4.23,3.9 v 0 0 q -2.49,1.6 -5.69,1.6 v 0 0 q -3.2,0 -5.51,-0.89 v 0 0 q -2.3,-0.9 -4.03,-2.69 v 0 0 q -3.97,-3.91 -3.97,-10.31 v 0 V -32 h 4.8 v 18.5 0 q 0,4.41 2.5,7.04 v 0 0 q 2.49,2.62 6.46,2.62 v 0 0 q 4.03,0 6.85,-2.69 v 0 0 q 2.82,-2.75 2.82,-7.04 v 0 V -32 h 4.8 z m 8.32,0 v -32 h 4.8 V 0 Z m -0.2,-43.65 h 5.19 v 6.27 h -5.19 z m 29.89,11.14 h 0.32 v 4.8 h -0.57 v 0 q -5.19,0 -8.45,4.16 v 0 0 q -3.07,3.97 -3.07,9.47 v 0 V 0 h -4.8 v -32 h 4.8 v 7.87 0 q 1.53,-4.99 6.65,-7.36 v 0 0 q 2.11,-1.02 5.12,-1.02 z M 165.06,0 v -32 h 4.8 V 0 Z m -0.2,-43.65 h 5.19 v 6.27 h -5.19 z m 27.59,39.81 v 0 0 q 6.46,0 9.28,-5.38 v 0 h 5.25 v 0 q -1.67,4.36 -5.28,7.04 v 0 0 q -3.62,2.69 -9.32,2.69 v 0 0 q -7.23,0 -11.77,-4.8 v 0 0 Q 176.19,-8.96 176.19,-16 v 0 0 q 0,-7.1 4.23,-11.71 v 0 0 q 4.48,-4.8 11.64,-4.8 v 0 0 q 7.17,0 11.65,4.8 v 0 0 q 4.23,4.61 4.23,11.71 v 0 1.92 h -26.82 v 0 q 0.51,4.42 3.52,7.3 v 0 0 q 3.07,2.94 7.81,2.94 z m -0.39,-24.32 v 0 0 q -4.41,0 -7.42,2.75 v 0 0 q -2.82,2.63 -3.46,6.85 v 0 h 21.76 v 0 q -0.64,-4.22 -3.45,-6.85 v 0 0 q -3.01,-2.75 -7.43,-2.75 z m 45.44,4.74 h -4.86 v 0 q -0.64,-5 -8.03,-5 v 0 0 q -7.39,0 -7.39,4.61 v 0 0 q 0,1.92 1.56,2.91 v 0 0 q 1.57,1 3.94,1.64 v 0 0 q 2.37,0.64 5.15,1.18 v 0 0 q 2.79,0.54 5.15,1.54 v 0 0 q 2.37,0.99 3.94,2.72 v 0 0 q 1.57,1.72 1.57,4.73 v 0 0 q 0,4.67 -3.52,7.14 v 0 0 q -3.52,2.46 -9.54,2.46 v 0 0 q -6.4,0 -10.17,-3.2 v 0 0 q -3.46,-2.81 -3.72,-7.36 v 0 h 5 v 0 q 0.44,4.42 4.99,5.95 v 0 0 q 1.66,0.52 3.29,0.52 v 0 0 q 1.64,0 3.04,-0.2 v 0 0 q 1.41,-0.19 2.76,-0.7 v 0 0 q 3.07,-1.22 3.07,-4.16 v 0 0 q 0,-1.98 -1.57,-3.04 v 0 0 q -1.57,-1.06 -3.94,-1.73 v 0 0 q -2.36,-0.67 -5.15,-1.21 v 0 0 q -2.78,-0.55 -5.15,-1.51 v 0 0 q -2.37,-0.96 -3.94,-2.62 v 0 0 q -1.56,-1.67 -1.56,-4.61 v 0 0 q 0,-4.35 3.16,-6.75 v 0 0 q 3.17,-2.4 9.38,-2.4 v 0 0 q 5.89,0 9.28,2.81 v 0 0 q 2.82,2.37 3.26,6.28 z"
         fill="url(#editing-gradient-gradient)"
         id="path2"
         style="fill:url(#linearGradient22);stroke:none;fill-opacity:1;stroke-opacity:1" />
    </g>
  </g>
  <style
     id="style3">text {
  font-size: 64px;
  font-family: Arial Black;
  dominant-baseline: central;
  text-anchor: middle;
}</style>
</svg>
