<?xml version="1.0" encoding="UTF-8" standalone="no"?>
<!-- Uploaded to: SVG Repo, www.svgrepo.com, Transformed by: SVG Repo Mixer Tools -->

<svg
   width="76"
   height="79"
   viewBox="0 0 97.28 101.12"
   class="icon"
   version="1.1"
   fill="#000000"
   id="svg4"
   sodipodi:docname="action-viewing.svg"
   inkscape:version="1.3.2 (091e20e, 2023-11-25, custom)"
   xmlns:inkscape="http://www.inkscape.org/namespaces/inkscape"
   xmlns:sodipodi="http://sodipodi.sourceforge.net/DTD/sodipodi-0.dtd"
   xmlns="http://www.w3.org/2000/svg"
   xmlns:svg="http://www.w3.org/2000/svg">
  <defs
     id="defs4" />
  <sodipodi:namedview
     id="namedview4"
     pagecolor="#ffffff"
     bordercolor="#000000"
     borderopacity="0.25"
     inkscape:showpageshadow="2"
     inkscape:pageopacity="0.0"
     inkscape:pagecheckerboard="0"
     inkscape:deskcolor="#d1d1d1"
     inkscape:zoom="1.8025"
     inkscape:cx="-125.9362"
     inkscape:cy="104.02219"
     inkscape:window-width="1920"
     inkscape:window-height="1017"
     inkscape:window-x="-8"
     inkscape:window-y="-8"
     inkscape:window-maximized="1"
     inkscape:current-layer="svg4" />
  <g
     id="SVGRepo_bgCarrier"
     stroke-width="0" />
  <g
     id="SVGRepo_tracerCarrier"
     stroke-linecap="round"
     stroke-linejoin="round" />
  <g
     id="SVGRepo_iconCarrier"
     transform="matrix(0.09967503,0,0,0.10049979,-3.549753,0.0717112)"
     style="stroke-width:9.99141">
    <path
       d="M 917.25176,802.39026 786.57123,671.64318 c -2.96415,-2.99384 -10.32179,0.26006 -18.91628,6.4474 l -10.6781,-10.6781 c 54.59664,-70.94296 51.40724,-171.24584 -8.53101,-239.19087 v -36.82199 l 0.13003,0.45665 c 0,-70.64911 -67.45561,-136.86787 -103.68989,-172.41921 l -8.27094,-8.2044 C 529.76441,104.38204 485.22847,95.460924 448.83037,95.460924 l -12.3716,-0.06348 H 150.77838 c -16.99548,0 -47.33627,12.891736 -47.33627,38.675216 v 756.02567 c 0,21.3562 17.31902,38.74177 38.67522,38.74177 h 567.58776 c 21.3562,0 38.74177,-17.38558 38.74177,-38.74177 V 753.36049 c 37.27864,37.30833 108.90044,108.93423 108.90044,108.93423 12.9583,12.89174 72.92624,-46.88269 59.90446,-59.90446 z"
       fill="#27323a"
       id="path1"
       style="stroke-width:9.99141" />
    <path
       d="m 707.23138,652.174 c -54.8567,54.89049 -144.2593,54.95704 -199.14979,0 -54.88742,-54.95398 -54.88742,-144.35248 0,-199.24297 26.56675,-26.56675 61.92459,-41.152 99.55954,-41.152 37.69843,0 73.02248,14.58525 99.58923,41.152 54.89151,54.95397 54.89151,144.28899 10e-4,199.24297 z"
       fill="#ffffff"
       id="path2"
       style="stroke-width:9.99141" />
    <path
       d="m 603.21487,244.57037 8.65798,8.52794 c 15.17193,14.84838 36.46465,35.94452 54.53418,59.4478 -35.52166,-13.28184 -75.11018,-15.8221 -110.33389,-17.25246 -1.10682,-23.44288 -5.60065,-71.29928 -21.48623,-112.84138 18.68386,14.6518 41.14688,34.57456 68.62796,62.1181 z"
       fill="#79ccbf"
       id="path3"
       style="stroke-width:9.99141" />
    <path
       d="M 150.64834,881.63387 V 142.80026 c 0.13004,-0.0666 0.65017,-0.26314 0.65017,-0.26314 h 285.03022 l 12.37161,0.0666 c 6.25082,0 14.51869,0.13003 26.43672,4.10066 l 5.99075,6.25082 c 32.36092,31.97082 44.01581,111.60452 44.01581,157.37732 0,8.40097 6.64092,15.36851 15.10538,15.69206 l 6.51088,0.26314 c 48.89974,1.88702 109.84447,4.23069 146.86304,37.76499 l 3.38394,3.38394 c 2.37746,7.48767 3.94094,14.91186 4.201,22.2695 -72.04569,-41.41206 -165.28785,-32.10085 -226.85305,29.49712 -73.64295,73.64295 -73.64295,193.05869 0,266.70165 61.59796,61.59489 154.84013,70.97265 226.88684,29.49404 v 166.23491 z"
       fill="#f1f3f2"
       id="path4"
       style="stroke-width:9.99141" />
  </g>
</svg>
