<?xml version="1.0" encoding="UTF-8" standalone="no"?>
<!-- Uploaded to: SVG Repo, www.svgrepo.com, Transformed by: SVG Repo Mixer Tools -->

<svg
   width="256"
   height="256"
   viewBox="-62.28 -62.28 490.9 490.9"
   id="Layer_1"
   data-name="Layer 1"
   fill="#000000"
   stroke="#000000"
   stroke-width="1.09902"
   version="1.1"
   sodipodi:docname="avatar-svgrepo-com.svg"
   xmlns:inkscape="http://www.inkscape.org/namespaces/inkscape"
   xmlns:sodipodi="http://sodipodi.sourceforge.net/DTD/sodipodi-0.dtd"
   xmlns:xlink="http://www.w3.org/1999/xlink"
   xmlns="http://www.w3.org/2000/svg"
   xmlns:svg="http://www.w3.org/2000/svg">
  <defs
     id="defs13">
    <linearGradient
       inkscape:collect="always"
       xlink:href="#linear-gradient"
       id="linearGradient2"
       gradientUnits="userSpaceOnUse"
       x1="108.28"
       y1="122.42"
       x2="268.26001"
       y2="122.42" />
  </defs>
  <sodipodi:namedview
     id="namedview13"
     pagecolor="#ffffff"
     bordercolor="#000000"
     borderopacity="0.25"
     inkscape:showpageshadow="2"
     inkscape:pageopacity="0.0"
     inkscape:pagecheckerboard="0"
     inkscape:deskcolor="#d1d1d1" />
  <g
     id="SVGRepo_bgCarrier"
     stroke-width="0">
    <rect
       x="-62.279999"
       y="-62.279999"
       width="490.89999"
       height="490.89999"
       rx="245.45"
       fill="#dee2e6"
       strokewidth="0"
       id="rect1" />
  </g>
  <g
     id="SVGRepo_iconCarrier">
    <defs
       id="defs2">
      <style
         id="style1">.cls-1{fill:#de8276;}.cls-2{fill:#a76962;}.cls-3{fill:url(#linear-gradient);}.cls-4{fill:url(#linear-gradient-2);}.cls-5{fill:#e18477;}.cls-6{fill:none;stroke:#00214e;stroke-miterlimit:10;}.cls-7{fill:#00214e;}</style>
      <linearGradient
         id="linear-gradient"
         x1="108.28"
         y1="122.42"
         x2="268.26001"
         y2="122.42"
         gradientUnits="userSpaceOnUse">
        <stop
           offset="0"
           stop-color="#16243f"
           id="stop1" />
        <stop
           offset="1"
           stop-color="#6878b1"
           id="stop2" />
      </linearGradient>
      <linearGradient
         id="linear-gradient-2"
         x1="219.28"
         y1="72.919998"
         x2="269.19"
         y2="152.46001"
         xlink:href="#linear-gradient" />
    </defs>
    <title
       id="title2">Artboards_Diversity_Avatars_by_Netguru</title>
    <path
       class="cls-1"
       d="M 296.41,282 A 184.56,184.56 0 0 1 69.93,281 l 48.66,-22.81 a 46.83,46.83 0 0 0 6.65,-3.82 c 0.64,-0.44 1.28,-0.9 1.89,-1.38 a 46.35,46.35 0 0 0 12.78,-15.09 44.69,44.69 0 0 0 4.64,-14.48 67.91,67.91 0 0 0 0.74,-9.91 c 0,-5.72 -0.31,-11.44 -0.37,-17.17 q -0.06,-4.76 -0.1,-9.51 l 2,1 5.2,2.69 2.41,0.41 27.88,4.74 31.12,5.3 0.94,32 0.31,10.46 0.15,5.08 v 0.33 l 12.1,4.92 z"
       id="path2" />
    <path
       class="cls-2"
       d="m 214.63,246.85 a 16,16 0 0 1 -10.07,-1.56 l -59.67,-48.78 c -0.07,-2.26 -0.13,0.11 -0.16,-2.15 q -0.06,-4.76 -0.1,-9.51 l 2,1 5.2,2.69 2.41,0.41 27.88,4.74 31.12,5.3 0.94,32 0.31,10.46 0.15,5.08 v 0.33 z"
       id="path3" />
    <path
       class="cls-3"
       d="m 245.43,159.9 a 35.93,35.93 0 0 1 -5.09,4.41 c -10.4,7.53 -24.28,10 -36.14,14.06 -5,1.71 -59.22,17.12 -59.22,20.47 0,-0.73 -5.31,-6 -12,-12.4 A 79.91,79.91 0 0 1 113.42,100.7 c 10.91,-28.67 45.69,-48.43 74.82,-53 13.87,-2.17 30.33,-3.38 43.14,3.27 6.55,3.41 12,8.38 17,13.89 q 2.34,2.61 4.54,5.33 c 0.63,0.76 1.25,1.52 1.86,2.29 22.77,28.6 14.7,62.15 -9.35,87.42 z"
       id="path4"
       style="fill:url(#linearGradient2)" />
    <path
       class="cls-4"
       d="m 245.43,159.9 a 35.93,35.93 0 0 1 -5.09,4.41 22.42,22.42 0 0 1 -1.15,-2.3 c -2.64,-6 -4,-12.51 -5,-19 A 275.93,275.93 0 0 1 231,114.49 c -0.91,-15.34 -7.46,-22.95 5.57,-34.91 a 43,43 0 0 1 16.35,-9.38 c 0.63,0.76 1.25,1.52 1.86,2.29 22.77,28.59 14.7,62.14 -9.35,87.41 z"
       id="path5"
       style="fill:url(#linear-gradient-2)" />
    <circle
       class="cls-5"
       cx="134.98"
       cy="158.85001"
       r="17"
       id="circle5" />
    <circle
       class="cls-2"
       cx="140.38"
       cy="158.85001"
       r="15.22"
       id="circle6" />
    <path
       class="cls-1"
       d="m 141.65,142.73 c 0.83,10.86 0.8,24.12 1.09,28 q 1.13,14.59 2.24,29.17 l 66.44,38.81 a 19.76,19.76 0 0 0 24.68,-9.85 c 9.56,-19.58 24.9,-50.5 22.88,-62 -3,-17 -11,-23 -11,-23 l 3.33,-19.94 c 3.37,-20.27 -3.58,-39.46 -27.26,-41.68 -5,-0.46 -10.57,0.49 -13.54,4.48 -8,10.76 -3.39,24 -15.4,34 -14.58,12.03 -47.11,17.28 -54.73,7.57 0,0 0.7,6.87 1.27,14.44 z"
       id="path6" />
    <path
       class="cls-6"
       d="m 191.51,185.15 a 29.78,29.78 0 0 0 18.54,9.69"
       id="path7" />
    <path
       class="cls-6"
       d="m 215.13,137.94 c -0.08,0.35 13.36,36.13 13.36,36.13 l -17.94,0.87"
       id="path8" />
    <path
       class="cls-6"
       d="m 172.65,131 a 80.58,80.58 0 0 1 28.13,-0.8"
       id="path9" />
    <path
       class="cls-6"
       d="m 231.7,131.13 a 55,55 0 0 1 17.45,-1.21"
       id="path10" />
    <path
       class="cls-7"
       d="M 296.41,282 A 184.56,184.56 0 0 1 69.93,281 l 48.66,-22.81 a 46.83,46.83 0 0 0 6.65,-3.82 c 0.64,-0.44 1.28,-0.9 1.89,-1.38 a 46.35,46.35 0 0 0 12.78,-15.09 44.69,44.69 0 0 0 4.64,-14.48 28.66,28.66 0 0 0 2.22,1.94 95.14,95.14 0 0 0 19.82,11.26 99,99 0 0 0 10.46,3.69 93.52,93.52 0 0 0 33,3.49 c 1.54,-0.12 3.09,-0.27 4.63,-0.38 l 0.15,5.08 v 0.33 l 12.1,4.92 z"
       id="path11" />
    <path
       class="cls-7"
       d="m 186.28,142.24 c 6.1,0 6.1,9.38 0,9.43 H 186 c -6.11,0 -6.11,-9.38 0,-9.43 h 0.27 z"
       id="path12" />
    <path
       class="cls-7"
       d="m 236.41,140.85 c 5.66,0.05 5.66,8.7 0,8.75 h -0.26 c -5.66,0 -5.66,-8.7 0,-8.75 z"
       id="path13" />
  </g>
</svg>
