<?xml version="1.0" encoding="UTF-8" standalone="no"?>
<!-- Uploaded to: SVG Repo, www.svgrepo.com, Transformed by: SVG Repo Mixer Tools -->

<svg
   fill="#dee2e6"
   width="800"
   height="800"
   viewBox="-8 -8 48 48"
   version="1.1"
   stroke="#dee2e6"
   stroke-width="0.00032"
   id="svg1"
   sodipodi:docname="bell-svgrepo-com(1).svg"
   inkscape:export-filename="bell1.svg"
   inkscape:export-xdpi="7.1999998"
   inkscape:export-ydpi="7.1999998"
   xmlns:inkscape="http://www.inkscape.org/namespaces/inkscape"
   xmlns:sodipodi="http://sodipodi.sourceforge.net/DTD/sodipodi-0.dtd"
   xmlns="http://www.w3.org/2000/svg"
   xmlns:svg="http://www.w3.org/2000/svg">
  <defs
     id="defs1" />
  <sodipodi:namedview
     id="namedview1"
     pagecolor="#ffffff"
     bordercolor="#000000"
     borderopacity="0.25"
     inkscape:showpageshadow="2"
     inkscape:pageopacity="0.0"
     inkscape:pagecheckerboard="0"
     inkscape:deskcolor="#d1d1d1" />
  <g
     id="SVGRepo_iconCarrier"
     transform="matrix(0.91555032,0,0,0.82788838,0.88345221,3.0461985)"
     style="fill:#cccccc">
    <path
       d="m 28.3,22.247 c -1.167,-1.419 -2.765,-3.429 -2.765,-5.48 v -6.53 c 0,-5.625 -4.207,-10.202 -9.584,-10.202 -5.378,0 -9.552,4.577 -9.552,10.202 v 6.53 c 0,2.016 -1.734,3.921 -2.833,5.4 -0.989,1.328 -1.77,2.378 -1.242,3.427 0.463,0.923 1.624,1.041 2.583,1.041 h 5.73 c 0.002,2.944 2.389,5.331 5.333,5.331 2.944,0 5.333,-2.386 5.334,-5.331 h 5.864 c 0.61,0 2.036,0 2.527,-1.038 0.495,-1.05 -0.297,-2.016 -1.395,-3.351 z m -12.331,7.624 c -1.788,0 -3.239,-1.448 -3.241,-3.235 h 6.482 c -0.003,1.787 -1.452,3.235 -3.241,3.235 z M 27.168,24.506 H 4.906 C 4.753,24.506 4.625,24.501 4.52,24.494 4.726,24.175 5.028,23.767 5.275,23.436 6.493,21.799 8.53,19.487 8.53,16.767 v -6.53 c 0,-4.452 3.22,-8.073 7.423,-8.073 4.203,0 7.455,3.622 7.455,8.073 v 6.53 c 0,2.813 1.878,5.164 3.249,6.832 0.231,0.281 0.507,0.617 0.722,0.905 -0.064,0.002 -0.134,0.003 -0.209,0.003 z"
       id="path1"
       style="fill:#cccccc" />
  </g>
</svg>
