<?xml version="1.0" encoding="UTF-8" standalone="no"?>
<!-- Uploaded to: SVG Repo, www.svgrepo.com, Transformed by: SVG Repo Mixer Tools -->

<svg
   width="800"
   height="800"
   viewBox="0 0 24 24"
   fill="none"
   version="1.1"
   id="svg1"
   sodipodi:docname="bell-svgrepo-com.svg"
   inkscape:export-filename="..\..\..\zadanieRekrutacyjneAnkieta\inquiryApp\src\assets\images\bell.svg"
   inkscape:export-xdpi="7.1999998"
   inkscape:export-ydpi="7.1999998"
   xmlns:inkscape="http://www.inkscape.org/namespaces/inkscape"
   xmlns:sodipodi="http://sodipodi.sourceforge.net/DTD/sodipodi-0.dtd"
   xmlns="http://www.w3.org/2000/svg"
   xmlns:svg="http://www.w3.org/2000/svg">
  <defs
     id="defs1" />
  <sodipodi:namedview
     id="namedview1"
     pagecolor="#ffffff"
     bordercolor="#000000"
     borderopacity="0.25"
     inkscape:showpageshadow="2"
     inkscape:pageopacity="0.0"
     inkscape:pagecheckerboard="0"
     inkscape:deskcolor="#d1d1d1" />
  <g
     id="SVGRepo_iconCarrier"
     style="fill:#e6e6e6;fill-opacity:1"
     inkscape:export-filename="..\..\..\zadanieRekrutacyjneAnkieta\inquiryApp\src\assets\images\bell.svg"
     inkscape:export-xdpi="9.3761854"
     inkscape:export-ydpi="9.3761854"
     transform="matrix(0.64786963,0,0,0.61333185,4.2840274,4.3038424)">
    <path
       fill-rule="evenodd"
       clip-rule="evenodd"
       d="m 11.5,1 c -0.5523,0 -1,0.44772 -1,1 V 3 H 9.99998 C 7.23864,3 4.99999,5.23825 4.99999,7.99975 V 11 c 0,0.7377 -0.23281,1.5722 -0.6026,2.4148 -0.36574,0.8334 -0.83863,1.6146 -1.25597,2.2291 -0.75954,1.1185 -0.28926,2.8862 1.26422,3.1664 1.0158,0.1832 2.45137,0.4012 4.14092,0.5424 -0.00202,0.0488 -0.00304,0.0979 -0.00304,0.1473 0,1.933 1.56698,3.5 3.49998,3.5 1.933,0 3.5,-1.567 3.5,-3.5 0,-0.0518 -0.0011,-0.1034 -0.0033,-0.1547 1.6519,-0.1413 3.0558,-0.355 4.0541,-0.535 1.5535,-0.2802 2.0238,-2.0479 1.2643,-3.1664 -0.4174,-0.6145 -0.8903,-1.3957 -1.256,-2.2291 C 19.2328,12.5722 19,11.7377 19,11 V 7.99975 C 19,5.23825 16.7613,3 14,3 H 13.5 V 2 c 0,-0.55228 -0.4477,-1 -1,-1 z M 12,19.5 c 0.5113,0 1.0122,-0.0102 1.4997,-0.0285 0.0079,0.8043 -0.6456,1.485 -1.4562,1.485 -0.8088,0 -1.4632,-0.6787 -1.4563,-1.4818 C 11.0473,19.491 11.5191,19.5 12,19.5 Z M 9.99998,5 C 8.34305,5 6.99999,6.34298 6.99999,7.99975 V 11 c 0,1.1234 -0.34452,2.2463 -0.77121,3.2186 -0.43074,0.9814 -0.9735,1.8725 -1.43279,2.5489 -0.01021,0.015 -0.01497,0.0294 -0.01658,0.0438 -0.00144,0.0129 -2.2e-4,0.0249 0.00226,0.0345 C 6.3644,17.1303 9.00044,17.5 12,17.5 c 2.9995,0 5.6356,-0.3697 7.2183,-0.6542 0.0025,-0.0096 0.0037,-0.0216 0.0023,-0.0345 C 19.2189,16.7969 19.2142,16.7825 19.204,16.7675 18.7447,16.0911 18.2019,15.2 17.7712,14.2186 17.3445,13.2463 17,12.1234 17,11 V 7.99975 C 17,6.34298 15.6569,5 14,5 Z"
       fill="#0F0F0F"
       id="path1"
       style="fill:#e6e6e6;fill-opacity:1" />
  </g>
</svg>
