<?xml version="1.0" encoding="UTF-8" standalone="no"?>
<svg
   width="354.95999"
   height="114.40001"
   viewBox="22.519995 17.799997 354.95998 114.40001"
   preserveAspectRatio="xMidYMid"
   version="1.1"
   id="svg3"
   sodipodi:docname="Completed.svg"
   inkscape:version="1.3.2 (091e20e, 2023-11-25, custom)"
   xmlns:inkscape="http://www.inkscape.org/namespaces/inkscape"
   xmlns:sodipodi="http://sodipodi.sourceforge.net/DTD/sodipodi-0.dtd"
   xmlns="http://www.w3.org/2000/svg"
   xmlns:svg="http://www.w3.org/2000/svg">
  <sodipodi:namedview
     id="namedview3"
     pagecolor="#ffffff"
     bordercolor="#000000"
     borderopacity="0.25"
     inkscape:showpageshadow="2"
     inkscape:pageopacity="0.0"
     inkscape:pagecheckerboard="0"
     inkscape:deskcolor="#d1d1d1"
     inkscape:zoom="1.1737295"
     inkscape:cx="159.7472"
     inkscape:cy="128.22375"
     inkscape:window-width="1920"
     inkscape:window-height="1017"
     inkscape:window-x="-8"
     inkscape:window-y="-8"
     inkscape:window-maximized="1"
     inkscape:current-layer="svg3" />
  <defs
     id="defs2">
    <linearGradient
       id="swatch3"
       inkscape:swatch="solid">
      <stop
         style="stop-color:#2a1010;stop-opacity:0.7986111;"
         offset="0"
         id="stop3" />
    </linearGradient>
    <linearGradient
       id="editing-gradient-gradient"
       x1="0"
       x2="1"
       y1="0.5"
       y2="0.5"
       gradientUnits="objectBoundingBox">
      <stop
         offset="0"
         stop-color="#f0f"
         id="stop1" />
      <stop
         offset="1"
         stop-color="#0ff"
         id="stop2" />
    </linearGradient>
    <filter
       inkscape:collect="always"
       style="color-interpolation-filters:sRGB"
       id="filter3"
       x="-0.030071986"
       y="-0.16195023"
       width="1.060144"
       height="1.3239005">
      <feGaussianBlur
         inkscape:collect="always"
         stdDeviation="3.6697"
         id="feGaussianBlur3" />
    </filter>
  </defs>
  <g
     id="g3"
     style="mix-blend-mode:normal;fill:#ffffff;fill-opacity:1;stroke:#ececec;filter:url(#filter3)"
     transform="translate(-51.545097,-11.5018)">
    <g
       transform="translate(92.75,103.735)"
       id="g2"
       style="fill:#ffffff;fill-opacity:1;stroke:#ececec">
      <path
         d="m 24.06,-4.16 v 0 0 q 4.55,0 7.97,-2.3 v 0 0 q 3.43,-2.31 5.09,-6.21 v 0 h 5.06 v 0 q -2.12,6.01 -6.98,9.47 v 0 0 Q 30.02,0.51 22.98,0.51 v 0 0 q -9.28,0 -15.04,-6.33 v 0 0 Q 2.5,-11.9 2.5,-21.18 v 0 0 q 0,-9.28 5.44,-15.36 v 0 0 q 5.76,-6.34 15.04,-6.34 v 0 0 q 7.04,0 12.22,3.71 v 0 0 q 4.86,3.46 6.98,9.47 v 0 h -5.06 v 0 q -1.66,-3.9 -5.09,-6.2 v 0 0 q -3.42,-2.31 -7.97,-2.31 v 0 0 q -4.54,0 -7.55,1.31 v 0 0 q -3.01,1.32 -5.05,3.62 v 0 0 q -4.16,4.67 -4.16,12.1 v 0 0 q 0,7.42 4.16,12.09 v 0 0 q 4.35,4.93 12.6,4.93 z m 38.15,-28.35 v 0 0 q 7.17,0 11.65,4.8 v 0 0 q 4.22,4.61 4.22,11.71 v 0 0 q 0,7.1 -4.22,11.71 v 0 0 q -4.48,4.8 -11.65,4.8 v 0 0 q -7.17,0 -11.65,-4.8 v 0 0 Q 46.34,-8.9 46.34,-16 v 0 0 q 0,-7.1 4.22,-11.71 v 0 0 q 4.48,-4.8 11.65,-4.8 z m 0,28.67 v 0 0 q 5.18,0 8.19,-3.58 v 0 0 q 2.88,-3.4 2.88,-8.58 v 0 0 q 0,-5.18 -2.88,-8.58 v 0 0 q -3.01,-3.58 -8.19,-3.58 v 0 0 q -5.19,0 -8.19,3.58 v 0 0 q -2.88,3.4 -2.88,8.58 v 0 0 q 0,5.18 2.88,8.58 v 0 0 q 3,3.58 8.19,3.58 z M 89.22,-32 v 4.86 0 q 3.2,-5.37 9.72,-5.37 v 0 0 q 3.2,0 5.92,1.69 v 0 0 q 2.72,1.7 4.26,4.77 v 0 0 q 2.18,-4.03 6.78,-5.76 v 0 0 q 1.86,-0.7 4.2,-0.7 v 0 0 q 2.33,0 4.48,0.93 v 0 0 q 2.14,0.92 3.8,2.65 v 0 0 q 3.59,3.84 3.59,9.6 v 0 V 0 h -4.8 v -19.2 0 q 0,-3.97 -2.24,-6.53 v 0 0 q -2.24,-2.43 -5.7,-2.43 v 0 0 q -3.65,0 -6.08,2.37 v 0 0 q -2.56,2.43 -2.56,6.65 v 0 V 0 h -4.8 v -19.2 0 q 0,-3.97 -2.24,-6.53 v 0 0 q -2.24,-2.43 -5.69,-2.43 v 0 0 q -3.65,0 -6.08,2.37 v 0 0 q -2.56,2.43 -2.56,6.65 v 0 V 0 h -4.8 v -32 z m 55.55,0 v 5.12 0 q 3.84,-5.63 11.45,-5.63 v 0 0 q 6.92,0 11.2,4.8 v 0 0 q 4.29,4.73 4.29,11.71 v 0 0 q 0,6.98 -4.29,11.71 v 0 0 q -4.28,4.8 -11.52,4.8 v 0 0 q -7.23,0 -11.13,-5.69 v 0 17.85 h -4.8 V -32 Z m 10.81,3.84 v 0 0 q -5.18,0 -8.19,3.58 v 0 0 q -2.88,3.4 -2.88,8.58 v 0 0 q 0,5.18 2.88,8.58 v 0 0 q 3.01,3.58 8.19,3.58 v 0 0 q 5.12,0 8.32,-3.58 v 0 0 q 3.01,-3.4 3.01,-8.58 v 0 0 q 0,-5.18 -3.01,-8.58 v 0 0 q -3.2,-3.58 -8.32,-3.58 z m 27.2,-16.64 V 0 h -4.8 v -44.8 z m 22.6,40.96 v 0 0 q 6.46,0 9.28,-5.38 v 0 h 5.24 v 0 q -1.66,4.36 -5.28,7.04 v 0 0 q -3.61,2.69 -9.31,2.69 v 0 0 q -7.23,0 -11.77,-4.8 v 0 0 Q 189.12,-8.96 189.12,-16 v 0 0 q 0,-7.1 4.22,-11.71 v 0 0 q 4.48,-4.8 11.65,-4.8 v 0 0 q 7.17,0 11.65,4.8 v 0 0 q 4.22,4.61 4.22,11.71 v 0 1.92 h -26.81 v 0 q 0.51,4.42 3.52,7.3 v 0 0 q 3.07,2.94 7.81,2.94 z m -0.39,-24.32 v 0 0 q -4.41,0 -7.42,2.75 v 0 0 q -2.82,2.63 -3.46,6.85 v 0 h 21.76 v 0 q -0.64,-4.22 -3.45,-6.85 v 0 0 q -3.01,-2.75 -7.43,-2.75 z M 234.62,0 h -4.8 V -27.78 H 223.3 V -32 h 6.52 v -11.46 h 4.8 V -32 h 7.36 v 4.22 h -7.36 z m 26.24,-3.84 v 0 0 q 6.47,0 9.28,-5.38 v 0 h 5.25 v 0 q -1.66,4.36 -5.28,7.04 v 0 0 q -3.61,2.69 -9.31,2.69 v 0 0 q -7.23,0 -11.78,-4.8 v 0 0 Q 244.61,-8.96 244.61,-16 v 0 0 q 0,-7.1 4.22,-11.71 v 0 0 q 4.48,-4.8 11.65,-4.8 v 0 0 q 7.17,0 11.65,4.8 v 0 0 q 4.22,4.61 4.22,11.71 v 0 1.92 h -26.81 v 0 q 0.51,4.42 3.52,7.3 v 0 0 q 3.07,2.94 7.8,2.94 z m -0.38,-24.32 v 0 0 q -4.42,0 -7.42,2.75 v 0 0 q -2.82,2.63 -3.46,6.85 v 0 h 21.76 v 0 q -0.64,-4.22 -3.46,-6.85 v 0 0 q -3,-2.75 -7.42,-2.75 z M 307.2,0 v -5.12 0 q -3.84,5.63 -11.46,5.63 v 0 0 q -6.91,0 -11.26,-4.8 v 0 0 Q 280.26,-9.02 280.26,-16 v 0 0 q 0,-6.98 4.22,-11.71 v 0 0 q 4.35,-4.8 11.58,-4.8 v 0 0 q 7.24,0 11.14,5.69 v 0 -17.98 H 312 V 0 Z m -10.82,-3.84 v 0 0 q 5.19,0 8.2,-3.58 v 0 0 q 2.88,-3.4 2.88,-8.58 v 0 0 q 0,-5.18 -2.88,-8.58 v 0 0 q -3.01,-3.58 -8.2,-3.58 v 0 0 q -5.12,0 -8.32,3.58 v 0 0 q -3,3.4 -3,8.58 v 0 0 q 0,5.18 3,8.58 v 0 0 q 3.2,3.58 8.32,3.58 z"
         fill="url(#editing-gradient-gradient)"
         id="path2"
         style="fill:#ffffff;fill-opacity:1;stroke:#ececec" />
    </g>
  </g>
  <style
     id="style3">text {
  font-size: 64px;
  font-family: Arial Black;
  dominant-baseline: central;
  text-anchor: middle;
}</style>
</svg>
