<?xml version="1.0" encoding="UTF-8" standalone="no"?>
<svg
   width="765.79999"
   height="100"
   viewBox="-132.9 8.6400085 765.8 99.999996"
   preserveAspectRatio="xMidYMid"
   version="1.1"
   id="svg4"
   sodipodi:docname="pollster-main.svg"
   inkscape:version="1.3.2 (091e20e, 2023-11-25, custom)"
   inkscape:export-filename="pollster-main.png"
   inkscape:export-xdpi="96"
   inkscape:export-ydpi="96"
   xmlns:inkscape="http://www.inkscape.org/namespaces/inkscape"
   xmlns:sodipodi="http://sodipodi.sourceforge.net/DTD/sodipodi-0.dtd"
   xmlns="http://www.w3.org/2000/svg"
   xmlns:svg="http://www.w3.org/2000/svg">
  <sodipodi:namedview
     id="namedview4"
     pagecolor="#ffffff"
     bordercolor="#000000"
     borderopacity="0.25"
     inkscape:showpageshadow="2"
     inkscape:pageopacity="0.0"
     inkscape:pagecheckerboard="0"
     inkscape:deskcolor="#d1d1d1"
     inkscape:zoom="1.3314808"
     inkscape:cx="184.7567"
     inkscape:cy="-43.185001"
     inkscape:window-width="1920"
     inkscape:window-height="1017"
     inkscape:window-x="-8"
     inkscape:window-y="-8"
     inkscape:window-maximized="1"
     inkscape:current-layer="svg4" />
  <defs
     id="defs3">
    <filter
       id="editing-hover"
       x="-0.00093942582"
       y="-0.016175995"
       width="1.0018789"
       height="1.032352">
      <feFlood
         flood-color="#d2d6d9"
         result="flood"
         id="feFlood1" />
      <feComposite
         operator="in"
         in2="SourceAlpha"
         in="flood"
         result="shadow"
         id="feComposite1" />
      <feOffset
         dx="0"
         dy="-0.5"
         in="SourceGraphic"
         result="offset-1"
         id="feOffset1" />
      <feOffset
         dx="0"
         dy="0.5"
         in="shadow"
         result="offset-2"
         id="feOffset2" />
      <feMerge
         id="feMerge3">
        <feMergeNode
           in="offset-2"
           id="feMergeNode2" />
        <feMergeNode
           in="offset-1"
           id="feMergeNode3" />
      </feMerge>
    </filter>
  </defs>
  <g
     filter="url(#editing-hover)"
     id="g4"
     transform="translate(-102.27614,-27.486674)"
     style="fill:#999999;stroke:#999999">
    <g
       transform="translate(-24.900008,105.91)"
       id="g3"
       style="fill:#999999;stroke:#999999">
      <path
         d="m 8.78,0 v -43.02 h 7.26 l 13.81,26.1 14.02,-26.1 h 6.81 V 0 H 45.53 V -35.63 L 32.3,-12.32 H 27.16 L 13.93,-35.63 V 0 Z m 63.6,-30.49 v 0 0 q 3.33,0 5.65,0.78 v 0 0 q 2.32,0.77 3.57,2.25 v 0 0 q 1.26,1.49 1.8,3.3 v 0 0 q 0.55,1.82 0.55,4.18 v 0 V 0 h -3.51 l -1.15,-2.72 v 0 q -3.67,3.33 -8.42,3.33 v 0 0 q -4.24,0 -7.17,-2.56 v 0 0 q -2.94,-2.56 -2.94,-5.98 v 0 0 q 0,-1.82 0.66,-3.27 v 0 0 q 0.67,-1.45 1.93,-2.42 v 0 0 q 1.25,-0.97 2.86,-1.65 v 0 0 q 1.6,-0.68 3.74,-1.05 v 0 0 q 2.13,-0.36 4.28,-0.51 v 0 0 q 2.15,-0.15 4.72,-0.15 v 0 -2.36 0 q 0,-1.03 -0.07,-1.79 v 0 0 q -0.08,-0.76 -0.5,-1.82 v 0 0 q -0.43,-1.06 -1.15,-1.74 v 0 0 q -0.73,-0.68 -2.18,-1.18 v 0 0 q -1.46,-0.5 -3.45,-0.5 v 0 0 q -3.09,0 -8,1.36 v 0 l -0.93,-3.63 v 0 q 4.96,-1.85 9.71,-1.85 z m 6.57,24.13 v -6.87 h -1.84 v 0 q -1.73,0 -3,0.06 v 0 0 q -1.27,0.06 -2.98,0.35 v 0 0 q -1.71,0.29 -2.8,0.8 v 0 0 q -1.09,0.52 -1.86,1.5 v 0 0 q -0.78,0.98 -0.78,2.35 v 0 0 q 0,1.9 1.93,3.39 v 0 0 q 1.92,1.48 4.58,1.48 v 0 0 q 3.91,0 6.75,-3.06 z M 94.39,-37.3 v -5.72 h 5.88 v 5.72 z M 94.85,0 v -29.91 h 4.96 V 0 Z m 15.86,0 v -29.91 h 3.48 l 1.09,2.54 v 0 q 5.78,-3.15 10.54,-3.15 v 0 0 q 2.45,0 4.26,0.78 v 0 0 q 1.82,0.77 2.82,1.93 v 0 0 q 1,1.17 1.59,2.94 v 0 0 q 0.59,1.77 0.76,3.38 v 0 0 q 0.16,1.6 0.16,3.66 v 0 V 0 h -4.96 v -18.16 0 q 0,-7.88 -6.78,-7.88 v 0 0 q -3.51,0 -8,2.34 v 0 V 0 Z m 65.63,-30.49 v 0 0 q 1.85,0 3.61,0.44 v 0 0 q 1.75,0.44 3.52,1.55 v 0 0 q 1.77,1.1 3.09,2.78 v 0 0 q 1.32,1.68 2.15,4.38 v 0 0 q 0.83,2.69 0.83,6.05 v 0 0 q 0,7.36 -3.92,11.63 v 0 0 q -3.92,4.27 -10.16,4.27 v 0 0 q -3.57,0 -7.23,-1.61 v 0 17.08 h -4.97 v -45.99 h 3.46 l 0.81,1.91 v 0 q 4.24,-2.49 8.81,-2.49 z m -1.69,4.12 v 0 0 q -3.3,0 -6.42,1.67 v 0 19.95 0 q 3.24,1.45 6.51,1.45 v 0 0 q 1.39,0 2.69,-0.3 v 0 0 q 1.3,-0.31 2.65,-1.11 v 0 0 q 1.35,-0.8 2.35,-2.01 v 0 0 q 1,-1.21 1.63,-3.21 v 0 0 q 0.64,-2 0.64,-4.51 v 0 0 q 0,-2.85 -0.67,-5.03 v 0 0 q -0.66,-2.18 -1.69,-3.45 v 0 0 q -1.03,-1.27 -2.42,-2.09 v 0 0 q -1.4,-0.81 -2.67,-1.09 v 0 0 q -1.27,-0.27 -2.6,-0.27 z m 37.29,-4.12 v 0 0 q 6.21,0 10.22,3.97 v 0 0 q 4.01,3.97 4.01,10.96 v 0 0 q 0,7.42 -4.1,11.79 v 0 0 q -4.1,4.38 -10.61,4.38 v 0 0 q -6.21,0 -10.14,-4.11 v 0 0 q -3.94,-4.1 -3.94,-11.12 v 0 0 q 0,-7.24 4.01,-11.55 v 0 0 q 4.02,-4.32 10.55,-4.32 z m -0.42,4.24 v 0 0 q -3.72,0 -6.51,2.88 v 0 0 q -2.78,2.87 -2.78,7.9 v 0 0 q 0,5 2.72,8.42 v 0 0 q 2.73,3.42 7.05,3.42 v 0 0 q 4,0 6.67,-3.03 v 0 0 q 2.66,-3.03 2.66,-7.9 v 0 0 q 0,-2.79 -0.86,-5.06 v 0 0 q -0.87,-2.27 -2.27,-3.69 v 0 0 q -1.41,-1.42 -3.14,-2.18 v 0 0 q -1.72,-0.76 -3.54,-0.76 z M 236.16,0 v -45.74 h 4.97 V 0 Z m 17.08,0 v -45.74 h 4.96 V 0 Z m 28.88,-30.49 v 0 0 q 0.63,0 1.19,0.02 v 0 0 q 0.56,0.01 1.09,0.08 v 0 0 q 0.53,0.06 0.91,0.09 v 0 0 q 0.38,0.03 0.88,0.12 v 0 0 q 0.5,0.09 0.73,0.13 v 0 0 q 0.22,0.05 0.75,0.19 v 0 0 q 0.53,0.13 0.65,0.16 v 0 0 q 0.13,0.03 0.72,0.21 v 0 0 q 0.59,0.19 0.68,0.22 v 0 l -1.27,3.78 v 0 q -4.06,-1.12 -7.15,-1.12 v 0 0 q -1.79,0 -3.16,0.36 v 0 0 q -1.38,0.37 -2.12,0.88 v 0 0 q -0.74,0.52 -1.21,1.2 v 0 0 q -0.47,0.68 -0.61,1.19 v 0 0 q -0.13,0.52 -0.13,1 v 0 0 q 0,1.24 1.28,2.21 v 0 0 q 1.29,0.97 3.21,1.58 v 0 0 q 1.92,0.6 4.16,1.43 v 0 0 q 2.24,0.84 4.17,1.76 v 0 0 q 1.92,0.92 3.21,2.59 v 0 0 q 1.28,1.66 1.28,3.84 v 0 0 q 0,1.24 -0.32,2.41 v 0 0 q -0.31,1.16 -1.21,2.44 v 0 0 q -0.89,1.27 -2.3,2.19 v 0 0 q -1.41,0.92 -3.77,1.53 v 0 0 q -2.36,0.61 -5.42,0.61 v 0 0 q -4.63,0 -10.17,-2.28 v 0 l 1.39,-3.75 v 0 q 3.12,1.15 5.11,1.64 v 0 0 q 1.98,0.48 3.89,0.48 v 0 0 q 7.38,0 7.38,-4.69 v 0 0 q 0,-1.03 -0.72,-1.82 v 0 0 q -0.73,-0.79 -1.94,-1.29 v 0 0 q -1.21,-0.49 -2.74,-1.02 v 0 0 q -1.53,-0.53 -3.12,-0.99 v 0 0 q -1.59,-0.45 -3.12,-1.19 v 0 0 q -1.53,-0.75 -2.74,-1.64 v 0 0 q -1.21,-0.89 -1.93,-2.31 v 0 0 q -0.73,-1.43 -0.73,-3.21 v 0 0 q 0,-1.09 0.35,-2.23 v 0 0 q 0.35,-1.13 1.3,-2.39 v 0 0 q 0.95,-1.26 2.38,-2.21 v 0 0 q 1.42,-0.95 3.79,-1.57 v 0 0 q 2.38,-0.63 5.38,-0.63 z m 33.54,26.58 0.7,3.4 v 0 q -4.39,1.12 -6.84,1.12 v 0 0 q -2.46,0 -4.15,-0.79 v 0 0 q -1.7,-0.79 -2.58,-2.24 v 0 0 q -0.87,-1.46 -1.25,-3.14 v 0 0 q -0.38,-1.68 -0.38,-3.86 v 0 V -26 h -4.03 v -3.91 h 4.03 v -8.57 h 4.97 v 8.57 h 9.11 V -26 h -9.11 v 16.52 0 q 0,6.21 4.9,6.21 v 0 0 q 0.88,0 4.63,-0.64 z m 21.13,-26.58 v 0 0 q 2.18,0 3.92,0.53 v 0 0 q 1.74,0.53 2.89,1.35 v 0 0 q 1.15,0.82 1.99,2.14 v 0 0 q 0.83,1.31 1.27,2.54 v 0 0 q 0.44,1.22 0.68,2.95 v 0 0 q 0.24,1.73 0.3,3 v 0 0 q 0.06,1.27 0.06,2.99 v 0 2.37 h -20.55 v 0 q 0,1.63 0.74,3.25 v 0 0 q 0.74,1.62 2.09,2.97 v 0 0 q 1.34,1.34 3.54,2.19 v 0 0 q 2.19,0.85 4.86,0.85 v 0 0 q 3.15,0 6.81,-1.09 v 0 l 0.88,3.39 v 0 q -4.88,1.67 -9.57,1.67 v 0 0 q -3.3,0 -5.86,-0.88 v 0 0 q -2.55,-0.88 -4.11,-2.29 v 0 0 q -1.56,-1.41 -2.56,-3.37 v 0 0 q -1,-1.97 -1.38,-3.92 v 0 0 q -0.38,-1.96 -0.38,-4.14 v 0 0 q 0,-3.36 0.82,-6.14 v 0 0 q 0.82,-2.79 2.21,-4.68 v 0 0 q 1.39,-1.89 3.25,-3.19 v 0 0 q 1.87,-1.3 3.91,-1.9 v 0 0 q 2.04,-0.59 4.19,-0.59 z m -1.06,4.3 v 0 0 q -2.66,0 -4.58,1.47 v 0 0 q -1.93,1.47 -2.8,3.65 v 0 0 q -0.88,2.18 -0.88,4.69 v 0 h 15.62 v 0 q 0,-9.81 -7.36,-9.81 z m 25.04,-3.72 0.94,2.24 v 0 q 3.78,-2.82 8.35,-2.82 v 0 0 q 3.15,0 5.72,1.19 v 0 l -1.51,3.96 v 0 q -2.36,-0.91 -4.9,-0.91 v 0 0 q -3.79,0 -7.12,2.09 v 0 V 0 h -4.96 v -29.91 z m 50.8,-0.58 v 0 0 q 1.84,0 3.6,0.44 v 0 0 q 1.76,0.44 3.53,1.55 v 0 0 q 1.77,1.1 3.08,2.78 v 0 0 q 1.32,1.68 2.15,4.38 v 0 0 q 0.84,2.69 0.84,6.05 v 0 0 q 0,7.36 -3.92,11.63 v 0 0 q -3.92,4.27 -10.16,4.27 v 0 0 q -3.57,0 -7.24,-1.61 v 0 17.08 h -4.96 v -45.99 h 3.45 l 0.82,1.91 v 0 q 4.24,-2.49 8.81,-2.49 z m -1.7,4.12 v 0 0 q -3.3,0 -6.42,1.67 v 0 19.95 0 q 3.24,1.45 6.51,1.45 v 0 0 q 1.4,0 2.7,-0.3 v 0 0 q 1.3,-0.31 2.65,-1.11 v 0 0 q 1.34,-0.8 2.34,-2.01 v 0 0 q 1,-1.21 1.64,-3.21 v 0 0 q 0.63,-2 0.63,-4.51 v 0 0 q 0,-2.85 -0.66,-5.03 v 0 0 q -0.67,-2.18 -1.7,-3.45 v 0 0 q -1.03,-1.27 -2.42,-2.09 v 0 0 q -1.39,-0.81 -2.66,-1.09 v 0 0 q -1.28,-0.27 -2.61,-0.27 z m 34.15,-4.12 v 0 0 q 3.33,0 5.65,0.78 v 0 0 q 2.31,0.77 3.57,2.25 v 0 0 q 1.26,1.49 1.8,3.3 v 0 0 q 0.54,1.82 0.54,4.18 v 0 V 0 h -3.51 l -1.15,-2.72 v 0 q -3.66,3.33 -8.41,3.33 v 0 0 q -4.24,0 -7.18,-2.56 v 0 0 q -2.93,-2.56 -2.93,-5.98 v 0 0 q 0,-1.82 0.66,-3.27 v 0 0 q 0.67,-1.45 1.92,-2.42 v 0 0 q 1.26,-0.97 2.86,-1.65 v 0 0 q 1.61,-0.68 3.74,-1.05 v 0 0 q 2.14,-0.36 4.29,-0.51 v 0 0 q 2.15,-0.15 4.72,-0.15 v 0 -2.36 0 q 0,-1.03 -0.08,-1.79 v 0 0 q -0.07,-0.76 -0.5,-1.82 v 0 0 q -0.42,-1.06 -1.15,-1.74 v 0 0 q -0.72,-0.68 -2.18,-1.18 v 0 0 q -1.45,-0.5 -3.45,-0.5 v 0 0 q -3.08,0 -7.99,1.36 v 0 l -0.94,-3.63 v 0 q 4.97,-1.85 9.72,-1.85 z m 6.57,24.13 v -6.87 h -1.85 v 0 q -1.72,0 -2.99,0.06 v 0 0 q -1.28,0.06 -2.99,0.35 v 0 0 q -1.71,0.29 -2.8,0.8 v 0 0 q -1.09,0.52 -1.86,1.5 v 0 0 q -0.77,0.98 -0.77,2.35 v 0 0 q 0,1.9 1.92,3.39 v 0 0 q 1.92,1.48 4.59,1.48 v 0 0 q 3.9,0 6.75,-3.06 z M 466.48,0 v -29.91 h 3.48 l 1.09,2.54 v 0 q 5.79,-3.15 10.54,-3.15 v 0 0 q 2.45,0 4.27,0.78 v 0 0 q 1.81,0.77 2.81,1.93 v 0 0 q 1,1.17 1.59,2.94 v 0 0 q 0.59,1.77 0.76,3.38 v 0 0 q 0.17,1.6 0.17,3.66 v 0 V 0 h -4.97 v -18.16 0 q 0,-7.88 -6.78,-7.88 v 0 0 q -3.51,0 -7.99,2.34 v 0 V 0 Z m 48.47,-30.49 v 0 0 q 2.18,0 3.92,0.53 v 0 0 q 1.74,0.53 2.89,1.35 v 0 0 q 1.15,0.82 1.99,2.14 v 0 0 q 0.83,1.31 1.27,2.54 v 0 0 q 0.44,1.22 0.68,2.95 v 0 0 q 0.24,1.73 0.3,3 v 0 0 q 0.06,1.27 0.06,2.99 v 0 2.37 h -20.55 v 0 q 0,1.63 0.74,3.25 v 0 0 q 0.74,1.62 2.09,2.97 v 0 0 q 1.34,1.34 3.54,2.19 v 0 0 q 2.19,0.85 4.86,0.85 v 0 0 q 3.15,0 6.81,-1.09 v 0 l 0.88,3.39 v 0 q -4.88,1.67 -9.57,1.67 v 0 0 q -3.3,0 -5.86,-0.88 v 0 0 q -2.56,-0.88 -4.11,-2.29 v 0 0 q -1.56,-1.41 -2.56,-3.37 v 0 0 q -1,-1.97 -1.38,-3.92 v 0 0 q -0.38,-1.96 -0.38,-4.14 v 0 0 q 0,-3.36 0.82,-6.14 v 0 0 q 0.82,-2.79 2.21,-4.68 v 0 0 q 1.39,-1.89 3.25,-3.19 v 0 0 q 1.86,-1.3 3.91,-1.9 v 0 0 q 2.04,-0.59 4.19,-0.59 z m -1.06,4.3 v 0 0 q -2.66,0 -4.58,1.47 v 0 0 q -1.93,1.47 -2.81,3.65 v 0 0 q -0.87,2.18 -0.87,4.69 v 0 h 15.62 v 0 q 0,-9.81 -7.36,-9.81 z M 536.05,0 v -45.74 h 4.97 V 0 Z"
         fill="#d2d6d9"
         id="path3"
         style="fill:#999999;stroke:#999999" />
    </g>
  </g>
  <style
     id="style4">text {
  font-size: 64px;
  font-family: Arial Black;
  dominant-baseline: central;
  text-anchor: middle;
}</style>
</svg>
