<?xml version="1.0" encoding="UTF-8" standalone="no"?>
<!-- Uploaded to: SVG Repo, www.svgrepo.com, Transformed by: SVG Repo Mixer Tools -->

<svg
   height="80"
   width="80"
   version="1.1"
   id="_x32_"
   viewBox="0 0 51.2 51.2"
   xml:space="preserve"
   fill="#000000"
   sodipodi:docname="questionnaire — kopia.svg"
   inkscape:version="1.3.2 (091e20e, 2023-11-25, custom)"
   inkscape:export-filename="questionnaire.svg"
   inkscape:export-xdpi="96"
   inkscape:export-ydpi="96"
   xmlns:inkscape="http://www.inkscape.org/namespaces/inkscape"
   xmlns:sodipodi="http://sodipodi.sourceforge.net/DTD/sodipodi-0.dtd"
   xmlns="http://www.w3.org/2000/svg"
   xmlns:svg="http://www.w3.org/2000/svg"><defs
   id="defs4" /><sodipodi:namedview
   id="namedview4"
   pagecolor="#ffffff"
   bordercolor="#000000"
   borderopacity="0.25"
   inkscape:showpageshadow="2"
   inkscape:pageopacity="0.0"
   inkscape:pagecheckerboard="0"
   inkscape:deskcolor="#d1d1d1"
   inkscape:zoom="4.105"
   inkscape:cx="38.367844"
   inkscape:cy="60.535932"
   inkscape:window-width="1920"
   inkscape:window-height="1017"
   inkscape:window-x="-8"
   inkscape:window-y="-8"
   inkscape:window-maximized="1"
   inkscape:current-layer="_x32_" />





<g
   id="SVGRepo_iconCarrier"
   transform="matrix(0.08813339,0,0,0.09135022,-4.2439398,0.62362956)"
   style="fill:#cccccc;stroke:#cccccc"> <style
   type="text/css"
   id="style1"> .st0{fill:#000000;} </style> <g
   id="g4"
   style="fill:#cccccc;stroke:#cccccc"> <path
   class="st0"
   d="m 400.486,54.843 h -23.954 c 0.208,2.016 0.323,4.048 0.323,6.119 V 87.81 c 0,5.804 -0.877,11.4 -2.463,16.696 h 30.312 c 0.586,0 1.055,0.469 1.055,1.054 v 345.485 c 0,0.585 -0.469,1.055 -1.055,1.055 H 107.296 c -0.585,0 -1.055,-0.47 -1.055,-1.055 V 105.56 c 0,-0.585 0.47,-1.054 1.055,-1.054 h 30.312 C 136.023,99.21 135.145,93.614 135.145,87.81 V 60.962 c 0,-2.071 0.116,-4.103 0.323,-6.119 h -23.954 c -28.988,0 -52.565,23.576 -52.565,52.564 v 352.027 c 0,28.988 23.577,52.565 52.565,52.565 h 288.971 c 28.988,0 52.564,-23.577 52.564,-52.565 V 107.408 C 453.05,78.42 429.474,54.843 400.486,54.843 Z"
   id="path1"
   style="fill:#cccccc;stroke:#cccccc" /> <path
   class="st0"
   d="m 193.483,122.502 h 125.035 c 19.127,0 34.691,-15.565 34.691,-34.692 V 60.962 c 0,-19.128 -15.564,-34.691 -34.691,-34.691 H 291.123 C 286.612,10.884 272.58,0 256,0 239.412,0 225.388,10.884 220.87,26.271 h -27.387 c -19.128,0 -34.692,15.564 -34.692,34.691 V 87.81 c 0,19.128 15.564,34.692 34.692,34.692 z m 62.525,-98.941 c 7.281,0 13.209,5.927 13.209,13.209 0,7.305 -5.928,13.232 -13.209,13.232 -7.297,0 -13.232,-5.926 -13.232,-13.232 0,-7.282 5.935,-13.209 13.232,-13.209 z"
   id="path2"
   style="fill:#cccccc;stroke:#cccccc" /> <polygon
   class="st0"
   points="176.872,193.355 156.728,173.204 145.214,184.719 176.872,216.386 188.387,204.871 220.046,173.204 208.538,161.696 "
   id="polygon2"
   style="fill:#cccccc;stroke:#cccccc" /> <polygon
   class="st0"
   points="176.872,276.116 156.728,255.965 145.214,267.48 176.872,299.147 188.387,287.632 220.046,255.965 208.538,244.458 "
   id="polygon3"
   style="fill:#cccccc;stroke:#cccccc" /> <polygon
   class="st0"
   points="156.728,338.726 145.214,350.241 188.387,370.393 220.046,338.726 208.538,327.219 176.872,358.878 "
   id="polygon4"
   style="fill:#cccccc;stroke:#cccccc" /> </g> </g>

</svg>
