<?xml version="1.0" encoding="UTF-8" standalone="no"?>
<!-- Uploaded to: SVG Repo, www.svgrepo.com, Transformed by: SVG Repo Mixer Tools -->

<svg
   height="100"
   width="91"
   version="1.1"
   id="_x32_"
   viewBox="0 0 298.66675 328.2052"
   xml:space="preserve"
   fill="#000000"
   stroke="#000000"
   stroke-width="0.00512"
   sodipodi:docname="register.svg"
   xmlns:inkscape="http://www.inkscape.org/namespaces/inkscape"
   xmlns:sodipodi="http://sodipodi.sourceforge.net/DTD/sodipodi-0.dtd"
   xmlns="http://www.w3.org/2000/svg"
   xmlns:svg="http://www.w3.org/2000/svg"><defs
   id="defs6" /><sodipodi:namedview
   id="namedview6"
   pagecolor="#ffffff"
   bordercolor="#000000"
   borderopacity="0.25"
   inkscape:showpageshadow="2"
   inkscape:pageopacity="0.0"
   inkscape:pagecheckerboard="0"
   inkscape:deskcolor="#d1d1d1" />



<g
   id="SVGRepo_tracerCarrier"
   stroke-linecap="round"
   stroke-linejoin="round"
   stroke="#808080"
   stroke-width="8.192"
   transform="matrix(0.50378327,0,0,0.49993562,24.601503,33.922423)"> <style
   type="text/css"
   id="style1"> .st0{fill:#dee2e6;} </style> <g
   id="g3"> <path
   class="st0"
   d="m 259.993,460.958 c 14.498,14.498 75.487,-23.002 89.985,-37.492 l 59.598,-59.606 -52.494,-52.485 -59.597,59.597 c -14.489,14.49 -51.981,75.488 -37.492,89.986 z"
   id="path1" /> <path
   class="st0"
   d="m 493.251,227.7 c -14.498,-14.49 -37.996,-14.49 -52.485,0 l -71.68,71.678 52.494,52.486 71.671,-71.68 c 14.49,-14.489 14.49,-37.986 0,-52.484 z m -93.665,81.182 -9.008,-8.999 50.18,-50.18 8.991,8.99 z"
   id="path2" /> <path
   class="st0"
   d="m 374.714,448.193 c -14.071,14.055 -67.572,51.008 -104.791,51.008 -0.008,0 0,0 -0.008,0 -17.47,0 -28.484,-7.351 -34.648,-13.516 -44.758,-44.775 36.604,-138.56 37.492,-139.439 l 4.123,-4.124 c -3.944,-4.354 -5.644,-10.348 -5.644,-22.302 0,-8.836 0,-25.256 0,-40.403 11.364,-12.619 15.497,-11.048 25.103,-60.596 19.433,0 18.178,-25.248 27.34,-47.644 7.479,-18.238 1.212,-25.632 -5.072,-28.655 5.14,-66.463 5.14,-112.236 -70.296,-126.435 -27.349,-23.438 -68.606,-15.48 -88.158,-11.57 -19.536,3.911 -37.159,0 -37.159,0 l 3.355,31.49 C 97.74,70.339 112.05,116.112 107.44,142.923 c -5.994,3.27 -11.407,10.809 -4.269,28.254 9.17,22.396 7.906,47.644 27.339,47.644 9.614,49.548 13.747,47.976 25.111,60.596 0,15.148 0,31.567 0,40.403 0,25.248 -8.58,25.684 -28.134,36.612 -47.14,26.35 -108.572,41.659 -119.571,124.01 -2.014,15.062 84.462,31.506 205.518,31.558 121.04,-0.052 207.524,-16.496 205.518,-31.558 -3.168,-23.702 -10.648,-41.547 -20.68,-55.806 z"
   id="path3" /> </g> </g>

<g
   id="SVGRepo_iconCarrier"
   transform="matrix(0.50378327,0,0,0.49993562,24.601503,33.922423)"> <style
   type="text/css"
   id="style3"> .st0{fill:#dee2e6;} </style> <g
   id="g6"> <path
   class="st0"
   d="m 259.993,460.958 c 14.498,14.498 75.487,-23.002 89.985,-37.492 l 59.598,-59.606 -52.494,-52.485 -59.597,59.597 c -14.489,14.49 -51.981,75.488 -37.492,89.986 z"
   id="path4" /> <path
   class="st0"
   d="m 493.251,227.7 c -14.498,-14.49 -37.996,-14.49 -52.485,0 l -71.68,71.678 52.494,52.486 71.671,-71.68 c 14.49,-14.489 14.49,-37.986 0,-52.484 z m -93.665,81.182 -9.008,-8.999 50.18,-50.18 8.991,8.99 z"
   id="path5" /> <path
   class="st0"
   d="m 374.714,448.193 c -14.071,14.055 -67.572,51.008 -104.791,51.008 -0.008,0 0,0 -0.008,0 -17.47,0 -28.484,-7.351 -34.648,-13.516 -44.758,-44.775 36.604,-138.56 37.492,-139.439 l 4.123,-4.124 c -3.944,-4.354 -5.644,-10.348 -5.644,-22.302 0,-8.836 0,-25.256 0,-40.403 11.364,-12.619 15.497,-11.048 25.103,-60.596 19.433,0 18.178,-25.248 27.34,-47.644 7.479,-18.238 1.212,-25.632 -5.072,-28.655 5.14,-66.463 5.14,-112.236 -70.296,-126.435 -27.349,-23.438 -68.606,-15.48 -88.158,-11.57 -19.536,3.911 -37.159,0 -37.159,0 l 3.355,31.49 C 97.74,70.339 112.05,116.112 107.44,142.923 c -5.994,3.27 -11.407,10.809 -4.269,28.254 9.17,22.396 7.906,47.644 27.339,47.644 9.614,49.548 13.747,47.976 25.111,60.596 0,15.148 0,31.567 0,40.403 0,25.248 -8.58,25.684 -28.134,36.612 -47.14,26.35 -108.572,41.659 -119.571,124.01 -2.014,15.062 84.462,31.506 205.518,31.558 121.04,-0.052 207.524,-16.496 205.518,-31.558 -3.168,-23.702 -10.648,-41.547 -20.68,-55.806 z"
   id="path6" /> </g> </g>

</svg>
