<?xml version="1.0" encoding="UTF-8" standalone="no"?>
<!-- Uploaded to: SVG Repo, www.svgrepo.com, Transformed by: SVG Repo Mixer Tools -->

<svg
   width="800"
   height="800"
   viewBox="0 0 32 32"
   version="1.1"
   fill="#dee2e6"
   stroke="#dee2e6"
   id="svg1"
   sodipodi:docname="search-svgrepo-com.svg"
   inkscape:export-filename="search.svg"
   inkscape:export-xdpi="7.1999998"
   inkscape:export-ydpi="7.1999998"
   xmlns:inkscape="http://www.inkscape.org/namespaces/inkscape"
   xmlns:sodipodi="http://sodipodi.sourceforge.net/DTD/sodipodi-0.dtd"
   xmlns="http://www.w3.org/2000/svg"
   xmlns:svg="http://www.w3.org/2000/svg"
   xmlns:sketch="http://www.bohemiancoding.com/sketch/ns">
  <defs
     id="defs2" />
  <sodipodi:namedview
     id="namedview1"
     pagecolor="#ffffff"
     bordercolor="#000000"
     borderopacity="0.25"
     inkscape:showpageshadow="2"
     inkscape:pageopacity="0.0"
     inkscape:pagecheckerboard="0"
     inkscape:deskcolor="#d1d1d1" />
  <g
     id="SVGRepo_iconCarrier"
     style="fill:#ffffff;stroke:#4d4d4d">
    <title
       id="title1">search</title>
    <desc
       id="desc1">Created with Sketch Beta.</desc>
    <defs
       id="defs1" />
    <g
       id="Page-1"
       stroke-width="0.384"
       fill="none"
       fill-rule="evenodd"
       sketch:type="MSPage"
       style="fill:#cccccc;stroke:#cccccc"
       transform="matrix(0.54891786,0,0.01321778,0.52562764,5.9000594,7.1586442)">
      <g
         id="Icon-Set"
         sketch:type="MSLayerGroup"
         transform="translate(-256,-1139)"
         fill="#dee2e6"
         style="fill:#cccccc;stroke:#cccccc">
        <path
           d="m 269.46,1163.45 c -6.29,0 -11.389,-5.01 -11.389,-11.2 0,-6.19 5.099,-11.21 11.389,-11.21 6.29,0 11.39,5.02 11.39,11.21 0,6.19 -5.1,11.2 -11.39,11.2 z m 18.228,5.8 -8.259,-8.13 c 2.162,-2.35 3.491,-5.45 3.491,-8.87 0,-7.32 -6.026,-13.25 -13.46,-13.25 -7.434,0 -13.46,5.93 -13.46,13.25 0,7.31 6.026,13.24 13.46,13.24 3.212,0 6.158,-1.11 8.472,-2.96 l 8.292,8.16 c 0.405,0.4 1.06,0.4 1.464,0 0.405,-0.39 0.405,-1.04 0,-1.44 z"
           id="search"
           sketch:type="MSShapeGroup"
           style="fill:#cccccc;stroke:#cccccc" />
      </g>
    </g>
  </g>
</svg>
