<?xml version="1.0" encoding="UTF-8" standalone="no"?>
<!-- Created with Inkscape (http://www.inkscape.org/) -->

<svg
   width="179mm"
   height="96mm"
   viewBox="0 0 179 96"
   version="1.1"
   id="svg1"
   inkscape:version="1.3.2 (091e20e, 2023-11-25, custom)"
   sodipodi:docname="sign-in2.svg"
   inkscape:export-filename="sign-in2.svg"
   inkscape:export-xdpi="96"
   inkscape:export-ydpi="96"
   xmlns:inkscape="http://www.inkscape.org/namespaces/inkscape"
   xmlns:sodipodi="http://sodipodi.sourceforge.net/DTD/sodipodi-0.dtd"
   xmlns="http://www.w3.org/2000/svg"
   xmlns:svg="http://www.w3.org/2000/svg">
  <sodipodi:namedview
     id="namedview1"
     pagecolor="#ffffff"
     bordercolor="#000000"
     borderopacity="0.25"
     inkscape:showpageshadow="2"
     inkscape:pageopacity="0.0"
     inkscape:pagecheckerboard="0"
     inkscape:deskcolor="#d1d1d1"
     inkscape:document-units="mm"
     inkscape:zoom="0.89802561"
     inkscape:cx="334.0662"
     inkscape:cy="346.87207"
     inkscape:window-width="1920"
     inkscape:window-height="1017"
     inkscape:window-x="-8"
     inkscape:window-y="-8"
     inkscape:window-maximized="1"
     inkscape:current-layer="layer1"
     showgrid="false" />
  <defs
     id="defs1" />
  <g
     inkscape:label="Warstwa 1"
     inkscape:groupmode="layer"
     id="layer1">
    <path
       d="M 118.71758,52.930419 H 95.503643 c -1.02606,0 -2.01033,-0.484064 -2.73577,-1.345175 -0.72544,-0.861128 -1.13323,-2.029503 -1.13323,-3.247479 0,-1.217955 0.40779,-2.386328 1.13323,-3.247458 0.72544,-0.861109 1.70971,-1.345173 2.73577,-1.345173 h 23.213937 c 1.02608,0 2.01035,0.484064 2.73579,1.345173 0.72544,0.86113 1.13322,2.029503 1.13322,3.247458 0,1.217976 -0.40778,2.386351 -1.13322,3.247479 -0.72544,0.861111 -1.70971,1.345175 -2.73579,1.345175 z"
       fill="#c0c0c0"
       id="path4"
       style="fill:#5fd3bc;stroke-width:0.0013489" />
    <path
       d="M 119.04234,36.784831 H 95.828403 c -1.02607,0 -2.01034,-0.484063 -2.73578,-1.345172 -0.72544,-0.86113 -1.13323,-2.029505 -1.13323,-3.24748 0,-1.217954 0.40779,-2.386329 1.13323,-3.247458 0.72544,-0.861112 1.70971,-1.345175 2.73578,-1.345175 h 23.213937 c 1.02607,0 2.01033,0.484063 2.73577,1.345175 0.72546,0.861129 1.13324,2.029504 1.13324,3.247458 0,1.217975 -0.40778,2.38635 -1.13324,3.24748 -0.72544,0.861109 -1.7097,1.345172 -2.73577,1.345172 z"
       fill="#c0c0c0"
       id="path4-7"
       style="fill:#5fd3bc;stroke-width:0.0013489" />
    <path
       d="M 119.05467,69.349249 H 95.840723 c -1.02607,0 -2.01032,-0.484063 -2.73578,-1.345172 -0.72545,-0.861132 -1.13322,-2.029505 -1.13322,-3.24748 0,-1.217953 0.40777,-2.386329 1.13322,-3.247457 0.72546,-0.861112 1.70971,-1.345175 2.73578,-1.345175 h 23.213947 c 1.02605,0 2.01033,0.484063 2.73577,1.345175 0.72545,0.861128 1.13324,2.029504 1.13324,3.247457 0,1.217975 -0.40779,2.386348 -1.13324,3.24748 -0.72544,0.861109 -1.70972,1.345172 -2.73577,1.345172 z"
       fill="#c0c0c0"
       id="path4-1"
       style="fill:#5fd3bc;stroke-width:0.0013489" />
    <path
       d="m 65.689789,44.992625 c 1.725229,-1.524776 2.911503,-3.483175 3.406561,-5.624906 0.495453,-2.14166 0.276718,-4.369055 -0.627183,-6.397051 -0.904301,-2.028029 -2.452703,-3.764447 -4.447808,-4.986982 -1.994721,-1.222532 -4.345097,-1.875626 -6.750282,-1.875626 -2.405168,0 -4.755547,0.653094 -6.750267,1.875626 -1.995026,1.222535 -3.54362,2.958953 -4.447731,4.986982 -0.904093,2.027996 -1.122543,4.255391 -0.627408,6.397051 0.495091,2.141731 1.681287,4.10013 3.406712,5.624906 -8.982639,2.199205 -15.749824,10.959362 -15.749824,21.442239 0,0.972047 0.424417,1.904509 1.179786,2.59177 0.755428,0.687244 1.779984,1.073576 2.848307,1.073576 1.068324,0 2.09288,-0.386332 2.848308,-1.073576 0.75539,-0.687261 1.179787,-1.619723 1.179787,-2.59177 0,-8.100397 5.437911,-14.661366 12.084255,-14.661366 h 8.056165 c 6.64634,0 12.084255,6.560969 12.084255,14.661366 0,0.972047 0.424568,1.904509 1.179844,2.59177 0.755258,0.687244 1.780004,1.073576 2.848251,1.073576 1.068249,0 2.092992,-0.386332 2.848269,-1.073576 0.755257,-0.687261 1.179823,-1.619723 1.179823,-2.59177 0,-10.482877 -6.767184,-19.243034 -15.74982,-21.442239 z M 57.271077,33.446771 c 0.796759,0 1.575386,0.214967 2.238021,0.617716 0.662216,0.402749 1.178607,0.975198 1.48353,1.644934 0.304942,0.66977 0.384697,1.406765 0.229199,2.117768 -0.155481,0.710998 -0.538938,1.364075 -1.102483,1.876679 -0.563126,0.512641 -1.28093,0.861726 -2.062373,1.003133 -0.781462,0.141659 -1.591507,0.06874 -2.327429,-0.208562 -0.735941,-0.277428 -1.365121,-0.74721 -1.807805,-1.349981 -0.442682,-0.602758 -0.678735,-1.311419 -0.678735,-2.036342 0,-0.972136 0.424568,-1.904407 1.179824,-2.591805 0.755274,-0.687398 1.780018,-1.07354 2.848251,-1.07354 z"
       fill="#c0c0c0"
       id="path2-8"
       style="fill:#5fd3bc;fill-opacity:1;stroke-width:3.84242"
       inkscape:export-filename="sign-in-2.svg"
       inkscape:export-xdpi="96"
       inkscape:export-ydpi="96" />
  </g>
</svg>
