<?xml version="1.0" encoding="UTF-8" standalone="no"?>
<!-- Uploaded to: SVG Repo, www.svgrepo.com, Transformed by: SVG Repo Mixer Tools -->

<svg
   width="80"
   height="80"
   viewBox="0 0 13.617015 13.61701"
   fill="none"
   version="1.1"
   id="svg1"
   sodipodi:docname="sin-in-user.svg"
   inkscape:version="1.3.2 (091e20e, 2023-11-25, custom)"
   xmlns:inkscape="http://www.inkscape.org/namespaces/inkscape"
   xmlns:sodipodi="http://sodipodi.sourceforge.net/DTD/sodipodi-0.dtd"
   xmlns="http://www.w3.org/2000/svg"
   xmlns:svg="http://www.w3.org/2000/svg">
  <defs
     id="defs1" />
  <sodipodi:namedview
     id="namedview1"
     pagecolor="#ffffff"
     bordercolor="#000000"
     borderopacity="0.25"
     inkscape:showpageshadow="2"
     inkscape:pageopacity="0.0"
     inkscape:pagecheckerboard="0"
     inkscape:deskcolor="#d1d1d1"
     inkscape:zoom="2.9113475"
     inkscape:cx="24.902558"
     inkscape:cy="74.707674"
     inkscape:window-width="1920"
     inkscape:window-height="1017"
     inkscape:window-x="-8"
     inkscape:window-y="-8"
     inkscape:window-maximized="1"
     inkscape:current-layer="svg1" />
  <g
     id="SVGRepo_bgCarrier"
     stroke-width="0" />
  <g
     id="SVGRepo_tracerCarrier"
     stroke-linecap="round"
     stroke-linejoin="round" />
  <g
     id="SVGRepo_iconCarrier"
     transform="matrix(1.0707581,0,0,1.2683969,-1.5744911,-1.7401847)"
     style="stroke-width:0.858079">
    <path
       d="m 7.3175495,7.7895039 c -0.4178772,0 -0.8147445,-0.075909 -1.1721511,-0.2122414 C 5.897748,7.4827956 5.7739204,7.4355422 5.7051747,7.419219 5.6337179,7.4022572 5.5923094,7.3961111 5.5182697,7.3914417 c -0.071234,-0.00447 -0.1245622,-0.00104 -0.2312188,0.00583 -0.043627,0.00279 -0.082111,0.00674 -0.1185668,0.012293 -0.583502,0.088955 -1.0401717,0.473488 -1.1458093,0.9648601 -0.022739,0.1057609 -0.022739,0.2326349 -0.022739,0.4863027 v 0.6848156 c 0,0.2235356 0,0.3352835 0.051656,0.4206514 0.045442,0.075107 0.1179459,0.1361325 0.2071233,0.1744065 0.1013816,0.0435 0.2341004,0.0435 0.4995333,0.0435 h 1.327045 M 9.2133293,4.5967051 c 0,0.8816674 -0.848788,1.5963994 -1.8957798,1.5963994 -1.0470107,0 -1.8957797,-0.714732 -1.8957797,-1.5963994 0,-0.8816674 0.848769,-1.5963994 1.8957797,-1.5963994 1.0469918,0 1.8957798,0.714732 1.8957798,1.5963994 z M 8.0710272,10.184103 9.0307657,10.022468 C 9.1144644,10.008378 9.1563138,10.001318 9.1953194,9.988425 9.229965,9.97701 9.2628563,9.962164 9.2933786,9.944245 9.3277399,9.924048 9.3579296,9.898668 9.4182632,9.847822 L 11.388642,8.1886047 c 0.261759,-0.2204226 0.261759,-0.5777765 0,-0.7981993 -0.261713,-0.2204229 -0.68613,-0.2204229 -0.94789,0 L 8.4703733,9.0496228 c -0.060334,0.050844 -0.090523,0.076228 -0.1145051,0.1052027 -0.02128,0.02566 -0.038863,0.053401 -0.052465,0.082574 -0.015308,0.032848 -0.023649,0.068086 -0.040427,0.1385274 z"
       stroke="#f0f1f2"
       stroke-width="0.482531"
       stroke-linecap="round"
       stroke-linejoin="round"
       id="path1" />
  </g>
</svg>
