<?xml version="1.0" encoding="UTF-8" standalone="no"?>
<!-- Uploaded to: SVG Repo, www.svgrepo.com, Transformed by: SVG Repo Mixer Tools -->

<svg
   width="800px"
   height="800px"
   viewBox="0 0 1024 1024"
   class="icon"
   version="1.1"
   fill="#000000"
   id="svg4"
   sodipodi:docname="v1.svg"
   inkscape:export-filename="v1.svg"
   inkscape:export-xdpi="96"
   inkscape:export-ydpi="96"
   inkscape:version="1.3.2 (091e20e, 2023-11-25, custom)"
   xmlns:inkscape="http://www.inkscape.org/namespaces/inkscape"
   xmlns:sodipodi="http://sodipodi.sourceforge.net/DTD/sodipodi-0.dtd"
   xmlns="http://www.w3.org/2000/svg"
   xmlns:svg="http://www.w3.org/2000/svg">
  <defs
     id="defs4">
    <filter
       style="color-interpolation-filters:sRGB;"
       inkscape:label="Drop Shadow"
       id="filter31"
       x="-0.22019892"
       y="-0.21531521"
       width="1.4402115"
       height="1.4351891">
      <feFlood
         result="flood"
         in="SourceGraphic"
         flood-opacity="1.000000"
         flood-color="rgb(0,0,0)"
         id="feFlood30" />
      <feGaussianBlur
         result="blur"
         in="SourceGraphic"
         stdDeviation="74.772034"
         id="feGaussianBlur30" />
      <feOffset
         result="offset"
         in="blur"
         dx="-0.151976"
         dy="3.799392"
         id="feOffset30" />
      <feComposite
         result="comp1"
         operator="in"
         in="offset"
         in2="flood"
         id="feComposite30" />
      <feComposite
         result="comp2"
         operator="over"
         in="SourceGraphic"
         in2="comp1"
         id="feComposite31" />
    </filter>
  </defs>
  <sodipodi:namedview
     id="namedview4"
     pagecolor="#ffffff"
     bordercolor="#000000"
     borderopacity="0.25"
     inkscape:showpageshadow="2"
     inkscape:pageopacity="0.0"
     inkscape:pagecheckerboard="0"
     inkscape:deskcolor="#d1d1d1"
     inkscape:zoom="0.36283417"
     inkscape:cx="163.98676"
     inkscape:cy="635.27645"
     inkscape:window-width="1920"
     inkscape:window-height="1017"
     inkscape:window-x="-8"
     inkscape:window-y="-8"
     inkscape:window-maximized="1"
     inkscape:current-layer="svg4" />
  <g
     id="SVGRepo_bgCarrier"
     stroke-width="0" />
  <g
     id="SVGRepo_tracerCarrier"
     stroke-linecap="round"
     stroke-linejoin="round" />
  <g
     id="SVGRepo_iconCarrier"
     style="filter:url(#filter31)">
    <path
       d="M917.251764 802.39026L786.571232 671.643176c-2.964148-2.993841-10.321788 0.260067-18.916281 6.447406l-10.6781-10.6781c54.596637-70.942966 51.407234-171.245844-8.531013-239.190875v-36.821988l0.130034 0.456653c0-70.649111-67.455613-136.867871-103.689891-172.419217l-8.270946-8.204393C529.76441 104.382037 485.22847 95.460924 448.830371 95.460924l-12.371606-0.063481H150.778377c-16.995473 0-47.336266 12.89174-47.336267 38.675221v756.025661c0 21.3562 17.31902 38.741773 38.675221 38.741773h567.587758c21.3562 0 38.741773-17.385573 38.741773-38.741773V753.360488c37.278641 37.308333 108.900443 108.934231 108.900443 108.934231 12.958293 12.89174 72.926232-46.882685 59.904459-59.904459z"
       fill="#27323A"
       id="path1" />
    <path
       d="M707.231382 652.173997c-54.856704 54.890492-144.259299 54.957045-199.149791 0-54.887421-54.953973-54.887421-144.352473 0-199.242965 26.566753-26.566753 61.924584-41.151999 99.559537-41.151999 37.698434 0 73.022477 14.585246 99.58923 41.151999 54.891516 54.953973 54.891516 144.288992 0.001024 199.242965z"
       fill="#FFFFFF"
       id="path2" />
    <path
       d="M603.214872 244.570368l8.657974 8.527941c15.171933 14.848385 36.464652 35.944518 54.53418 59.447806-35.521654-13.28184-75.11018-15.8221-110.333882-17.252468-1.10682-23.442878-5.600653-71.299278-21.486234-112.841378 18.683859 14.651799 41.14688 34.57456 68.627962 62.118099z"
       fill="#79CCBF"
       id="path3" />
    <path
       d="M150.648343 881.633865V142.800262c0.130033-0.066553 0.650167-0.263139 0.650168-0.263138h285.03022l12.371607 0.066552c6.25082 0 14.518694 0.130033 26.436719 4.100661l5.990753 6.25082c32.36092 31.970819 44.015806 111.604524 44.015806 157.377318 0 8.400979 6.64092 15.368519 15.10538 15.692066l6.510887 0.263139c48.899739 1.887021 109.844465 4.230694 146.863039 37.764986l3.383941 3.383941c2.377462 7.487673 3.940935 14.911866 4.201002 22.269506-72.045691-41.412066-165.287856-32.100853-226.853057 29.497112-73.642952 73.642952-73.642952 193.058697 0 266.70165 61.597965 61.594893 154.84013 70.972659 226.886845 29.49404v166.23495H150.648343z"
       fill="#f1f3f2"
       id="path4" />
  </g>
</svg>
