<?xml version="1.0" encoding="UTF-8" standalone="no"?>
<svg
   width="409"
   height="67"
   viewBox="-64.920007 18.460001 408.99999 66.999999"
   preserveAspectRatio="xMidYMid"
   version="1.1"
   id="svg3"
   sodipodi:docname="multiselect.svg"
   inkscape:version="1.3.2 (091e20e, 2023-11-25, custom)"
   xmlns:inkscape="http://www.inkscape.org/namespaces/inkscape"
   xmlns:sodipodi="http://sodipodi.sourceforge.net/DTD/sodipodi-0.dtd"
   xmlns:xlink="http://www.w3.org/1999/xlink"
   xmlns="http://www.w3.org/2000/svg"
   xmlns:svg="http://www.w3.org/2000/svg">
  <sodipodi:namedview
     id="namedview3"
     pagecolor="#ffffff"
     bordercolor="#000000"
     borderopacity="0.25"
     inkscape:showpageshadow="2"
     inkscape:pageopacity="0.0"
     inkscape:pagecheckerboard="0"
     inkscape:deskcolor="#d1d1d1"
     inkscape:zoom="1.1447351"
     inkscape:cx="136.71285"
     inkscape:cy="71.195511"
     inkscape:window-width="1920"
     inkscape:window-height="1017"
     inkscape:window-x="-8"
     inkscape:window-y="-8"
     inkscape:window-maximized="1"
     inkscape:current-layer="svg3" />
  <defs
     id="defs2">
    <linearGradient
       id="linearGradient7"
       inkscape:collect="always">
      <stop
         style="stop-color:#ffffff;stop-opacity:0.89318603;"
         offset="0.64172661"
         id="stop8" />
      <stop
         style="stop-color:#7c7c7c;stop-opacity:0.47882137;"
         offset="1"
         id="stop7" />
    </linearGradient>
    <linearGradient
       id="editing-gradient-gradient"
       x1="0"
       x2="1"
       y1="0.5"
       y2="0.5"
       gradientUnits="objectBoundingBox">
      <stop
         offset="0"
         stop-color="#f0f"
         id="stop1" />
      <stop
         offset="1"
         stop-color="#0ff"
         id="stop2" />
    </linearGradient>
    <linearGradient
       inkscape:collect="always"
       xlink:href="#linearGradient7"
       id="linearGradient8"
       x1="29.550009"
       y1="75.510002"
       x2="470.45001"
       y2="75.510002"
       gradientUnits="userSpaceOnUse" />
    <linearGradient
       inkscape:collect="always"
       xlink:href="#linearGradient7"
       id="linearGradient9"
       gradientUnits="userSpaceOnUse"
       x1="29.550009"
       y1="75.510002"
       x2="470.45001"
       y2="75.510002" />
    <linearGradient
       inkscape:collect="always"
       xlink:href="#linearGradient7"
       id="linearGradient10"
       gradientUnits="userSpaceOnUse"
       x1="29.550009"
       y1="75.510002"
       x2="470.45001"
       y2="75.510002" />
  </defs>
  <g
     id="g3"
     style="fill:url(#linearGradient8)"
     transform="matrix(0.73648427,0,0,0.80720271,-42.006288,-9.0281218)">
    <g
       transform="translate(25.390009,97.654999)"
       id="g2"
       style="fill:url(#linearGradient10)">
      <path
         d="m 8.96,-32 v 4.86 0 q 3.2,-5.37 9.73,-5.37 v 0 0 q 3.2,0 5.92,1.69 v 0 0 q 2.72,1.7 4.25,4.77 v 0 0 q 2.18,-4.03 6.79,-5.76 v 0 0 q 1.85,-0.7 4.19,-0.7 v 0 0 q 2.34,0 4.48,0.93 v 0 0 q 2.14,0.92 3.81,2.65 v 0 0 q 3.58,3.84 3.58,9.6 v 0 V 0 h -4.8 v -19.2 0 q 0,-3.97 -2.24,-6.53 v 0 0 q -2.24,-2.43 -5.69,-2.43 v 0 0 q -3.65,0 -6.08,2.37 v 0 0 q -2.56,2.43 -2.56,6.65 v 0 V 0 h -4.8 v -19.2 0 q 0,-3.97 -2.24,-6.53 v 0 0 q -2.24,-2.43 -5.7,-2.43 v 0 0 q -3.65,0 -6.08,2.37 v 0 0 q -2.56,2.43 -2.56,6.65 v 0 V 0 h -4.8 v -32 z m 92.29,32 h -4.8 v -4.99 0 q -1.73,2.3 -4.23,3.9 v 0 0 q -2.49,1.6 -5.69,1.6 v 0 0 q -3.2,0 -5.51,-0.89 v 0 0 q -2.3,-0.9 -4.03,-2.69 v 0 0 q -3.97,-3.91 -3.97,-10.31 v 0 V -32 h 4.8 v 18.5 0 q 0,4.41 2.5,7.04 v 0 0 q 2.5,2.62 6.46,2.62 v 0 0 q 4.04,0 6.85,-2.69 v 0 0 q 2.82,-2.75 2.82,-7.04 v 0 V -32 h 4.8 z M 128,-44.8 V 0 h -4.8 V -44.8 Z M 158.21,0 h -4.8 v -27.78 h -6.53 V -32 h 6.53 v -11.46 h 4.8 V -32 h 7.36 v 4.22 h -7.36 z m 26.24,0 v -32 h 4.8 V 0 Z m -0.19,-43.65 h 5.18 v 6.27 h -5.18 z m 50.62,20.23 h -4.86 v 0 q -0.64,-5 -8.04,-5 v 0 0 q -7.39,0 -7.39,4.61 v 0 0 q 0,1.92 1.57,2.91 v 0 0 q 1.57,1 3.94,1.64 v 0 0 q 2.36,0.64 5.15,1.18 v 0 0 q 2.78,0.54 5.15,1.54 v 0 0 q 2.37,0.99 3.94,2.72 v 0 0 q 1.56,1.72 1.56,4.73 v 0 0 q 0,4.67 -3.52,7.14 v 0 0 q -3.52,2.46 -9.53,2.46 v 0 0 q -6.4,0 -10.18,-3.2 v 0 0 q -3.45,-2.81 -3.71,-7.36 v 0 h 4.99 v 0 q 0.45,4.42 4.99,5.95 v 0 0 q 1.67,0.52 3.3,0.52 v 0 0 q 1.63,0 3.04,-0.2 v 0 0 q 1.41,-0.19 2.75,-0.7 v 0 0 q 3.07,-1.22 3.07,-4.16 v 0 0 q 0,-1.98 -1.56,-3.04 v 0 0 q -1.57,-1.06 -3.94,-1.73 v 0 0 q -2.37,-0.67 -5.15,-1.21 v 0 0 q -2.79,-0.55 -5.15,-1.51 v 0 0 q -2.37,-0.96 -3.94,-2.62 v 0 0 q -1.57,-1.67 -1.57,-4.61 v 0 0 q 0,-4.35 3.17,-6.75 v 0 0 q 3.17,-2.4 9.38,-2.4 v 0 0 q 5.88,0 9.28,2.81 v 0 0 q 2.81,2.37 3.26,6.28 z m 35.07,19.58 v 0 0 q 6.47,0 9.28,-5.38 v 0 h 5.25 v 0 q -1.66,4.36 -5.28,7.04 v 0 0 q -3.62,2.69 -9.31,2.69 v 0 0 q -7.23,0 -11.78,-4.8 v 0 0 Q 253.7,-8.96 253.7,-16 v 0 0 q 0,-7.1 4.22,-11.71 v 0 0 q 4.48,-4.8 11.65,-4.8 v 0 0 q 7.17,0 11.65,4.8 v 0 0 q 4.22,4.61 4.22,11.71 v 0 1.92 h -26.82 v 0 q 0.52,4.42 3.52,7.3 v 0 0 q 3.08,2.94 7.81,2.94 z m -0.38,-24.32 v 0 0 q -4.42,0 -7.43,2.75 v 0 0 q -2.81,2.63 -3.45,6.85 v 0 h 21.76 v 0 q -0.64,-4.22 -3.46,-6.85 v 0 0 q -3.01,-2.75 -7.42,-2.75 z M 309.76,-44.8 V 0 h -4.8 v -44.8 z m 36.22,40.96 v 0 0 q 6.47,0 9.28,-5.38 v 0 h 5.25 v 0 q -1.66,4.36 -5.28,7.04 v 0 0 q -3.61,2.69 -9.31,2.69 v 0 0 q -7.23,0 -11.78,-4.8 v 0 0 Q 329.73,-8.96 329.73,-16 v 0 0 q 0,-7.1 4.22,-11.71 v 0 0 q 4.48,-4.8 11.65,-4.8 v 0 0 q 7.17,0 11.65,4.8 v 0 0 q 4.22,4.61 4.22,11.71 v 0 1.92 h -26.81 v 0 q 0.51,4.42 3.52,7.3 v 0 0 q 3.07,2.94 7.8,2.94 z m -0.38,-24.32 v 0 0 q -4.42,0 -7.42,2.75 v 0 0 q -2.82,2.63 -3.46,6.85 v 0 h 21.76 v 0 q -0.64,-4.22 -3.46,-6.85 v 0 0 q -3,-2.75 -7.42,-2.75 z m 50.18,24.32 v 0 0 q 3.07,0 5.44,-1.73 v 0 0 q 2.36,-1.73 3.45,-4.48 v 0 h 5.19 v 0 q -1.48,4.74 -5.38,7.62 v 0 0 q -4.1,2.94 -9.73,2.94 v 0 0 q -7.04,0 -11.45,-4.8 v 0 0 Q 379.01,-8.96 379.01,-16 v 0 0 q 0,-7.04 4.29,-11.71 v 0 0 q 4.41,-4.8 11.45,-4.8 v 0 0 q 5.63,0 9.73,2.94 v 0 0 q 3.9,2.88 5.38,7.62 v 0 h -5.19 v 0 q -1.09,-2.75 -3.45,-4.48 v 0 0 q -2.37,-1.73 -5.44,-1.73 v 0 0 q -3.08,0 -5.22,0.96 v 0 0 q -2.14,0.96 -3.62,2.62 v 0 0 q -3.13,3.46 -3.13,8.58 v 0 0 q 0,5.12 3.13,8.58 v 0 0 q 3.2,3.58 8.84,3.58 z M 437.7,0 h -4.8 v -27.78 h -6.53 V -32 h 6.53 v -11.46 h 4.8 V -32 h 7.36 v 4.22 h -7.36 z"
         fill="url(#editing-gradient-gradient)"
         id="path2"
         style="fill:url(#linearGradient9)" />
    </g>
  </g>
  <style
     id="style3">text {
  font-size: 64px;
  font-family: Arial Black;
  dominant-baseline: central;
  text-anchor: middle;
}</style>
</svg>
