<?xml version="1.0" encoding="UTF-8" standalone="no"?>
<svg
   width="127.68"
   height="35.580002"
   viewBox="172.66 49.209991 127.68 35.580002"
   preserveAspectRatio="xMidYMid"
   version="1.1"
   id="svg3"
   sodipodi:docname="multiselect.svg"
   inkscape:version="1.3.2 (091e20e, 2023-11-25, custom)"
   xmlns:inkscape="http://www.inkscape.org/namespaces/inkscape"
   xmlns:sodipodi="http://sodipodi.sourceforge.net/DTD/sodipodi-0.dtd"
   xmlns="http://www.w3.org/2000/svg"
   xmlns:svg="http://www.w3.org/2000/svg">
  <sodipodi:namedview
     id="namedview3"
     pagecolor="#ffffff"
     bordercolor="#000000"
     borderopacity="0.25"
     inkscape:showpageshadow="2"
     inkscape:pageopacity="0.0"
     inkscape:pagecheckerboard="0"
     inkscape:deskcolor="#d1d1d1"
     inkscape:zoom="4.6612359"
     inkscape:cx="77.340004"
     inkscape:cy="25.851513"
     inkscape:window-width="1920"
     inkscape:window-height="1017"
     inkscape:window-x="-8"
     inkscape:window-y="-8"
     inkscape:window-maximized="1"
     inkscape:current-layer="svg3" />
  <defs
     id="defs2">
    <linearGradient
       id="editing-gradient-gradient"
       x1="0.50168419"
       x2="37.194092"
       y1="-17.931601"
       y2="-17.931601"
       gradientUnits="userSpaceOnUse"
       gradientTransform="scale(2.5912717,0.3859109)">
      <stop
         offset="0"
         stop-color="#f0f"
         id="stop1" />
      <stop
         offset="1"
         stop-color="#0ff"
         id="stop2" />
    </linearGradient>
  </defs>
  <g
     id="g3"
     transform="translate(-12.443052,-9.4395569)">
    <g
       transform="translate(201.16,82.087353)"
       id="g2">
      <path
         d="m 2.8,-10 v 1.52 0 q 1,-1.68 3.04,-1.68 v 0 0 q 1,0 1.85,0.53 v 0 0 q 0.85,0.53 1.33,1.49 v 0 0 q 0.68,-1.26 2.12,-1.8 v 0 0 q 0.58,-0.22 1.31,-0.22 v 0 0 q 0.73,0 1.4,0.29 v 0 0 q 0.67,0.29 1.19,0.83 v 0 0 q 1.12,1.2 1.12,3 v 0 V 0 h -1.5 v -6 0 q 0,-1.24 -0.7,-2.04 v 0 0 Q 13.26,-8.8 12.18,-8.8 v 0 0 q -1.14,0 -1.9,0.74 v 0 0 q -0.8,0.76 -0.8,2.08 v 0 V 0 h -1.5 v -6 0 q 0,-1.24 -0.7,-2.04 v 0 0 Q 6.58,-8.8 5.5,-8.8 v 0 0 q -1.14,0 -1.9,0.74 v 0 0 Q 2.8,-7.3 2.8,-5.98 v 0 V 0 H 1.3 V -10 Z M 27.28,0 h -1.5 v -1.56 0 q -0.54,0.72 -1.32,1.22 v 0 0 q -0.78,0.5 -1.78,0.5 v 0 0 q -1,0 -1.72,-0.28 v 0 0 Q 20.24,-0.4 19.7,-0.96 v 0 0 q -1.24,-1.22 -1.24,-3.22 v 0 -5.82 h 1.5 v 5.78 0 q 0,1.38 0.78,2.2 v 0 0 q 0.78,0.82 2.02,0.82 v 0 0 q 1.26,0 2.14,-0.84 v 0 0 q 0.88,-0.86 0.88,-2.2 v 0 -5.76 h 1.5 z m 4.1,-14 V 0 h -1.5 v -14 z m 5.18,14 h -1.5 V -8.68 H 33.02 V -10 h 2.04 v -3.58 h 1.5 V -10 h 2.3 v 1.32 h -2.3 z M 40.5,0 V -10 H 42 V 0 Z m -0.06,-13.64 h 1.62 v 1.96 H 40.44 Z M 52,-7.32 h -1.52 v 0 q -0.2,-1.56 -2.51,-1.56 v 0 0 q -2.31,0 -2.31,1.44 v 0 0 q 0,0.6 0.49,0.91 v 0 0 q 0.49,0.31 1.23,0.51 v 0 0 q 0.74,0.2 1.61,0.37 v 0 0 q 0.87,0.17 1.61,0.48 v 0 0 q 0.74,0.31 1.23,0.85 v 0 0 q 0.49,0.54 0.49,1.48 v 0 0 q 0,1.46 -1.1,2.23 v 0 0 q -1.1,0.77 -2.98,0.77 v 0 0 q -2,0 -3.18,-1 v 0 0 q -1.08,-0.88 -1.16,-2.3 v 0 h 1.56 v 0 q 0.14,1.38 1.56,1.86 v 0 0 q 0.52,0.16 1.03,0.16 v 0 0 q 0.51,0 0.95,-0.06 v 0 0 q 0.44,-0.06 0.86,-0.22 v 0 0 q 0.96,-0.38 0.96,-1.3 v 0 0 q 0,-0.62 -0.49,-0.95 v 0 0 Q 49.84,-3.98 49.1,-4.19 v 0 0 Q 48.36,-4.4 47.49,-4.57 v 0 0 q -0.87,-0.17 -1.61,-0.47 v 0 0 q -0.74,-0.3 -1.23,-0.82 v 0 0 Q 44.16,-6.38 44.16,-7.3 v 0 0 q 0,-1.36 0.99,-2.11 v 0 0 q 0.99,-0.75 2.93,-0.75 v 0 0 q 1.84,0 2.9,0.88 v 0 0 q 0.88,0.74 1.02,1.96 z m 6.7,6.12 v 0 0 q 2.02,0 2.9,-1.68 v 0 h 1.64 v 0 q -0.52,1.36 -1.65,2.2 v 0 0 q -1.13,0.84 -2.91,0.84 v 0 0 q -2.26,0 -3.68,-1.5 v 0 0 Q 53.62,-2.8 53.62,-5 v 0 0 q 0,-2.22 1.32,-3.66 v 0 0 q 1.4,-1.5 3.64,-1.5 v 0 0 q 2.24,0 3.64,1.5 v 0 0 q 1.32,1.44 1.32,3.66 v 0 0.6 h -8.38 v 0 q 0.16,1.38 1.1,2.28 v 0 0 q 0.96,0.92 2.44,0.92 z m -0.12,-7.6 v 0 0 q -1.38,0 -2.32,0.86 v 0 0 q -0.88,0.82 -1.08,2.14 v 0 h 6.8 v 0 q -0.2,-1.32 -1.08,-2.14 v 0 0 Q 59.96,-8.8 58.58,-8.8 Z m 8.3,-5.2 V 0 h -1.5 v -14 z m 7.06,12.8 v 0 0 q 2.02,0 2.9,-1.68 v 0 h 1.64 v 0 q -0.52,1.36 -1.65,2.2 v 0 0 Q 75.7,0.16 73.92,0.16 v 0 0 q -2.26,0 -3.68,-1.5 v 0 0 Q 68.86,-2.8 68.86,-5 v 0 0 q 0,-2.22 1.32,-3.66 v 0 0 q 1.4,-1.5 3.64,-1.5 v 0 0 q 2.24,0 3.64,1.5 v 0 0 q 1.32,1.44 1.32,3.66 v 0 0.6 H 70.4 v 0 q 0.16,1.38 1.1,2.28 v 0 0 q 0.96,0.92 2.44,0.92 z m -0.12,-7.6 v 0 0 q -1.38,0 -2.32,0.86 v 0 0 q -0.88,0.82 -1.08,2.14 v 0 h 6.8 v 0 q -0.2,-1.32 -1.08,-2.14 v 0 0 Q 75.2,-8.8 73.82,-8.8 Z m 11.42,7.6 v 0 0 q 0.96,0 1.7,-0.54 v 0 0 q 0.74,-0.54 1.08,-1.4 v 0 h 1.62 v 0 q -0.46,1.48 -1.68,2.38 v 0 0 q -1.28,0.92 -3.04,0.92 v 0 0 q -2.2,0 -3.58,-1.5 v 0 0 Q 80,-2.8 80,-5 v 0 0 q 0,-2.2 1.34,-3.66 v 0 0 q 1.38,-1.5 3.58,-1.5 v 0 0 q 1.76,0 3.04,0.92 v 0 0 q 1.22,0.9 1.68,2.38 v 0 h -1.62 v 0 q -0.34,-0.86 -1.08,-1.4 v 0 0 Q 86.2,-8.8 85.24,-8.8 v 0 0 q -0.96,0 -1.63,0.3 v 0 0 q -0.67,0.3 -1.13,0.82 v 0 0 Q 81.5,-6.6 81.5,-5 v 0 0 q 0,1.6 0.98,2.68 v 0 0 q 1,1.12 2.76,1.12 z M 94.08,0 h -1.5 V -8.68 H 90.54 V -10 h 2.04 v -3.58 h 1.5 V -10 h 2.3 v 1.32 h -2.3 z"
         fill="url(#editing-gradient-gradient)"
         id="path2"
         style="fill:url(#editing-gradient-gradient)" />
    </g>
  </g>
  <style
     id="style3">text {
  font-size: 64px;
  font-family: Arial Black;
  dominant-baseline: central;
  text-anchor: middle;
}</style>
</svg>
