<?xml version="1.0" encoding="UTF-8" standalone="no"?>
<svg
   width="127"
   height="35"
   viewBox="166.8 49.209991 127 35"
   preserveAspectRatio="xMidYMid"
   version="1.1"
   id="svg3"
   sodipodi:docname="scaleselect.svg"
   inkscape:version="1.3.2 (091e20e, 2023-11-25, custom)"
   xmlns:inkscape="http://www.inkscape.org/namespaces/inkscape"
   xmlns:sodipodi="http://sodipodi.sourceforge.net/DTD/sodipodi-0.dtd"
   xmlns="http://www.w3.org/2000/svg"
   xmlns:svg="http://www.w3.org/2000/svg">
  <sodipodi:namedview
     id="namedview3"
     pagecolor="#ffffff"
     bordercolor="#000000"
     borderopacity="0.25"
     inkscape:showpageshadow="2"
     inkscape:pageopacity="0.0"
     inkscape:pagecheckerboard="0"
     inkscape:deskcolor="#d1d1d1"
     inkscape:zoom="5.5709137"
     inkscape:cx="83.199997"
     inkscape:cy="25.758791"
     inkscape:window-width="1920"
     inkscape:window-height="1017"
     inkscape:window-x="-8"
     inkscape:window-y="-8"
     inkscape:window-maximized="1"
     inkscape:current-layer="svg3" />
  <defs
     id="defs2">
    <linearGradient
       id="editing-gradient-gradient"
       x1="0.22096965"
       x2="38.669689"
       y1="-18.789911"
       y2="-18.789911"
       gradientUnits="userSpaceOnUse"
       gradientTransform="scale(2.715305,0.36828275)">
      <stop
         offset="0"
         stop-color="#f0f"
         id="stop1" />
      <stop
         offset="1"
         stop-color="#0ff"
         id="stop2" />
    </linearGradient>
  </defs>
  <g
     id="g3"
     transform="translate(-19.745415,-8.7956847)">
    <g
       transform="translate(197.2,82.087353)"
       id="g2">
      <path
         d="M 8.7,-7.32 H 7.18 v 0 Q 6.98,-8.88 4.67,-8.88 v 0 0 q -2.31,0 -2.31,1.44 v 0 0 q 0,0.6 0.49,0.91 v 0 0 q 0.49,0.31 1.23,0.51 v 0 0 q 0.74,0.2 1.61,0.37 v 0 0 q 0.87,0.17 1.61,0.48 v 0 0 q 0.74,0.31 1.23,0.85 v 0 0 q 0.49,0.54 0.49,1.48 v 0 0 q 0,1.46 -1.1,2.23 v 0 0 Q 6.82,0.16 4.94,0.16 v 0 0 q -2,0 -3.18,-1 v 0 0 Q 0.68,-1.72 0.6,-3.14 v 0 h 1.56 v 0 q 0.14,1.38 1.56,1.86 v 0 0 q 0.52,0.16 1.03,0.16 v 0 0 q 0.51,0 0.95,-0.06 v 0 0 Q 6.14,-1.24 6.56,-1.4 v 0 0 q 0.96,-0.38 0.96,-1.3 v 0 0 q 0,-0.62 -0.49,-0.95 v 0 0 Q 6.54,-3.98 5.8,-4.19 v 0 0 Q 5.06,-4.4 4.19,-4.57 v 0 0 Q 3.32,-4.74 2.58,-5.04 v 0 0 Q 1.84,-5.34 1.35,-5.86 v 0 0 Q 0.86,-6.38 0.86,-7.3 v 0 0 q 0,-1.36 0.99,-2.11 v 0 0 q 0.99,-0.75 2.93,-0.75 v 0 0 q 1.84,0 2.9,0.88 v 0 0 q 0.88,0.74 1.02,1.96 z m 6.86,6.12 v 0 0 q 0.96,0 1.7,-0.54 v 0 0 q 0.74,-0.54 1.08,-1.4 v 0 h 1.62 v 0 q -0.46,1.48 -1.68,2.38 v 0 0 Q 17,0.16 15.24,0.16 v 0 0 q -2.2,0 -3.58,-1.5 v 0 0 Q 10.32,-2.8 10.32,-5 v 0 0 q 0,-2.2 1.34,-3.66 v 0 0 q 1.38,-1.5 3.58,-1.5 v 0 0 q 1.76,0 3.04,0.92 v 0 0 q 1.22,0.9 1.68,2.38 v 0 h -1.62 v 0 Q 18,-7.72 17.26,-8.26 v 0 0 Q 16.52,-8.8 15.56,-8.8 v 0 0 q -0.96,0 -1.63,0.3 v 0 0 q -0.67,0.3 -1.13,0.82 v 0 0 Q 11.82,-6.6 11.82,-5 v 0 0 q 0,1.6 0.98,2.68 v 0 0 q 1,1.12 2.76,1.12 z M 29.62,0 v -1.6 0 q -1.2,1.76 -3.58,1.76 v 0 0 q -2.16,0 -3.52,-1.5 v 0 0 Q 21.2,-2.82 21.2,-5 v 0 0 q 0,-2.18 1.32,-3.66 v 0 0 q 1.36,-1.5 3.62,-1.5 v 0 0 q 2.26,0 3.48,1.78 v 0 -1.62 h 1.5 V 0 Z m -3.38,-1.2 v 0 0 q 1.62,0 2.56,-1.12 v 0 0 Q 29.7,-3.38 29.7,-5 v 0 0 q 0,-1.62 -0.9,-2.68 v 0 0 Q 27.86,-8.8 26.24,-8.8 v 0 0 q -1.6,0 -2.6,1.12 v 0 0 Q 22.7,-6.62 22.7,-5 v 0 0 q 0,1.62 0.94,2.68 v 0 0 q 1,1.12 2.6,1.12 z M 35.22,-14 V 0 h -1.5 v -14 z m 7.06,12.8 v 0 0 q 2.02,0 2.9,-1.68 v 0 h 1.64 v 0 q -0.52,1.36 -1.65,2.2 v 0 0 q -1.13,0.84 -2.91,0.84 v 0 0 q -2.26,0 -3.68,-1.5 v 0 0 Q 37.2,-2.8 37.2,-5 v 0 0 q 0,-2.22 1.32,-3.66 v 0 0 q 1.4,-1.5 3.64,-1.5 v 0 0 q 2.24,0 3.64,1.5 v 0 0 q 1.32,1.44 1.32,3.66 v 0 0.6 h -8.38 v 0 q 0.16,1.38 1.1,2.28 v 0 0 q 0.96,0.92 2.44,0.92 z m -0.12,-7.6 v 0 0 q -1.38,0 -2.32,0.86 v 0 0 q -0.88,0.82 -1.08,2.14 v 0 h 6.8 v 0 q -0.2,-1.32 -1.08,-2.14 v 0 0 Q 43.54,-8.8 42.16,-8.8 Z m 18.46,1.48 H 59.1 v 0 q -0.2,-1.56 -2.51,-1.56 v 0 0 q -2.31,0 -2.31,1.44 v 0 0 q 0,0.6 0.49,0.91 v 0 0 q 0.49,0.31 1.23,0.51 v 0 0 q 0.74,0.2 1.61,0.37 v 0 0 q 0.87,0.17 1.61,0.48 v 0 0 q 0.74,0.31 1.23,0.85 v 0 0 q 0.49,0.54 0.49,1.48 v 0 0 q 0,1.46 -1.1,2.23 v 0 0 q -1.1,0.77 -2.98,0.77 v 0 0 q -2,0 -3.18,-1 v 0 0 q -1.08,-0.88 -1.16,-2.3 v 0 h 1.56 v 0 q 0.14,1.38 1.56,1.86 v 0 0 q 0.52,0.16 1.03,0.16 v 0 0 q 0.51,0 0.95,-0.06 v 0 0 q 0.44,-0.06 0.86,-0.22 v 0 0 q 0.96,-0.38 0.96,-1.3 v 0 0 q 0,-0.62 -0.49,-0.95 v 0 0 q -0.49,-0.33 -1.23,-0.54 v 0 0 Q 56.98,-4.4 56.11,-4.57 v 0 0 Q 55.24,-4.74 54.5,-5.04 v 0 0 q -0.74,-0.3 -1.23,-0.82 v 0 0 Q 52.78,-6.38 52.78,-7.3 v 0 0 q 0,-1.36 0.99,-2.11 v 0 0 q 0.99,-0.75 2.93,-0.75 v 0 0 q 1.84,0 2.9,0.88 v 0 0 q 0.88,0.74 1.02,1.96 z m 6.7,6.12 v 0 0 q 2.02,0 2.9,-1.68 v 0 h 1.64 v 0 q -0.52,1.36 -1.65,2.2 v 0 0 Q 69.08,0.16 67.3,0.16 v 0 0 q -2.26,0 -3.68,-1.5 v 0 0 Q 62.24,-2.8 62.24,-5 v 0 0 q 0,-2.22 1.32,-3.66 v 0 0 q 1.4,-1.5 3.64,-1.5 v 0 0 q 2.24,0 3.64,1.5 v 0 0 q 1.32,1.44 1.32,3.66 v 0 0.6 h -8.38 v 0 q 0.16,1.38 1.1,2.28 v 0 0 q 0.96,0.92 2.44,0.92 z M 67.2,-8.8 v 0 0 q -1.38,0 -2.32,0.86 v 0 0 Q 64,-7.12 63.8,-5.8 v 0 h 6.8 v 0 q -0.2,-1.32 -1.08,-2.14 v 0 0 Q 68.58,-8.8 67.2,-8.8 Z M 75.5,-14 V 0 H 74 v -14 z m 7.06,12.8 v 0 0 q 2.02,0 2.9,-1.68 v 0 h 1.64 v 0 q -0.52,1.36 -1.65,2.2 v 0 0 q -1.13,0.84 -2.91,0.84 v 0 0 q -2.26,0 -3.68,-1.5 v 0 0 Q 77.48,-2.8 77.48,-5 v 0 0 q 0,-2.22 1.32,-3.66 v 0 0 q 1.4,-1.5 3.64,-1.5 v 0 0 q 2.24,0 3.64,1.5 v 0 0 Q 87.4,-7.22 87.4,-5 v 0 0.6 h -8.38 v 0 q 0.16,1.38 1.1,2.28 v 0 0 q 0.96,0.92 2.44,0.92 z m -0.12,-7.6 v 0 0 q -1.38,0 -2.32,0.86 v 0 0 q -0.88,0.82 -1.08,2.14 v 0 h 6.8 v 0 q -0.2,-1.32 -1.08,-2.14 v 0 0 Q 83.82,-8.8 82.44,-8.8 Z m 11.42,7.6 v 0 0 q 0.96,0 1.7,-0.54 v 0 0 q 0.74,-0.54 1.08,-1.4 v 0 h 1.62 v 0 q -0.46,1.48 -1.68,2.38 v 0 0 Q 95.3,0.16 93.54,0.16 v 0 0 q -2.2,0 -3.58,-1.5 v 0 0 Q 88.62,-2.8 88.62,-5 v 0 0 q 0,-2.2 1.34,-3.66 v 0 0 q 1.38,-1.5 3.58,-1.5 v 0 0 q 1.76,0 3.04,0.92 v 0 0 q 1.22,0.9 1.68,2.38 v 0 h -1.62 v 0 q -0.34,-0.86 -1.08,-1.4 v 0 0 Q 94.82,-8.8 93.86,-8.8 v 0 0 q -0.96,0 -1.63,0.3 v 0 0 q -0.67,0.3 -1.13,0.82 v 0 0 Q 90.12,-6.6 90.12,-5 v 0 0 q 0,1.6 0.98,2.68 v 0 0 q 1,1.12 2.76,1.12 z M 102.7,0 h -1.5 V -8.68 H 99.16 V -10 h 2.04 v -3.58 h 1.5 V -10 h 2.3 v 1.32 h -2.3 z"
         fill="url(#editing-gradient-gradient)"
         id="path2"
         style="fill:url(#editing-gradient-gradient)" />
    </g>
  </g>
  <style
     id="style3">text {
  font-size: 64px;
  font-family: Arial Black;
  dominant-baseline: central;
  text-anchor: middle;
}</style>
</svg>
