<?xml version="1.0" encoding="UTF-8" standalone="no"?>
<svg
   width="174"
   height="37"
   viewBox="126.46 49.209991 174 37"
   preserveAspectRatio="xMidYMid"
   version="1.1"
   id="svg3"
   sodipodi:docname="shorttextquestion.svg"
   inkscape:version="1.3.2 (091e20e, 2023-11-25, custom)"
   xmlns:inkscape="http://www.inkscape.org/namespaces/inkscape"
   xmlns:sodipodi="http://sodipodi.sourceforge.net/DTD/sodipodi-0.dtd"
   xmlns="http://www.w3.org/2000/svg"
   xmlns:svg="http://www.w3.org/2000/svg">
  <sodipodi:namedview
     id="namedview3"
     pagecolor="#ffffff"
     bordercolor="#000000"
     borderopacity="0.25"
     inkscape:showpageshadow="2"
     inkscape:pageopacity="0.0"
     inkscape:pagecheckerboard="0"
     inkscape:deskcolor="#d1d1d1"
     inkscape:zoom="3.0273595"
     inkscape:cx="78.781526"
     inkscape:cy="23.948263"
     inkscape:window-width="1920"
     inkscape:window-height="1017"
     inkscape:window-x="-8"
     inkscape:window-y="-8"
     inkscape:window-maximized="1"
     inkscape:current-layer="svg3" />
  <defs
     id="defs2">
    <linearGradient
       id="editing-gradient-gradient"
       x1="0.19923726"
       x2="54.285507"
       y1="-15.117655"
       y2="-15.117655"
       gradientUnits="userSpaceOnUse"
       gradientTransform="scale(3.0114851,0.33206208)">
      <stop
         offset="0"
         stop-color="#f0f"
         id="stop1" />
      <stop
         offset="1"
         stop-color="#0ff"
         id="stop2" />
    </linearGradient>
  </defs>
  <g
     id="g3"
     transform="translate(-38.64754,-10.900588)">
    <g
       transform="translate(167.96001,83.987352)"
       id="g2">
      <path
         d="M 8.7,-7.32 H 7.18 v 0 Q 6.98,-8.88 4.67,-8.88 v 0 0 q -2.31,0 -2.31,1.44 v 0 0 q 0,0.6 0.49,0.91 v 0 0 q 0.49,0.31 1.23,0.51 v 0 0 q 0.74,0.2 1.61,0.37 v 0 0 q 0.87,0.17 1.61,0.48 v 0 0 q 0.74,0.31 1.23,0.85 v 0 0 q 0.49,0.54 0.49,1.48 v 0 0 q 0,1.46 -1.1,2.23 v 0 0 Q 6.82,0.16 4.94,0.16 v 0 0 q -2,0 -3.18,-1 v 0 0 Q 0.68,-1.72 0.6,-3.14 v 0 h 1.56 v 0 q 0.14,1.38 1.56,1.86 v 0 0 q 0.52,0.16 1.03,0.16 v 0 0 q 0.51,0 0.95,-0.06 v 0 0 Q 6.14,-1.24 6.56,-1.4 v 0 0 q 0.96,-0.38 0.96,-1.3 v 0 0 q 0,-0.62 -0.49,-0.95 v 0 0 Q 6.54,-3.98 5.8,-4.19 v 0 0 Q 5.06,-4.4 4.19,-4.57 v 0 0 Q 3.32,-4.74 2.58,-5.04 v 0 0 Q 1.84,-5.34 1.35,-5.86 v 0 0 Q 0.86,-6.38 0.86,-7.3 v 0 0 q 0,-1.36 0.99,-2.11 v 0 0 q 0.99,-0.75 2.93,-0.75 v 0 0 q 1.84,0 2.9,0.88 v 0 0 q 0.88,0.74 1.02,1.96 z M 10.94,-14 h 1.5 v 5.56 0 q 0.54,-0.72 1.32,-1.22 v 0 0 q 0.78,-0.5 1.78,-0.5 v 0 0 q 1,0 1.72,0.28 v 0 0 q 0.72,0.28 1.26,0.84 v 0 0 q 1.24,1.22 1.24,3.22 v 0 V 0 h -1.5 v -5.78 0 q 0,-1.38 -0.78,-2.2 v 0 0 Q 16.7,-8.8 15.46,-8.8 v 0 0 q -1.26,0 -2.14,0.84 v 0 0 q -0.88,0.86 -0.88,2.2 v 0 V 0 h -1.5 z m 15.66,3.84 v 0 0 q 2.24,0 3.64,1.5 v 0 0 q 1.32,1.44 1.32,3.66 v 0 0 q 0,2.22 -1.32,3.66 v 0 0 q -1.4,1.5 -3.64,1.5 v 0 0 q -2.24,0 -3.64,-1.5 v 0 0 Q 21.64,-2.78 21.64,-5 v 0 0 q 0,-2.22 1.32,-3.66 v 0 0 q 1.4,-1.5 3.64,-1.5 z m 0,8.96 v 0 0 q 1.62,0 2.56,-1.12 v 0 0 q 0.9,-1.06 0.9,-2.68 v 0 0 q 0,-1.62 -0.9,-2.68 v 0 0 Q 28.22,-8.8 26.6,-8.8 v 0 0 q -1.62,0 -2.56,1.12 v 0 0 q -0.9,1.06 -0.9,2.68 v 0 0 q 0,1.62 0.9,2.68 v 0 0 q 0.94,1.12 2.56,1.12 z m 12.12,-8.96 h 0.1 v 1.5 h -0.18 v 0 q -1.62,0 -2.64,1.3 v 0 0 q -0.96,1.24 -0.96,2.96 v 0 4.4 h -1.5 v -10 h 1.5 v 2.46 0 q 0.48,-1.56 2.08,-2.3 v 0 0 q 0.66,-0.32 1.6,-0.32 z M 43.02,0 h -1.5 V -8.68 H 39.48 V -10 h 2.04 v -3.58 h 1.5 V -10 h 2.3 v 1.32 h -2.3 z M 53.8,0 H 52.3 V -8.68 H 50.26 V -10 h 2.04 v -3.58 h 1.5 V -10 h 2.3 v 1.32 H 53.8 Z M 62,-1.2 v 0 0 q 2.02,0 2.9,-1.68 v 0 h 1.64 v 0 q -0.52,1.36 -1.65,2.2 v 0 0 q -1.13,0.84 -2.91,0.84 v 0 0 q -2.26,0 -3.68,-1.5 v 0 0 Q 56.92,-2.8 56.92,-5 v 0 0 q 0,-2.22 1.32,-3.66 v 0 0 q 1.4,-1.5 3.64,-1.5 v 0 0 q 2.24,0 3.64,1.5 v 0 0 q 1.32,1.44 1.32,3.66 v 0 0.6 h -8.38 v 0 q 0.16,1.38 1.1,2.28 v 0 0 Q 60.52,-1.2 62,-1.2 Z m -0.12,-7.6 v 0 0 q -1.38,0 -2.32,0.86 v 0 0 q -0.88,0.82 -1.08,2.14 v 0 h 6.8 v 0 q -0.2,-1.32 -1.08,-2.14 v 0 0 Q 63.26,-8.8 61.88,-8.8 Z M 76.34,-10 72.72,-5.16 76.6,0 H 74.68 L 71.86,-4.08 69.02,0 h -1.9 L 70.98,-5.16 67.36,-10 h 1.92 l 2.58,3.78 2.56,-3.78 z m 4.22,10 h -1.5 V -8.68 H 77.02 V -10 h 2.04 v -3.58 h 1.5 V -10 h 2.3 v 1.32 h -2.3 z m 16,3.96 v -5.58 0 q -1.22,1.78 -3.58,1.78 v 0 0 q -2.16,0 -3.52,-1.5 v 0 0 Q 88.14,-2.82 88.14,-5 v 0 0 q 0,-2.18 1.32,-3.66 v 0 0 q 1.36,-1.5 3.63,-1.5 v 0 0 q 2.27,0 3.47,1.76 v 0 -1.6 h 1.5 V 3.96 Z M 93.18,-8.8 v 0 0 q -1.6,0 -2.6,1.12 v 0 0 Q 89.64,-6.62 89.64,-5 v 0 0 q 0,1.62 0.94,2.68 v 0 0 q 1,1.12 2.6,1.12 v 0 0 q 1.62,0 2.56,-1.12 v 0 0 q 0.9,-1.06 0.9,-2.68 v 0 0 q 0,-1.62 -0.9,-2.68 v 0 0 Q 94.8,-8.8 93.18,-8.8 Z m 16.2,8.8 h -1.5 v -1.56 0 q -0.54,0.72 -1.32,1.22 v 0 0 q -0.78,0.5 -1.78,0.5 v 0 0 q -1,0 -1.72,-0.28 v 0 0 q -0.72,-0.28 -1.26,-0.84 v 0 0 q -1.24,-1.22 -1.24,-3.22 v 0 -5.82 h 1.5 v 5.78 0 q 0,1.38 0.78,2.2 v 0 0 q 0.78,0.82 2.02,0.82 v 0 0 q 1.26,0 2.14,-0.84 v 0 0 q 0.88,-0.86 0.88,-2.2 v 0 -5.76 h 1.5 z m 7.06,-1.2 v 0 0 q 2.02,0 2.9,-1.68 v 0 h 1.64 v 0 q -0.52,1.36 -1.65,2.2 v 0 0 q -1.13,0.84 -2.91,0.84 v 0 0 q -2.26,0 -3.68,-1.5 v 0 0 Q 111.36,-2.8 111.36,-5 v 0 0 q 0,-2.22 1.32,-3.66 v 0 0 q 1.4,-1.5 3.64,-1.5 v 0 0 q 2.24,0 3.64,1.5 v 0 0 q 1.32,1.44 1.32,3.66 v 0 0.6 h -8.38 v 0 q 0.16,1.38 1.1,2.28 v 0 0 q 0.96,0.92 2.44,0.92 z m -0.12,-7.6 v 0 0 q -1.38,0 -2.32,0.86 v 0 0 q -0.88,0.82 -1.08,2.14 v 0 h 6.8 v 0 q -0.2,-1.32 -1.08,-2.14 v 0 0 Q 117.7,-8.8 116.32,-8.8 Z m 14.2,1.48 H 129 v 0 q -0.2,-1.56 -2.51,-1.56 v 0 0 q -2.31,0 -2.31,1.44 v 0 0 q 0,0.6 0.49,0.91 v 0 0 q 0.49,0.31 1.23,0.51 v 0 0 q 0.74,0.2 1.61,0.37 v 0 0 q 0.87,0.17 1.61,0.48 v 0 0 q 0.74,0.31 1.23,0.85 v 0 0 q 0.49,0.54 0.49,1.48 v 0 0 q 0,1.46 -1.1,2.23 v 0 0 q -1.1,0.77 -2.98,0.77 v 0 0 q -2,0 -3.18,-1 v 0 0 q -1.08,-0.88 -1.16,-2.3 v 0 h 1.56 v 0 q 0.14,1.38 1.56,1.86 v 0 0 q 0.52,0.16 1.03,0.16 v 0 0 q 0.51,0 0.95,-0.06 v 0 0 q 0.44,-0.06 0.86,-0.22 v 0 0 q 0.96,-0.38 0.96,-1.3 v 0 0 q 0,-0.62 -0.49,-0.95 v 0 0 q -0.49,-0.33 -1.23,-0.54 v 0 0 q -0.74,-0.21 -1.61,-0.38 v 0 0 q -0.87,-0.17 -1.61,-0.47 v 0 0 q -0.74,-0.3 -1.23,-0.82 v 0 0 q -0.49,-0.52 -0.49,-1.44 v 0 0 q 0,-1.36 0.99,-2.11 v 0 0 q 0.99,-0.75 2.93,-0.75 v 0 0 q 1.84,0 2.9,0.88 v 0 0 q 0.88,0.74 1.02,1.96 z M 135.34,0 h -1.5 V -8.68 H 131.8 V -10 h 2.04 v -3.58 h 1.5 V -10 h 2.3 v 1.32 h -2.3 z m 3.94,0 v -10 h 1.5 V 0 Z m -0.06,-13.64 h 1.62 v 1.96 h -1.62 z m 8.5,3.48 v 0 0 q 2.24,0 3.64,1.5 v 0 0 q 1.32,1.44 1.32,3.66 v 0 0 q 0,2.22 -1.32,3.66 v 0 0 q -1.4,1.5 -3.64,1.5 v 0 0 q -2.24,0 -3.64,-1.5 v 0 0 Q 142.76,-2.78 142.76,-5 v 0 0 q 0,-2.22 1.32,-3.66 v 0 0 q 1.4,-1.5 3.64,-1.5 z m 0,8.96 v 0 0 q 1.62,0 2.56,-1.12 v 0 0 q 0.9,-1.06 0.9,-2.68 v 0 0 q 0,-1.62 -0.9,-2.68 v 0 0 q -0.94,-1.12 -2.56,-1.12 v 0 0 q -1.62,0 -2.56,1.12 v 0 0 q -0.9,1.06 -0.9,2.68 v 0 0 q 0,1.62 0.9,2.68 v 0 0 q 0.94,1.12 2.56,1.12 z m 6.94,-8.8 h 1.5 v 1.56 0 q 0.54,-0.72 1.32,-1.22 v 0 0 q 0.78,-0.5 1.78,-0.5 v 0 0 q 1,0 1.72,0.28 v 0 0 q 0.72,0.28 1.26,0.84 v 0 0 q 1.24,1.22 1.24,3.22 v 0 V 0 h -1.5 v -5.78 0 q 0,-1.38 -0.78,-2.2 v 0 0 q -0.78,-0.82 -2.02,-0.82 v 0 0 q -1.26,0 -2.14,0.84 v 0 0 q -0.88,0.86 -0.88,2.2 v 0 V 0 h -1.5 z"
         fill="url(#editing-gradient-gradient)"
         id="path2"
         style="fill:url(#editing-gradient-gradient)" />
    </g>
  </g>
  <style
     id="style3">text {
  font-size: 64px;
  font-family: Arial Black;
  dominant-baseline: central;
  text-anchor: middle;
}</style>
</svg>
