<?xml version="1.0" encoding="UTF-8" standalone="no"?>
<svg
   width="127"
   height="35"
   viewBox="163.72 49.209991 127 35"
   preserveAspectRatio="xMidYMid"
   version="1.1"
   id="svg3"
   sodipodi:docname="singleselect.svg"
   inkscape:version="1.3.2 (091e20e, 2023-11-25, custom)"
   xmlns:inkscape="http://www.inkscape.org/namespaces/inkscape"
   xmlns:sodipodi="http://sodipodi.sourceforge.net/DTD/sodipodi-0.dtd"
   xmlns="http://www.w3.org/2000/svg"
   xmlns:svg="http://www.w3.org/2000/svg">
  <sodipodi:namedview
     id="namedview3"
     pagecolor="#ffffff"
     bordercolor="#000000"
     borderopacity="0.25"
     inkscape:showpageshadow="2"
     inkscape:pageopacity="0.0"
     inkscape:pagecheckerboard="0"
     inkscape:deskcolor="#d1d1d1"
     inkscape:zoom="5.9089474"
     inkscape:cx="66.932394"
     inkscape:cy="46.285739"
     inkscape:window-width="1920"
     inkscape:window-height="1017"
     inkscape:window-x="-8"
     inkscape:window-y="-8"
     inkscape:window-maximized="1"
     inkscape:current-layer="svg3" />
  <defs
     id="defs2">
    <linearGradient
       id="editing-gradient-gradient"
       x1="0.24470152"
       x2="44.674339"
       y1="-12.112716"
       y2="-12.112716"
       gradientUnits="userSpaceOnUse"
       gradientTransform="scale(2.4519668,0.40783586)">
      <stop
         offset="0"
         stop-color="#f0f"
         id="stop1" />
      <stop
         offset="1"
         stop-color="#0ff"
         id="stop2" />
    </linearGradient>
  </defs>
  <g
     id="g3"
     transform="rotate(0.17977829,3596.145,-6176.7651)">
    <g
       transform="translate(194.92999,84.067352)"
       id="g2">
      <path
         d="M 8.7,-7.32 H 7.18 v 0 Q 6.98,-8.88 4.67,-8.88 v 0 0 q -2.31,0 -2.31,1.44 v 0 0 q 0,0.6 0.49,0.91 v 0 0 q 0.49,0.31 1.23,0.51 v 0 0 q 0.74,0.2 1.61,0.37 v 0 0 q 0.87,0.17 1.61,0.48 v 0 0 q 0.74,0.31 1.23,0.85 v 0 0 q 0.49,0.54 0.49,1.48 v 0 0 q 0,1.46 -1.1,2.23 v 0 0 Q 6.82,0.16 4.94,0.16 v 0 0 q -2,0 -3.18,-1 v 0 0 Q 0.68,-1.72 0.6,-3.14 v 0 h 1.56 v 0 q 0.14,1.38 1.56,1.86 v 0 0 q 0.52,0.16 1.03,0.16 v 0 0 q 0.51,0 0.95,-0.06 v 0 0 Q 6.14,-1.24 6.56,-1.4 v 0 0 q 0.96,-0.38 0.96,-1.3 v 0 0 q 0,-0.62 -0.49,-0.95 v 0 0 Q 6.54,-3.98 5.8,-4.19 v 0 0 Q 5.06,-4.4 4.19,-4.57 v 0 0 Q 3.32,-4.74 2.58,-5.04 v 0 0 Q 1.84,-5.34 1.35,-5.86 v 0 0 Q 0.86,-6.38 0.86,-7.3 v 0 0 q 0,-1.36 0.99,-2.11 v 0 0 q 0.99,-0.75 2.93,-0.75 v 0 0 q 1.84,0 2.9,0.88 v 0 0 q 0.88,0.74 1.02,1.96 z M 10.94,0 v -10 h 1.5 V 0 Z m -0.06,-13.64 h 1.62 v 1.96 h -1.62 z m 4.16,3.64 h 1.5 v 1.56 0 q 0.54,-0.72 1.32,-1.22 v 0 0 q 0.78,-0.5 1.78,-0.5 v 0 0 q 1,0 1.72,0.28 v 0 0 q 0.72,0.28 1.26,0.84 v 0 0 q 1.24,1.22 1.24,3.22 v 0 V 0 h -1.5 v -5.78 0 q 0,-1.38 -0.78,-2.2 v 0 0 Q 20.8,-8.8 19.56,-8.8 v 0 0 q -1.26,0 -2.14,0.84 v 0 0 q -0.88,0.86 -0.88,2.2 v 0 V 0 h -1.5 z m 19.12,1.6 v 0 -1.6 h 1.5 v 9.7 0 q 0,2.16 -1.23,3.29 v 0 0 Q 33.2,4.12 31.12,4.12 v 0 0 q -2.08,0 -3.25,-0.8 v 0 0 Q 26.7,2.52 26.28,1.2 v 0 h 1.66 v 0 q 0.64,1.56 2.92,1.56 v 0 0 q 1.74,0 2.52,-0.8 v 0 0 q 0.78,-0.8 0.78,-2.36 v 0 -1.38 0 Q 32.94,0 30.58,0 v 0 0 q -2.16,0 -3.52,-1.48 v 0 0 q -1.32,-1.44 -1.32,-3.6 v 0 0 q 0,-2.16 1.32,-3.6 v 0 0 q 1.36,-1.48 3.63,-1.48 v 0 0 q 2.27,0 3.47,1.76 z m -3.38,7.04 v 0 0 q 0.82,0 1.46,-0.29 v 0 0 q 0.64,-0.29 1.1,-0.79 v 0 0 q 0.9,-1.04 0.9,-2.64 v 0 0 q 0,-1.6 -0.9,-2.64 v 0 0 Q 32.36,-8.8 30.78,-8.8 v 0 0 q -1.62,0 -2.6,1.08 v 0 0 q -0.94,1.06 -0.94,2.64 v 0 0 q 0,1.58 0.94,2.64 v 0 0 q 0.98,1.08 2.6,1.08 z M 39.76,-14 V 0 h -1.5 v -14 z m 7.06,12.8 v 0 0 q 2.02,0 2.9,-1.68 v 0 h 1.64 v 0 q -0.52,1.36 -1.65,2.2 v 0 0 Q 48.58,0.16 46.8,0.16 v 0 0 q -2.26,0 -3.68,-1.5 v 0 0 Q 41.74,-2.8 41.74,-5 v 0 0 q 0,-2.22 1.32,-3.66 v 0 0 q 1.4,-1.5 3.64,-1.5 v 0 0 q 2.24,0 3.64,1.5 v 0 0 q 1.32,1.44 1.32,3.66 v 0 0.6 h -8.38 v 0 q 0.16,1.38 1.1,2.28 v 0 0 q 0.96,0.92 2.44,0.92 z M 46.7,-8.8 v 0 0 q -1.38,0 -2.32,0.86 v 0 0 Q 43.5,-7.12 43.3,-5.8 v 0 h 6.8 v 0 q -0.2,-1.32 -1.08,-2.14 v 0 0 Q 48.08,-8.8 46.7,-8.8 Z m 18.46,1.48 h -1.52 v 0 q -0.2,-1.56 -2.51,-1.56 v 0 0 q -2.31,0 -2.31,1.44 v 0 0 q 0,0.6 0.49,0.91 v 0 0 q 0.49,0.31 1.23,0.51 v 0 0 q 0.74,0.2 1.61,0.37 v 0 0 q 0.87,0.17 1.61,0.48 v 0 0 q 0.74,0.31 1.23,0.85 v 0 0 q 0.49,0.54 0.49,1.48 v 0 0 q 0,1.46 -1.1,2.23 v 0 0 q -1.1,0.77 -2.98,0.77 v 0 0 q -2,0 -3.18,-1 v 0 0 q -1.08,-0.88 -1.16,-2.3 v 0 h 1.56 v 0 q 0.14,1.38 1.56,1.86 v 0 0 q 0.52,0.16 1.03,0.16 v 0 0 q 0.51,0 0.95,-0.06 v 0 0 q 0.44,-0.06 0.86,-0.22 v 0 0 q 0.96,-0.38 0.96,-1.3 v 0 0 q 0,-0.62 -0.49,-0.95 v 0 0 Q 63,-3.98 62.26,-4.19 v 0 0 Q 61.52,-4.4 60.65,-4.57 v 0 0 q -0.87,-0.17 -1.61,-0.47 v 0 0 q -0.74,-0.3 -1.23,-0.82 v 0 0 Q 57.32,-6.38 57.32,-7.3 v 0 0 q 0,-1.36 0.99,-2.11 v 0 0 q 0.99,-0.75 2.93,-0.75 v 0 0 q 1.84,0 2.9,0.88 v 0 0 q 0.88,0.74 1.02,1.96 z m 6.7,6.12 v 0 0 q 2.02,0 2.9,-1.68 v 0 h 1.64 v 0 q -0.52,1.36 -1.65,2.2 v 0 0 q -1.13,0.84 -2.91,0.84 v 0 0 q -2.26,0 -3.68,-1.5 v 0 0 Q 66.78,-2.8 66.78,-5 v 0 0 q 0,-2.22 1.32,-3.66 v 0 0 q 1.4,-1.5 3.64,-1.5 v 0 0 q 2.24,0 3.64,1.5 v 0 0 Q 76.7,-7.22 76.7,-5 v 0 0.6 h -8.38 v 0 q 0.16,1.38 1.1,2.28 v 0 0 q 0.96,0.92 2.44,0.92 z m -0.12,-7.6 v 0 0 q -1.38,0 -2.32,0.86 v 0 0 q -0.88,0.82 -1.08,2.14 v 0 h 6.8 v 0 q -0.2,-1.32 -1.08,-2.14 v 0 0 Q 73.12,-8.8 71.74,-8.8 Z m 8.3,-5.2 V 0 h -1.5 v -14 z m 7.06,12.8 v 0 0 q 2.02,0 2.9,-1.68 v 0 h 1.64 v 0 q -0.52,1.36 -1.65,2.2 v 0 0 q -1.13,0.84 -2.91,0.84 v 0 0 q -2.26,0 -3.68,-1.5 v 0 0 Q 82.02,-2.8 82.02,-5 v 0 0 q 0,-2.22 1.32,-3.66 v 0 0 q 1.4,-1.5 3.64,-1.5 v 0 0 q 2.24,0 3.64,1.5 v 0 0 q 1.32,1.44 1.32,3.66 v 0 0.6 h -8.38 v 0 q 0.16,1.38 1.1,2.28 v 0 0 q 0.96,0.92 2.44,0.92 z m -0.12,-7.6 v 0 0 q -1.38,0 -2.32,0.86 v 0 0 q -0.88,0.82 -1.08,2.14 v 0 h 6.8 v 0 q -0.2,-1.32 -1.08,-2.14 v 0 0 Q 88.36,-8.8 86.98,-8.8 Z m 11.42,7.6 v 0 0 q 0.96,0 1.7,-0.54 v 0 0 q 0.74,-0.54 1.08,-1.4 v 0 h 1.62 v 0 q -0.46,1.48 -1.68,2.38 v 0 0 q -1.28,0.92 -3.04,0.92 v 0 0 q -2.2,0 -3.58,-1.5 v 0 0 Q 93.16,-2.8 93.16,-5 v 0 0 q 0,-2.2 1.34,-3.66 v 0 0 q 1.38,-1.5 3.58,-1.5 v 0 0 q 1.76,0 3.04,0.92 v 0 0 q 1.22,0.9 1.68,2.38 v 0 h -1.62 v 0 q -0.34,-0.86 -1.08,-1.4 v 0 0 Q 99.36,-8.8 98.4,-8.8 v 0 0 q -0.96,0 -1.63,0.3 v 0 0 q -0.67,0.3 -1.13,0.82 v 0 0 Q 94.66,-6.6 94.66,-5 v 0 0 q 0,1.6 0.98,2.68 v 0 0 q 1,1.12 2.76,1.12 z m 8.84,1.2 h -1.5 V -8.68 H 103.7 V -10 h 2.04 v -3.58 h 1.5 V -10 h 2.3 v 1.32 h -2.3 z"
         fill="url(#editing-gradient-gradient)"
         id="path2"
         style="fill:url(#editing-gradient-gradient)" />
    </g>
  </g>
  <style
     id="style3">text {
  font-size: 64px;
  font-family: Arial Black;
  dominant-baseline: central;
  text-anchor: middle;
}</style>
</svg>
