<?xml version="1.0" encoding="UTF-8" standalone="no"?>
<svg
   width="700"
   height="90"
   viewBox="-93.319995 18.460001 699.99998 89.999999"
   preserveAspectRatio="xMidYMid"
   version="1.1"
   id="svg3"
   sodipodi:docname="singleselect.svg"
   inkscape:version="1.3.2 (091e20e, 2023-11-25, custom)"
   xmlns:inkscape="http://www.inkscape.org/namespaces/inkscape"
   xmlns:sodipodi="http://sodipodi.sourceforge.net/DTD/sodipodi-0.dtd"
   xmlns:xlink="http://www.w3.org/1999/xlink"
   xmlns="http://www.w3.org/2000/svg"
   xmlns:svg="http://www.w3.org/2000/svg">
  <sodipodi:namedview
     id="namedview3"
     pagecolor="#ffffff"
     bordercolor="#000000"
     borderopacity="0.25"
     inkscape:showpageshadow="2"
     inkscape:pageopacity="0.0"
     inkscape:pagecheckerboard="0"
     inkscape:deskcolor="#d1d1d1"
     inkscape:zoom="0.74249095"
     inkscape:cx="414.14646"
     inkscape:cy="214.81743"
     inkscape:window-width="1920"
     inkscape:window-height="1017"
     inkscape:window-x="-8"
     inkscape:window-y="-8"
     inkscape:window-maximized="1"
     inkscape:current-layer="svg3" />
  <defs
     id="defs2">
    <linearGradient
       id="linearGradient8"
       inkscape:collect="always">
      <stop
         style="stop-color:#ffffff;stop-opacity:1;"
         offset="0.88449848"
         id="stop8" />
      <stop
         style="stop-color:#7d7d7d;stop-opacity:0.90711462;"
         offset="1"
         id="stop9" />
    </linearGradient>
    <linearGradient
       id="editing-gradient-gradient"
       x1="0.64598852"
       x2="172.97351"
       y1="-46.990311"
       y2="-46.990311"
       gradientUnits="userSpaceOnUse"
       gradientTransform="scale(2.9721891,0.33645234)">
      <stop
         offset="0"
         stop-color="#f0f"
         id="stop1" />
      <stop
         offset="1"
         stop-color="#0ff"
         id="stop2" />
    </linearGradient>
    <linearGradient
       inkscape:collect="always"
       xlink:href="#linearGradient8"
       id="linearGradient9"
       x1="-6.0949907"
       y1="88.18"
       x2="506.095"
       y2="88.18"
       gradientUnits="userSpaceOnUse" />
    <linearGradient
       inkscape:collect="always"
       xlink:href="#linearGradient8"
       id="linearGradient10"
       gradientUnits="userSpaceOnUse"
       x1="-6.0949907"
       y1="88.18"
       x2="506.095"
       y2="88.18" />
    <linearGradient
       inkscape:collect="always"
       xlink:href="#linearGradient8"
       id="linearGradient11"
       gradientUnits="userSpaceOnUse"
       x1="-6.0949907"
       y1="88.18"
       x2="506.095"
       y2="88.18" />
  </defs>
  <g
     id="g3"
     transform="matrix(1.1406796,0,0,1.3135916,-20.691645,-52.231945)"
     style="fill:url(#linearGradient9)">
    <g
       transform="translate(-8.0149907,103.99)"
       id="g2"
       style="fill:url(#linearGradient11);fill-opacity:1">
      <path
         d="m 27.84,-23.42 h -4.86 v 0 q -0.64,-5 -8.04,-5 v 0 0 q -7.39,0 -7.39,4.61 v 0 0 q 0,1.92 1.57,2.91 v 0 0 q 1.57,1 3.94,1.64 v 0 0 q 2.36,0.64 5.15,1.18 v 0 0 q 2.78,0.54 5.15,1.54 v 0 0 q 2.37,0.99 3.94,2.72 v 0 0 q 1.56,1.72 1.56,4.73 v 0 0 q 0,4.67 -3.52,7.14 v 0 0 q -3.52,2.46 -9.53,2.46 v 0 0 q -6.4,0 -10.18,-3.2 v 0 0 Q 2.18,-5.5 1.92,-10.05 v 0 h 4.99 v 0 q 0.45,4.42 4.99,5.95 v 0 0 q 1.67,0.52 3.3,0.52 v 0 0 q 1.63,0 3.04,-0.2 v 0 0 q 1.41,-0.19 2.75,-0.7 v 0 0 q 3.07,-1.22 3.07,-4.16 v 0 0 q 0,-1.98 -1.56,-3.04 v 0 0 q -1.57,-1.06 -3.94,-1.73 v 0 0 q -2.37,-0.67 -5.15,-1.21 v 0 0 q -2.79,-0.55 -5.15,-1.51 v 0 0 q -2.37,-0.96 -3.94,-2.62 v 0 0 q -1.57,-1.67 -1.57,-4.61 v 0 0 q 0,-4.35 3.17,-6.75 v 0 0 q 3.17,-2.4 9.38,-2.4 v 0 0 q 5.88,0 9.28,2.81 v 0 0 q 2.81,2.37 3.26,6.28 z M 48.64,0 v -32 h 4.8 V 0 Z m -0.19,-43.65 h 5.18 v 6.27 H 48.45 Z M 75.39,-32 h 4.8 v 4.99 0 q 1.73,-2.3 4.23,-3.9 v 0 0 q 2.49,-1.6 5.69,-1.6 v 0 0 q 3.2,0 5.51,0.89 v 0 0 q 2.3,0.9 4.03,2.69 v 0 0 q 3.97,3.91 3.97,10.31 v 0 V 0 h -4.8 v -18.5 0 q 0,-4.41 -2.5,-7.04 v 0 0 q -2.5,-2.62 -6.46,-2.62 v 0 0 q -4.04,0 -6.85,2.69 v 0 0 q -2.82,2.75 -2.82,7.04 v 0 V 0 h -4.8 z m 74.82,5.12 v 0 -5.12 h 4.8 v 31.04 0 q 0,6.91 -3.94,10.53 v 0 0 q -3.93,3.61 -10.59,3.61 v 0 0 q -6.66,0 -10.4,-2.56 v 0 0 q -3.74,-2.56 -5.09,-6.78 v 0 h 5.31 v 0 q 2.05,4.99 9.35,4.99 v 0 0 q 5.57,0 8.06,-2.56 v 0 0 q 2.5,-2.56 2.5,-7.55 v 0 -4.42 0 Q 146.3,0 138.75,0 v 0 0 q -6.91,0 -11.26,-4.74 v 0 0 q -4.23,-4.6 -4.23,-11.52 v 0 0 q 0,-6.91 4.23,-11.52 v 0 0 q 4.35,-4.73 11.61,-4.73 v 0 0 q 7.27,0 11.11,5.63 z m -10.82,22.53 v 0 0 q 2.63,0 4.67,-0.93 v 0 0 q 2.05,-0.93 3.52,-2.53 v 0 0 q 2.88,-3.33 2.88,-8.45 v 0 0 q 0,-5.12 -2.88,-8.44 v 0 0 q -3.13,-3.46 -8.19,-3.46 v 0 0 q -5.18,0 -8.32,3.46 v 0 0 q -3.01,3.39 -3.01,8.44 v 0 0 q 0,5.06 3.01,8.45 v 0 0 q 3.14,3.46 8.32,3.46 z M 181.76,-44.8 V 0 h -4.8 v -44.8 z m 36.22,40.96 v 0 0 q 6.47,0 9.28,-5.38 v 0 h 5.25 v 0 q -1.66,4.36 -5.28,7.04 v 0 0 q -3.61,2.69 -9.31,2.69 v 0 0 q -7.23,0 -11.78,-4.8 v 0 0 Q 201.73,-8.96 201.73,-16 v 0 0 q 0,-7.1 4.22,-11.71 v 0 0 q 4.48,-4.8 11.65,-4.8 v 0 0 q 7.17,0 11.65,4.8 v 0 0 q 4.22,4.61 4.22,11.71 v 0 1.92 h -26.81 v 0 q 0.51,4.42 3.52,7.3 v 0 0 q 3.07,2.94 7.8,2.94 z m -0.38,-24.32 v 0 0 q -4.42,0 -7.42,2.75 v 0 0 q -2.82,2.63 -3.46,6.85 v 0 h 21.76 v 0 q -0.64,-4.22 -3.46,-6.85 v 0 0 q -3,-2.75 -7.42,-2.75 z m 86.34,4.74 h -4.87 v 0 q -0.64,-5 -8.03,-5 v 0 0 q -7.39,0 -7.39,4.61 v 0 0 q 0,1.92 1.57,2.91 v 0 0 q 1.56,1 3.93,1.64 v 0 0 q 2.37,0.64 5.15,1.18 v 0 0 q 2.79,0.54 5.16,1.54 v 0 0 q 2.36,0.99 3.93,2.72 v 0 0 q 1.57,1.72 1.57,4.73 v 0 0 q 0,4.67 -3.52,7.14 v 0 0 q -3.52,2.46 -9.54,2.46 v 0 0 q -6.4,0 -10.17,-3.2 v 0 0 q -3.46,-2.81 -3.71,-7.36 v 0 h 4.99 v 0 q 0.45,4.42 4.99,5.95 v 0 0 q 1.66,0.52 3.3,0.52 v 0 0 q 1.63,0 3.04,-0.2 v 0 0 q 1.4,-0.19 2.75,-0.7 v 0 0 q 3.07,-1.22 3.07,-4.16 v 0 0 q 0,-1.98 -1.57,-3.04 v 0 0 q -1.57,-1.06 -3.93,-1.73 v 0 0 q -2.37,-0.67 -5.16,-1.21 v 0 0 q -2.78,-0.55 -5.15,-1.51 v 0 0 q -2.37,-0.96 -3.93,-2.62 v 0 0 q -1.57,-1.67 -1.57,-4.61 v 0 0 q 0,-4.35 3.17,-6.75 v 0 0 q 3.16,-2.4 9.37,-2.4 v 0 0 q 5.89,0 9.28,2.81 v 0 0 q 2.82,2.37 3.27,6.28 z m 35.07,19.58 v 0 0 q 6.46,0 9.28,-5.38 v 0 h 5.25 v 0 q -1.67,4.36 -5.28,7.04 v 0 0 q -3.62,2.69 -9.32,2.69 v 0 0 q -7.23,0 -11.77,-4.8 v 0 0 Q 322.75,-8.96 322.75,-16 v 0 0 q 0,-7.1 4.23,-11.71 v 0 0 q 4.48,-4.8 11.64,-4.8 v 0 0 q 7.17,0 11.65,4.8 v 0 0 q 4.23,4.61 4.23,11.71 v 0 1.92 h -26.82 v 0 q 0.51,4.42 3.52,7.3 v 0 0 q 3.07,2.94 7.81,2.94 z m -0.39,-24.32 v 0 0 q -4.41,0 -7.42,2.75 v 0 0 q -2.82,2.63 -3.46,6.85 v 0 h 21.76 v 0 q -0.64,-4.22 -3.45,-6.85 v 0 0 q -3.01,-2.75 -7.43,-2.75 z m 40.2,-16.64 V 0 h -4.8 v -44.8 z m 36.22,40.96 v 0 0 q 6.46,0 9.28,-5.38 v 0 h 5.25 v 0 q -1.67,4.36 -5.28,7.04 v 0 0 q -3.62,2.69 -9.31,2.69 v 0 0 q -7.24,0 -11.78,-4.8 v 0 0 Q 398.78,-8.96 398.78,-16 v 0 0 q 0,-7.1 4.23,-11.71 v 0 0 q 4.48,-4.8 11.65,-4.8 v 0 0 q 7.16,0 11.64,4.8 v 0 0 q 4.23,4.61 4.23,11.71 v 0 1.92 h -26.82 v 0 q 0.51,4.42 3.52,7.3 v 0 0 q 3.07,2.94 7.81,2.94 z m -0.38,-24.32 v 0 0 q -4.42,0 -7.43,2.75 v 0 0 q -2.81,2.63 -3.45,6.85 v 0 h 21.76 v 0 q -0.64,-4.22 -3.46,-6.85 v 0 0 q -3.01,-2.75 -7.42,-2.75 z m 50.17,24.32 v 0 0 q 3.07,0 5.44,-1.73 v 0 0 q 2.37,-1.73 3.46,-4.48 v 0 h 5.18 v 0 q -1.47,4.74 -5.37,7.62 v 0 0 q -4.1,2.94 -9.73,2.94 v 0 0 q -7.04,0 -11.46,-4.8 v 0 0 Q 448.06,-8.96 448.06,-16 v 0 0 q 0,-7.04 4.29,-11.71 v 0 0 q 4.42,-4.8 11.46,-4.8 v 0 0 q 5.63,0 9.73,2.94 v 0 0 q 3.9,2.88 5.37,7.62 v 0 h -5.18 v 0 q -1.09,-2.75 -3.46,-4.48 v 0 0 q -2.37,-1.73 -5.44,-1.73 v 0 0 q -3.07,0 -5.21,0.96 v 0 0 q -2.15,0.96 -3.62,2.62 v 0 0 q -3.14,3.46 -3.14,8.58 v 0 0 q 0,5.12 3.14,8.58 v 0 0 q 3.2,3.58 8.83,3.58 z M 506.75,0 h -4.8 v -27.78 h -6.53 V -32 h 6.53 v -11.46 h 4.8 V -32 h 7.36 v 4.22 h -7.36 z"
         fill="url(#editing-gradient-gradient)"
         id="path2"
         style="fill:url(#linearGradient10);fill-opacity:1" />
    </g>
  </g>
  <style
     id="style3">text {
  font-size: 64px;
  font-family: Arial Black;
  dominant-baseline: central;
  text-anchor: middle;
}</style>
</svg>
