<?xml version="1.0" encoding="UTF-8" standalone="no"?>
<svg
   width="415.1599853515625px"
   height="83.639990234375px"
   viewBox="42.420007324218744 33.1800048828125 415.1599853515625 83.639990234375"
   style="background: none;"
   preserveAspectRatio="xMidYMid"
   version="1.1"
   id="svg3"
   sodipodi:docname="list-text.svg"
   inkscape:version="1.3.2 (091e20e, 2023-11-25, custom)"
   xmlns:inkscape="http://www.inkscape.org/namespaces/inkscape"
   xmlns:sodipodi="http://sodipodi.sourceforge.net/DTD/sodipodi-0.dtd"
   xmlns:xlink="http://www.w3.org/1999/xlink"
   xmlns="http://www.w3.org/2000/svg"
   xmlns:svg="http://www.w3.org/2000/svg">
  <sodipodi:namedview
     id="namedview3"
     pagecolor="#ffffff"
     bordercolor="#000000"
     borderopacity="0.25"
     inkscape:showpageshadow="2"
     inkscape:pageopacity="0.0"
     inkscape:pagecheckerboard="0"
     inkscape:deskcolor="#d1d1d1"
     inkscape:zoom="1.2280182"
     inkscape:cx="186.88648"
     inkscape:cy="114.41199"
     inkscape:window-width="1920"
     inkscape:window-height="1017"
     inkscape:window-x="-8"
     inkscape:window-y="-8"
     inkscape:window-maximized="1"
     inkscape:current-layer="svg3" />
  <defs
     id="defs2">
    <linearGradient
       id="linearGradient1"
       inkscape:collect="always">
      <stop
         style="stop-color:#000000;stop-opacity:1;"
         offset="0"
         id="stop3" />
      <stop
         style="stop-color:#000000;stop-opacity:0;"
         offset="0.72472477"
         id="stop4" />
    </linearGradient>
    <linearGradient
       id="editing-gradient-gradient"
       x1="1.3340564"
       x2="107.70257"
       y1="-29.941163"
       y2="-29.941163"
       gradientUnits="userSpaceOnUse"
       gradientTransform="scale(2.6685528,0.37473495)">
      <stop
         offset="0"
         stop-color="#f0f"
         id="stop1" />
      <stop
         offset="1"
         stop-color="#0ff"
         id="stop2" />
    </linearGradient>
    <linearGradient
       inkscape:collect="always"
       xlink:href="#linearGradient1"
       id="linearGradient4"
       x1="108.075"
       y1="83.71"
       x2="391.925"
       y2="83.71"
       gradientUnits="userSpaceOnUse" />
  </defs>
  <g
     id="g3"
     transform="translate(-7.3288818,-9.7718406)"
     style="fill:url(#linearGradient4)">
    <g
       transform="translate(104.515,94.93)"
       id="g2"
       style="fill:url(#linearGradient4)">
      <path
         d="m 3.56,-29.13 h 3.3 V -3.17 H 22.75 V 0 H 3.56 Z M 26.31,0 v -22 h 3.3 V 0 Z m -0.13,-30.01 h 3.56 v 4.31 h -3.56 z m 25.43,13.91 h -3.34 v 0 q -0.44,-3.44 -5.52,-3.44 v 0 0 q -5.09,0 -5.09,3.17 v 0 0 q 0,1.32 1.08,2 v 0 0 q 1.08,0.69 2.71,1.13 v 0 0 q 1.63,0.44 3.54,0.81 v 0 0 q 1.91,0.37 3.54,1.06 v 0 0 q 1.63,0.68 2.71,1.87 v 0 0 q 1.08,1.18 1.08,3.25 v 0 0 q 0,3.21 -2.42,4.91 v 0 0 q -2.42,1.69 -6.56,1.69 v 0 0 q -4.4,0 -7,-2.2 v 0 0 q -2.37,-1.93 -2.55,-5.06 v 0 h 3.43 v 0 q 0.31,3.04 3.44,4.09 v 0 0 q 1.14,0.36 2.26,0.36 v 0 0 q 1.12,0 2.09,-0.14 v 0 0 q 0.97,-0.13 1.89,-0.48 v 0 0 q 2.12,-0.84 2.12,-2.86 v 0 0 q 0,-1.36 -1.08,-2.09 v 0 0 q -1.08,-0.73 -2.71,-1.19 v 0 0 q -1.63,-0.46 -3.54,-0.83 v 0 0 q -1.91,-0.38 -3.54,-1.04 v 0 0 q -1.63,-0.66 -2.71,-1.8 v 0 0 q -1.08,-1.15 -1.08,-3.17 v 0 0 q 0,-2.99 2.18,-4.64 v 0 0 q 2.18,-1.65 6.45,-1.65 v 0 0 q 4.05,0 6.38,1.93 v 0 0 q 1.93,1.63 2.24,4.32 z M 62.22,0 h -3.3 V -19.1 H 54.43 V -22 h 4.49 v -7.88 h 3.3 V -22 h 5.06 v 2.9 H 62.22 Z M 89.8,-22.35 v 0 0 q 4.93,0 8.01,3.3 v 0 0 q 2.91,3.17 2.91,8.05 v 0 0 q 0,4.88 -2.91,8.05 v 0 0 q -3.08,3.3 -8.01,3.3 v 0 0 q -4.92,0 -8,-3.3 v 0 0 Q 78.89,-6.12 78.89,-11 v 0 0 q 0,-4.88 2.91,-8.05 v 0 0 q 3.08,-3.3 8,-3.3 z m 0,19.71 v 0 0 q 3.57,0 5.64,-2.46 v 0 0 q 1.98,-2.34 1.98,-5.9 v 0 0 q 0,-3.56 -1.98,-5.9 v 0 0 q -2.07,-2.46 -5.64,-2.46 v 0 0 q -3.56,0 -5.63,2.46 v 0 0 q -1.98,2.34 -1.98,5.9 v 0 0 q 0,3.56 1.98,5.9 v 0 0 q 2.07,2.46 5.63,2.46 z m 24.91,-25.39 h -0.44 v 0 q -2.33,0 -3.5,1.04 v 0 0 q -1.17,1.03 -1.17,3.32 v 0 1.67 h 5.11 v 2.9 H 109.6 V 0 h -3.3 v -19.1 h -3.78 V -22 h 3.78 v -1.94 0 q 0,-3.6 2.16,-5.41 v 0 0 q 2.16,-1.8 5.98,-1.8 v 0 h 0.27 z M 127.69,0 v -22 h 3.3 V 0 Z m -0.13,-30.01 h 3.56 v 4.31 h -3.56 z m 9.15,8.01 h 3.3 v 3.43 0 q 1.19,-1.58 2.9,-2.68 v 0 0 q 1.72,-1.1 3.92,-1.1 v 0 0 q 2.2,0 3.78,0.61 v 0 0 q 1.59,0.62 2.77,1.85 v 0 0 q 2.73,2.69 2.73,7.09 v 0 V 0 h -3.3 v -12.72 0 q 0,-3.03 -1.71,-4.84 v 0 0 q -1.72,-1.8 -4.45,-1.8 v 0 0 q -2.77,0 -4.71,1.85 v 0 0 q -1.93,1.89 -1.93,4.84 v 0 V 0 h -3.3 z m 42.06,30.71 v -12.27 0 q -2.68,3.91 -7.87,3.91 v 0 0 q -4.76,0 -7.75,-3.3 v 0 0 q -2.9,-3.25 -2.9,-8.05 v 0 0 q 0,-4.8 2.9,-8.05 v 0 0 q 2.99,-3.3 7.99,-3.3 v 0 0 q 4.99,0 7.63,3.87 v 0 -3.52 h 3.3 V 8.71 Z m -7.43,-28.07 v 0 0 q -3.52,0 -5.72,2.46 v 0 0 q -2.07,2.34 -2.07,5.9 v 0 0 q 0,3.56 2.07,5.9 v 0 0 q 2.2,2.46 5.72,2.46 v 0 0 q 3.56,0 5.63,-2.46 v 0 0 q 1.98,-2.34 1.98,-5.9 v 0 0 q 0,-3.56 -1.98,-5.9 v 0 0 q -2.07,-2.46 -5.63,-2.46 z M 206.98,0 h -3.3 v -3.43 0 q -1.19,1.58 -2.91,2.68 v 0 0 q -1.71,1.1 -3.91,1.1 v 0 0 q -2.2,0 -3.79,-0.61 v 0 0 q -1.58,-0.62 -2.77,-1.85 v 0 0 q -2.73,-2.69 -2.73,-7.09 v 0 -12.8 h 3.3 v 12.72 0 q 0,3.03 1.72,4.84 v 0 0 q 1.71,1.8 4.44,1.8 v 0 0 q 2.77,0 4.71,-1.85 v 0 0 q 1.94,-1.89 1.94,-4.84 v 0 V -22 h 3.3 z m 5.72,0 V -22 H 216 V 0 Z m -0.14,-30.01 h 3.57 v 4.31 h -3.57 z m 20.55,7.66 h 0.22 v 3.3 h -0.39 v 0 q -3.57,0 -5.81,2.86 v 0 0 q -2.11,2.73 -2.11,6.51 v 0 V 0 h -3.3 v -22 h 3.3 v 5.41 0 q 1.05,-3.43 4.57,-5.06 v 0 0 q 1.45,-0.7 3.52,-0.7 z M 236.9,0 v -22 h 3.3 V 0 Z m -0.14,-30.01 h 3.57 v 4.31 h -3.57 z m 18.97,27.37 v 0 0 q 4.44,0 6.38,-3.7 v 0 h 3.61 v 0 q -1.15,3 -3.63,4.84 v 0 0 q -2.49,1.85 -6.41,1.85 v 0 0 q -4.97,0 -8.09,-3.3 v 0 0 q -3.04,-3.21 -3.04,-8.05 v 0 0 q 0,-4.88 2.91,-8.05 v 0 0 q 3.08,-3.3 8,-3.3 v 0 0 q 4.93,0 8.01,3.3 v 0 0 q 2.91,3.17 2.91,8.05 v 0 1.32 h -18.44 v 0 q 0.35,3.04 2.42,5.02 v 0 0 q 2.11,2.02 5.37,2.02 z m -0.27,-16.72 v 0 0 q -3.03,0 -5.1,1.89 v 0 0 q -1.94,1.81 -2.38,4.71 v 0 h 14.96 v 0 q -0.44,-2.9 -2.37,-4.71 v 0 0 q -2.07,-1.89 -5.11,-1.89 z m 31.24,3.26 h -3.34 v 0 q -0.44,-3.44 -5.52,-3.44 v 0 0 q -5.08,0 -5.08,3.17 v 0 0 q 0,1.32 1.07,2 v 0 0 q 1.08,0.69 2.71,1.13 v 0 0 q 1.63,0.44 3.54,0.81 v 0 0 q 1.92,0.37 3.54,1.06 v 0 0 q 1.63,0.68 2.71,1.87 v 0 0 q 1.08,1.18 1.08,3.25 v 0 0 q 0,3.21 -2.42,4.91 v 0 0 q -2.42,1.69 -6.56,1.69 v 0 0 q -4.4,0 -6.99,-2.2 v 0 0 q -2.38,-1.93 -2.56,-5.06 v 0 h 3.44 v 0 q 0.3,3.04 3.43,4.09 v 0 0 q 1.14,0.36 2.26,0.36 v 0 0 q 1.13,0 2.09,-0.14 v 0 0 q 0.97,-0.13 1.9,-0.48 v 0 0 q 2.11,-0.84 2.11,-2.86 v 0 0 q 0,-1.36 -1.08,-2.09 v 0 0 q -1.08,-0.73 -2.71,-1.19 v 0 0 q -1.62,-0.46 -3.54,-0.83 v 0 0 q -1.91,-0.38 -3.54,-1.04 v 0 0 q -1.63,-0.66 -2.71,-1.8 v 0 0 q -1.07,-1.15 -1.07,-3.17 v 0 0 q 0,-2.99 2.17,-4.64 v 0 0 q 2.18,-1.65 6.45,-1.65 v 0 0 q 4.05,0 6.38,1.93 v 0 0 q 1.94,1.63 2.24,4.32 z"
         fill="url(#editing-gradient-gradient)"
         id="path2"
         style="fill:url(#linearGradient4)" />
    </g>
  </g>
  <style
     id="style3">text {
  font-size: 64px;
  font-family: Arial Black;
  dominant-baseline: central;
  text-anchor: middle;
}</style>
</svg>
