<?xml version="1.0" encoding="UTF-8" standalone="no"?>
<!-- Uploaded to: SVG Repo, www.svgrepo.com, Transformed by: SVG Repo Mixer Tools -->

<svg
   fill="#000000"
   width="70"
   height="65"
   viewBox="0 0 1.4 1.3"
   id="chart-grow-16px"
   version="1.1"
   sodipodi:docname="charts.svg"
   inkscape:version="1.3.2 (091e20e, 2023-11-25, custom)"
   xmlns:inkscape="http://www.inkscape.org/namespaces/inkscape"
   xmlns:sodipodi="http://sodipodi.sourceforge.net/DTD/sodipodi-0.dtd"
   xmlns="http://www.w3.org/2000/svg"
   xmlns:svg="http://www.w3.org/2000/svg">
  <defs
     id="defs1" />
  <sodipodi:namedview
     id="namedview1"
     pagecolor="#ffffff"
     bordercolor="#000000"
     borderopacity="0.25"
     inkscape:showpageshadow="2"
     inkscape:pageopacity="0.0"
     inkscape:pagecheckerboard="0"
     inkscape:deskcolor="#d1d1d1"
     inkscape:zoom="5.15"
     inkscape:cx="29.417476"
     inkscape:cy="40.679612"
     inkscape:window-width="1920"
     inkscape:window-height="1017"
     inkscape:window-x="-8"
     inkscape:window-y="-8"
     inkscape:window-maximized="1"
     inkscape:current-layer="chart-grow-16px" />
  <g
     id="SVGRepo_iconCarrier"
     transform="matrix(0.06088946,0,0,0.06035697,0.15270943,0.17231705)"
     style="fill:#b3b3b3;stroke-width:1.17983">
    <path
       id="Path_151"
       data-name="Path 151"
       d="M 38.5,15 H 38 V 5.5 A 0.5,0.5 0 0 0 37.5,5 h -3 A 0.5,0.5 0 0 0 34,5.5 V 8 H 31.5 A 0.5,0.5 0 0 0 31,8.5 V 11 H 28.5 A 0.5,0.5 0 0 0 28,11.5 V 13 H 25.5 A 0.5,0.5 0 0 0 25,13.5 V 15 H 24 V 0.5 a 0.5,0.5 0 0 0 -1,0 v 15 a 0.5,0.5 0 0 0 0.5,0.5 h 15 a 0.5,0.5 0 0 0 0,-1 z M 26,14 h 2 v 1 h -2 z m 3,-0.5 V 12 h 2 v 3 h -2 z m 3,-2 V 9 h 2 v 6 H 32 Z M 35,15 V 6 h 2 v 9 z m -9.854,-3.146 a 0.5,0.5 0 0 1 0,-0.708 L 35.293,1 H 33.5 a 0.5,0.5 0 0 1 0,-1 h 3 A 0.5,0.5 0 0 1 37,0.5 v 3 a 0.5,0.5 0 0 1 -1,0 V 1.707 L 25.854,11.854 a 0.5,0.5 0 0 1 -0.708,0 z"
       transform="translate(-23)"
       style="fill:#cccccc;stroke-width:1.17983" />
  </g>
</svg>
