<?xml version="1.0" encoding="UTF-8" standalone="no"?>
<svg
   width="150"
   height="49"
   viewBox="108.04001 19.380005 150 49"
   preserveAspectRatio="xMidYMid"
   version="1.1"
   id="svg3"
   sodipodi:docname="charts-panel-name.svg"
   inkscape:version="1.3.2 (091e20e, 2023-11-25, custom)"
   xmlns:inkscape="http://www.inkscape.org/namespaces/inkscape"
   xmlns:sodipodi="http://sodipodi.sourceforge.net/DTD/sodipodi-0.dtd"
   xmlns:xlink="http://www.w3.org/1999/xlink"
   xmlns="http://www.w3.org/2000/svg"
   xmlns:svg="http://www.w3.org/2000/svg">
  <sodipodi:namedview
     id="namedview3"
     pagecolor="#ffffff"
     bordercolor="#000000"
     borderopacity="0.25"
     inkscape:showpageshadow="2"
     inkscape:pageopacity="0.0"
     inkscape:pagecheckerboard="0"
     inkscape:deskcolor="#d1d1d1"
     inkscape:zoom="2.5394479"
     inkscape:cx="141.7631"
     inkscape:cy="55.720773"
     inkscape:window-width="1904"
     inkscape:window-height="1001"
     inkscape:window-x="26"
     inkscape:window-y="0"
     inkscape:window-maximized="0"
     inkscape:current-layer="svg3" />
  <defs
     id="defs2">
    <linearGradient
       id="linearGradient3"
       inkscape:collect="always">
      <stop
         style="stop-color:#ffffff;stop-opacity:1;"
         offset="0.80658436"
         id="stop4" />
      <stop
         style="stop-color:#939393;stop-opacity:1;"
         offset="1"
         id="stop3" />
    </linearGradient>
    <linearGradient
       id="editing-gradient-gradient"
       x1="1.2280723"
       x2="93.466125"
       y1="-45.080814"
       y2="-45.080814"
       gradientUnits="userSpaceOnUse"
       gradientTransform="matrix(2.806831,0,0,0.75299994,57.148797,52.244144)">
      <stop
         offset="0"
         stop-color="#f0f"
         id="stop1" />
      <stop
         offset="1"
         stop-color="#0ff"
         id="stop2" />
    </linearGradient>
    <linearGradient
       inkscape:collect="always"
       xlink:href="#linearGradient3"
       id="linearGradient4"
       x1="2.5"
       y1="-22.145"
       x2="190.27"
       y2="-22.145"
       gradientUnits="userSpaceOnUse"
       gradientTransform="matrix(1.0613814,0,0,1.0562886,-4.8969881,130.60145)" />
  </defs>
  <g
     id="g3"
     transform="matrix(0.68332671,0,0,0.61759875,10.543692,-77.398016)"
     style="fill:#000000;stroke-width:1.53933">
    <g
       transform="translate(153.615,97.654999)"
       id="g2"
       style="fill:#000000;stroke-width:1.53933">
      <path
         d="m 26.231805,110.52994 v 0 0 q 4.55,0 7.97,-2.3 v 0 0 q 3.43,-2.31 5.09,-6.21 v 0 h 5.06 v 0 q -2.12,6.01 -6.98,9.47 v 0 0 q -5.18,3.71 -12.22,3.71 v 0 0 q -9.28,0 -15.04,-6.33 v 0 0 q -5.4399998,-6.08 -5.4399998,-15.360003 v 0 0 q 0,-9.28 5.4399998,-15.36 v 0 0 q 5.76,-6.34 15.04,-6.34 v 0 0 q 7.04,0 12.22,3.71 v 0 0 q 4.86,3.46 6.98,9.47 v 0 h -5.06 v 0 q -1.66,-3.9 -5.09,-6.2 v 0 0 q -3.42,-2.31 -7.97,-2.31 v 0 0 q -4.54,0 -7.55,1.31 v 0 0 q -3.01,1.32 -5.05,3.62 v 0 0 q -4.1599998,4.67 -4.1599998,12.1 v 0 0 q 0,7.420003 4.1599998,12.090003 v 0 0 q 4.35,4.93 12.6,4.93 z m 24.26,-40.640003 h 4.8 v 17.79 0 q 1.73,-2.3 4.22,-3.9 v 0 0 q 2.5,-1.6 5.7,-1.6 v 0 0 q 3.2,0 5.5,0.89 v 0 0 q 2.31,0.9 4.04,2.69 v 0 0 q 3.96,3.91 3.96,10.31 v 0 18.620003 h -4.8 v -18.500003 0 q 0,-4.41 -2.49,-7.04 v 0 0 q -2.5,-2.62 -6.47,-2.62 v 0 0 q -4.03,0 -6.84,2.69 v 0 0 q -2.82,2.75 -2.82,7.04 v 0 18.430003 h -4.8 z m 61.180005,44.800003 v -5.12 0 q -3.84,5.63 -11.45,5.63 v 0 0 q -6.910005,0 -11.270005,-4.8 v 0 0 q -4.22,-4.73 -4.22,-11.710003 v 0 0 q 0,-6.98 4.22,-11.71 v 0 0 q 4.36,-4.8 11.590005,-4.8 v 0 0 q 7.23,0 11.13,5.69 v 0 -5.18 h 4.8 v 32.000003 z m -10.81,-3.84 v 0 0 q 5.18,0 8.19,-3.58 v 0 0 q 2.88,-3.4 2.88,-8.580003 v 0 0 q 0,-5.18 -2.88,-8.58 v 0 0 q -3.01,-3.58 -8.19,-3.58 v 0 0 q -5.120005,0 -8.320005,3.58 v 0 0 q -3.01,3.4 -3.01,8.58 v 0 0 q 0,5.180003 3.01,8.580003 v 0 0 q 3.2,3.58 8.320005,3.58 z m 40.51,-28.670003 h 0.32 v 4.8 h -0.58 v 0 q -5.18,0 -8.44,4.16 v 0 0 q -3.08,3.97 -3.08,9.470003 v 0 14.08 h -4.8 V 82.689937 h 4.8 v 7.87 0 q 1.54,-4.99 6.66,-7.36 v 0 0 q 2.11,-1.02 5.12,-1.02 z m 13.76,32.510003 h -4.8 V 86.909937 h -6.53 v -4.22 h 6.53 v -11.46 h 4.8 v 11.46 h 7.36 v 4.22 h -7.36 z m 36.29,-23.420003 h -4.87 v 0 q -0.64,-5 -8.03,-5 v 0 0 q -7.39,0 -7.39,4.61 v 0 0 q 0,1.92 1.57,2.91 v 0 0 q 1.57,1 3.93,1.64 v 0 0 q 2.37,0.64 5.16,1.18 v 0 0 q 2.78,0.54 5.15,1.54 v 0 0 q 2.37,0.99 3.93,2.720003 v 0 0 q 1.57,1.72 1.57,4.73 v 0 0 q 0,4.67 -3.52,7.14 v 0 0 q -3.52,2.46 -9.53,2.46 v 0 0 q -6.4,0 -10.18,-3.2 v 0 0 q -3.46,-2.81 -3.71,-7.36 v 0 h 4.99 v 0 q 0.45,4.42 4.99,5.95 v 0 0 q 1.67,0.52 3.3,0.52 v 0 0 q 1.63,0 3.04,-0.2 v 0 0 q 1.41,-0.19 2.75,-0.7 v 0 0 q 3.07,-1.22 3.07,-4.16 v 0 0 q 0,-1.98 -1.57,-3.04 v 0 0 q -1.56,-1.06 -3.93,-1.73 v 0 0 q -2.37,-0.67 -5.15,-1.21 v 0 0 q -2.79,-0.550003 -5.16,-1.510003 v 0 0 q -2.36,-0.96 -3.93,-2.62 v 0 0 q -1.57,-1.67 -1.57,-4.61 v 0 0 q 0,-4.35 3.17,-6.75 v 0 0 q 3.17,-2.4 9.37,-2.4 v 0 0 q 5.89,0 9.28,2.81 v 0 0 q 2.82,2.37 3.27,6.28 z"
         fill="url(#editing-gradient-gradient)"
         id="path2"
         style="fill:url(#linearGradient4);stroke-width:1.53933" />
    </g>
  </g>
  <style
     id="style3">text {
  font-size: 64px;
  font-family: Arial Black;
  dominant-baseline: central;
  text-anchor: middle;
}</style>
</svg>
