<?xml version="1.0" encoding="UTF-8" standalone="no"?>
<svg
   width="138.16"
   height="36.720001"
   viewBox="112.92001 19.639996 138.16002 36.72"
   preserveAspectRatio="xMidYMid"
   version="1.1"
   id="svg3"
   sodipodi:docname="tables-box-name.svg"
   inkscape:export-filename="tables-box-name.png"
   inkscape:export-xdpi="96"
   inkscape:export-ydpi="96"
   inkscape:version="1.3.2 (091e20e, 2023-11-25, custom)"
   xmlns:inkscape="http://www.inkscape.org/namespaces/inkscape"
   xmlns:sodipodi="http://sodipodi.sourceforge.net/DTD/sodipodi-0.dtd"
   xmlns:xlink="http://www.w3.org/1999/xlink"
   xmlns="http://www.w3.org/2000/svg"
   xmlns:svg="http://www.w3.org/2000/svg">
  <sodipodi:namedview
     id="namedview3"
     pagecolor="#ffffff"
     bordercolor="#000000"
     borderopacity="0.25"
     inkscape:showpageshadow="2"
     inkscape:pageopacity="0.0"
     inkscape:pagecheckerboard="0"
     inkscape:deskcolor="#d1d1d1"
     inkscape:zoom="3.3201326"
     inkscape:cx="70.930902"
     inkscape:cy="58.88319"
     inkscape:window-width="1920"
     inkscape:window-height="1017"
     inkscape:window-x="-8"
     inkscape:window-y="-8"
     inkscape:window-maximized="1"
     inkscape:current-layer="g3" />
  <defs
     id="defs2">
    <linearGradient
       id="linearGradient1"
       inkscape:collect="always">
      <stop
         style="stop-color:#ffffff;stop-opacity:1;"
         offset="0"
         id="stop2" />
      <stop
         style="stop-color:#636363;stop-opacity:1;"
         offset="1"
         id="stop1" />
    </linearGradient>
    <linearGradient
       id="linearGradient18"
       inkscape:collect="always">
      <stop
         style="stop-color:#5d5d5d;stop-opacity:0.01516793;"
         offset="0"
         id="stop18" />
      <stop
         style="stop-color:#fafafa;stop-opacity:0;"
         offset="0.87587589"
         id="stop19" />
    </linearGradient>
    <linearGradient
       inkscape:collect="always"
       xlink:href="#linearGradient18"
       id="linearGradient19"
       x1="158.64001"
       y1="75.510002"
       x2="341.36002"
       y2="75.510002"
       gradientUnits="userSpaceOnUse" />
    <linearGradient
       inkscape:collect="always"
       xlink:href="#linearGradient1"
       id="linearGradient2"
       x1="0.9"
       y1="-22.145"
       x2="183.62"
       y2="-22.145"
       gradientUnits="userSpaceOnUse"
       gradientTransform="translate(-7.7918072,93.796427)" />
  </defs>
  <g
     id="g3"
     style="fill:url(#linearGradient19);stroke-width:1.61809"
     transform="matrix(0.65713605,0,0,0.58121505,14.74412,-7.4043157)">
    <g
       transform="translate(156.36499,99.727853)"
       id="g2"
       style="fill:#000000;stroke-width:1.61809">
      <path
         d="m 35.26,-42.37 v 4.61 H 20.48 V 0 h -4.8 V -37.76 H 0.9 v -4.61 z M 59.01,0 v -5.12 0 Q 55.17,0.51 47.55,0.51 v 0 0 q -6.91,0 -11.26,-4.8 v 0 0 Q 32.06,-9.02 32.06,-16 v 0 0 q 0,-6.98 4.23,-11.71 v 0 0 q 4.35,-4.8 11.58,-4.8 v 0 0 q 7.23,0 11.14,5.69 v 0 -5.18 h 4.8 V 0 Z M 48.19,-3.84 v 0 0 q 5.19,0 8.19,-3.58 v 0 0 q 2.88,-3.4 2.88,-8.58 v 0 0 q 0,-5.18 -2.88,-8.58 v 0 0 q -3,-3.58 -8.19,-3.58 v 0 0 q -5.12,0 -8.32,3.58 v 0 0 q -3.01,3.4 -3.01,8.58 v 0 0 q 0,5.18 3.01,8.58 v 0 0 q 3.2,3.58 8.32,3.58 z M 76.93,-44.8 v 17.98 0 q 3.9,-5.69 11.45,-5.69 v 0 0 q 6.92,0 11.2,4.8 v 0 0 q 4.29,4.73 4.29,11.71 v 0 0 q 0,6.98 -4.29,11.71 v 0 0 q -4.28,4.8 -11.55,4.8 v 0 0 q -7.26,0 -11.1,-5.63 v 0 V 0 h -4.8 v -44.8 z m 10.81,40.96 v 0 0 q 5.12,0 8.32,-3.58 v 0 0 q 3.01,-3.4 3.01,-8.58 v 0 0 q 0,-5.18 -3.01,-8.58 v 0 0 q -3.2,-3.58 -8.32,-3.58 v 0 0 q -5.18,0 -8.19,3.58 v 0 0 q -2.88,3.4 -2.88,8.58 v 0 0 q 0,5.18 2.88,8.58 v 0 0 q 3.01,3.58 8.19,3.58 z m 27.2,-40.96 V 0 h -4.8 v -44.8 z m 22.6,40.96 v 0 0 q 6.46,0 9.28,-5.38 v 0 h 5.24 v 0 q -1.66,4.36 -5.28,7.04 v 0 0 q -3.61,2.69 -9.31,2.69 v 0 0 q -7.23,0 -11.77,-4.8 v 0 0 Q 121.28,-8.96 121.28,-16 v 0 0 q 0,-7.1 4.22,-11.71 v 0 0 q 4.48,-4.8 11.65,-4.8 v 0 0 q 7.17,0 11.65,4.8 v 0 0 q 4.22,4.61 4.22,11.71 v 0 1.92 h -26.81 v 0 q 0.51,4.42 3.52,7.3 v 0 0 q 3.07,2.94 7.81,2.94 z m -0.39,-24.32 v 0 0 q -4.41,0 -7.42,2.75 v 0 0 q -2.82,2.63 -3.46,6.85 v 0 h 21.76 v 0 q -0.64,-4.22 -3.45,-6.85 v 0 0 q -3.01,-2.75 -7.43,-2.75 z m 45.44,4.74 h -4.86 v 0 q -0.64,-5 -8.03,-5 v 0 0 q -7.4,0 -7.4,4.61 v 0 0 q 0,1.92 1.57,2.91 v 0 0 q 1.57,1 3.94,1.64 v 0 0 q 2.37,0.64 5.15,1.18 v 0 0 q 2.78,0.54 5.15,1.54 v 0 0 q 2.37,0.99 3.94,2.72 v 0 0 q 1.57,1.72 1.57,4.73 v 0 0 q 0,4.67 -3.52,7.14 v 0 0 q -3.52,2.46 -9.54,2.46 v 0 0 q -6.4,0 -10.18,-3.2 v 0 0 q -3.45,-2.81 -3.71,-7.36 v 0 h 4.99 v 0 q 0.45,4.42 5,5.95 v 0 0 q 1.66,0.52 3.29,0.52 v 0 0 q 1.63,0 3.04,-0.2 v 0 0 q 1.41,-0.19 2.75,-0.7 v 0 0 q 3.08,-1.22 3.08,-4.16 v 0 0 q 0,-1.98 -1.57,-3.04 v 0 0 q -1.57,-1.06 -3.94,-1.73 v 0 0 q -2.37,-0.67 -5.15,-1.21 v 0 0 q -2.78,-0.55 -5.15,-1.51 v 0 0 q -2.37,-0.96 -3.94,-2.62 v 0 0 q -1.57,-1.67 -1.57,-4.61 v 0 0 q 0,-4.35 3.17,-6.75 v 0 0 q 3.17,-2.4 9.38,-2.4 v 0 0 q 5.89,0 9.28,2.81 v 0 0 q 2.81,2.37 3.26,6.28 z"
         fill="url(#editing-gradient-gradient)"
         id="path2"
         style="fill:url(#linearGradient2);stroke:none;stroke-width:1.61809" />
    </g>
  </g>
  <style
     id="style3">text {
  font-size: 64px;
  font-family: Arial Black;
  dominant-baseline: central;
  text-anchor: middle;
}</style>
</svg>
