<?xml version="1.0" encoding="UTF-8" standalone="no"?>
<svg
   width="469.44"
   height="95.239998"
   viewBox="22.279999 19.380005 469.44 95.24"
   preserveAspectRatio="xMidYMid"
   version="1.1"
   id="svg3"
   sodipodi:docname="inquiry-app-text.svg"
   inkscape:version="1.3.2 (091e20e, 2023-11-25, custom)"
   xmlns:inkscape="http://www.inkscape.org/namespaces/inkscape"
   xmlns:sodipodi="http://sodipodi.sourceforge.net/DTD/sodipodi-0.dtd"
   xmlns:xlink="http://www.w3.org/1999/xlink"
   xmlns="http://www.w3.org/2000/svg"
   xmlns:svg="http://www.w3.org/2000/svg">
  <sodipodi:namedview
     id="namedview3"
     pagecolor="#ffffff"
     bordercolor="#000000"
     borderopacity="0.25"
     inkscape:showpageshadow="2"
     inkscape:pageopacity="0.0"
     inkscape:pagecheckerboard="0"
     inkscape:deskcolor="#d1d1d1"
     inkscape:zoom="0.79154225"
     inkscape:cx="287.41359"
     inkscape:cy="52.429292"
     inkscape:window-width="1920"
     inkscape:window-height="1017"
     inkscape:window-x="-8"
     inkscape:window-y="-8"
     inkscape:window-maximized="1"
     inkscape:current-layer="svg3" />
  <defs
     id="defs2">
    <linearGradient
       id="linearGradient1"
       inkscape:collect="always">
      <stop
         style="stop-color:#ffffff;stop-opacity:1;"
         offset="0.26326326"
         id="stop5" />
      <stop
         style="stop-color:#a0a0a0;stop-opacity:0.45336482;"
         offset="1"
         id="stop6" />
    </linearGradient>
    <linearGradient
       id="editing-gradient-gradient"
       x1="0"
       x2="1"
       y1="0.5"
       y2="0.5"
       gradientUnits="objectBoundingBox">
      <stop
         offset="0"
         stop-color="#f0f"
         id="stop1" />
      <stop
         offset="1"
         stop-color="#0ff"
         id="stop2" />
    </linearGradient>
    <linearGradient
       inkscape:collect="always"
       xlink:href="#linearGradient1"
       id="linearGradient6"
       x1="86.891548"
       y1="195.0553"
       x2="399.21155"
       y2="195.0553"
       gradientUnits="userSpaceOnUse"
       gradientTransform="matrix(0.80208588,0,0,0.74823623,8.0771832,161.12462)" />
    <linearGradient
       inkscape:collect="always"
       xlink:href="#linearGradient1"
       id="linearGradient7"
       gradientUnits="userSpaceOnUse"
       x1="86.891548"
       y1="195.0553"
       x2="399.21155"
       y2="195.0553"
       gradientTransform="matrix(0.80208588,0,0,0.74823623,-9.7093618,135.15267)" />
    <linearGradient
       inkscape:collect="always"
       xlink:href="#linearGradient1"
       id="linearGradient8"
       gradientUnits="userSpaceOnUse"
       x1="86.891548"
       y1="195.0553"
       x2="399.21155"
       y2="195.0553"
       gradientTransform="matrix(0.80208588,0,0,0.74823623,-9.7093618,135.15267)" />
  </defs>
  <g
     id="g3"
     style="fill:url(#linearGradient6);stroke-width:0.774694"
     transform="matrix(1.2467493,0,0,1.3364763,-50.497629,-196.38889)">
    <g
       transform="translate(89.870012,103.16)"
       id="g2"
       style="fill:url(#linearGradient8);stroke-width:0.774694">
      <path
         d="M -2.7884605,107.3853 V 75.385299 h 4.8 V 107.3853 Z m -0.19,-43.650001 h 5.18 v 6.27 h -5.18 z m 13.3099995,11.65 h 4.8 v 4.99 0 q 1.73,-2.3 4.22,-3.9 v 0 0 q 2.5,-1.6 5.7,-1.6 v 0 0 q 3.2,0 5.5,0.89 v 0 0 q 2.31,0.9 4.04,2.69 v 0 0 q 3.96,3.91 3.96,10.31 v 0 18.620001 h -4.8 v -18.500001 0 q 0,-4.41 -2.49,-7.04 v 0 0 q -2.5,-2.62 -6.47,-2.62 v 0 0 q -4.03,0 -6.84,2.69 v 0 0 q -2.82,2.75 -2.82,7.04 v 0 18.430001 h -4.8 z m 61.18,44.670001 v -17.85 0 q -3.9,5.69 -11.45,5.69 v 0 0 q -6.91,0 -11.27,-4.8 v 0 0 q -4.22,-4.730001 -4.22,-11.710001 v 0 0 q 0,-6.98 4.22,-11.71 v 0 0 q 4.36,-4.8 11.62,-4.8 v 0 0 q 7.26,0 11.1,5.63 v 0 -5.12 h 4.8 V 120.0553 Z m -10.81,-40.830001 v 0 0 q -5.12,0 -8.32,3.58 v 0 0 q -3.01,3.4 -3.01,8.58 v 0 0 q 0,5.18 3.01,8.58 v 0 0 q 3.2,3.580001 8.32,3.580001 v 0 0 q 5.18,0 8.19,-3.580001 v 0 0 q 2.88,-3.4 2.88,-8.58 v 0 0 q 0,-5.18 -2.88,-8.58 v 0 0 q -3.01,-3.58 -8.19,-3.58 z M 112.54154,107.3853 h -4.8 v -4.99 0 q -1.73,2.3 -4.23,3.9 v 0 0 q -2.49,1.6 -5.690001,1.6 v 0 0 q -3.2,0 -5.51,-0.89 v 0 0 q -2.3,-0.9 -4.03,-2.69 v 0 0 q -3.97,-3.91 -3.97,-10.310001 v 0 -18.62 h 4.8 v 18.5 0 q 0,4.41 2.5,7.040001 v 0 0 q 2.5,2.62 6.46,2.62 v 0 0 q 4.040001,0 6.850001,-2.69 v 0 0 q 2.82,-2.750001 2.82,-7.040001 v 0 -18.43 h 4.8 z m 8.32,0 V 75.385299 h 4.8 V 107.3853 Z m -0.19,-43.650001 h 5.18 v 6.27 h -5.18 z m 29.88,11.14 h 0.32 v 4.8 h -0.57 v 0 q -5.19,0 -8.45,4.16 v 0 0 q -3.07,3.97 -3.07,9.47 v 0 14.080001 h -4.8 V 75.385299 h 4.8 v 7.87 0 q 1.53,-4.99 6.65,-7.36 v 0 0 q 2.12,-1.02 5.12,-1.02 z m 32.96,0.51 -18.94,44.670001 h -5.18 l 5.82,-13.12 -13.06,-31.550001 h 5.32 l 10.3,26.240001 10.5,-26.240001 z m 42.95,32.000001 v -5.12 0 q -3.84,5.63 -11.46,5.63 v 0 0 q -6.91,0 -11.26,-4.8 v 0 0 q -4.23,-4.730001 -4.23,-11.710001 v 0 0 q 0,-6.98 4.23,-11.71 v 0 0 q 4.35,-4.8 11.58,-4.8 v 0 0 q 7.23,0 11.14,5.69 v 0 -5.18 h 4.8 V 107.3853 Z m -10.82,-3.84 v 0 0 q 5.19,0 8.19,-3.580001 v 0 0 q 2.88,-3.4 2.88,-8.58 v 0 0 q 0,-5.18 -2.88,-8.58 v 0 0 q -3,-3.58 -8.19,-3.58 v 0 0 q -5.12,0 -8.32,3.58 v 0 0 q -3.01,3.4 -3.01,8.58 v 0 0 q 0,5.18 3.01,8.58 v 0 0 q 3.2,3.580001 8.32,3.580001 z m 28.74,-28.160001 v 5.12 0 q 3.84,-5.63 11.45,-5.63 v 0 0 q 6.92,0 11.2,4.8 v 0 0 q 4.29,4.73 4.29,11.71 v 0 0 q 0,6.98 -4.29,11.710001 v 0 0 q -4.28,4.8 -11.52,4.8 v 0 0 q -7.23,0 -11.13,-5.69 v 0 17.85 h -4.8 V 75.385299 Z m 10.81,3.84 v 0 0 q -5.18,0 -8.19,3.58 v 0 0 q -2.88,3.4 -2.88,8.58 v 0 0 q 0,5.18 2.88,8.58 v 0 0 q 3.01,3.580001 8.19,3.580001 v 0 0 q 5.12,0 8.32,-3.580001 v 0 0 q 3.01,-3.4 3.01,-8.58 v 0 0 q 0,-5.18 -3.01,-8.58 v 0 0 q -3.2,-3.58 -8.32,-3.58 z m 27.2,-3.84 v 5.12 0 q 3.84,-5.63 11.46,-5.63 v 0 0 q 6.91,0 11.2,4.8 v 0 0 q 4.29,4.73 4.29,11.71 v 0 0 q 0,6.98 -4.29,11.710001 v 0 0 q -4.29,4.8 -11.52,4.8 v 0 0 q -7.23,0 -11.14,-5.69 v 0 17.85 h -4.8 V 75.385299 Z m 10.82,3.84 v 0 0 q -5.18,0 -8.19,3.58 v 0 0 q -2.88,3.4 -2.88,8.58 v 0 0 q 0,5.18 2.88,8.58 v 0 0 q 3.01,3.580001 8.19,3.580001 v 0 0 q 5.12,0 8.32,-3.580001 v 0 0 q 3.01,-3.4 3.01,-8.58 v 0 0 q 0,-5.18 -3.01,-8.58 v 0 0 q -3.2,-3.58 -8.32,-3.58 z"
         fill="url(#editing-gradient-gradient)"
         id="path2"
         style="fill:url(#linearGradient7);stroke-width:0.774694" />
    </g>
  </g>
  <style
     id="style3">text {
  font-size: 64px;
  font-family: Arial Black;
  dominant-baseline: central;
  text-anchor: middle;
}</style>
</svg>
