<?xml version="1.0" encoding="UTF-8" standalone="no"?>
<!-- Created with Inkscape (http://www.inkscape.org/) -->

<svg
   width="210mm"
   height="219mm"
   viewBox="0 0 210 219"
   version="1.1"
   id="svg1"
   inkscape:version="1.3.2 (091e20e, 2023-11-25, custom)"
   sodipodi:docname="user-register.svg"
   xmlns:inkscape="http://www.inkscape.org/namespaces/inkscape"
   xmlns:sodipodi="http://sodipodi.sourceforge.net/DTD/sodipodi-0.dtd"
   xmlns="http://www.w3.org/2000/svg"
   xmlns:svg="http://www.w3.org/2000/svg">
  <sodipodi:namedview
     id="namedview1"
     pagecolor="#ffffff"
     bordercolor="#000000"
     borderopacity="0.25"
     inkscape:showpageshadow="2"
     inkscape:pageopacity="0.0"
     inkscape:pagecheckerboard="0"
     inkscape:deskcolor="#d1d1d1"
     inkscape:document-units="mm"
     inkscape:zoom="0.18284758"
     inkscape:cx="314.46957"
     inkscape:cy="412.91222"
     inkscape:window-width="1920"
     inkscape:window-height="1017"
     inkscape:window-x="-8"
     inkscape:window-y="-8"
     inkscape:window-maximized="1"
     inkscape:current-layer="layer1" />
  <defs
     id="defs1">
    <filter
       inkscape:collect="always"
       style="color-interpolation-filters:sRGB"
       id="filter1"
       x="-0.13026124"
       y="-0.11573355"
       width="1.2604615"
       height="1.2315213">
      <feGaussianBlur
         inkscape:collect="always"
         stdDeviation="5.9795964"
         id="feGaussianBlur1" />
    </filter>
  </defs>
  <g
     inkscape:label="Warstwa 1"
     inkscape:groupmode="layer"
     id="layer1">
    <path
       d="m 175.3553,165.85532 h -52.91665 m 26.45832,-26.45834 v 52.91667 M 66.71855,130.57754 c 8.38121,5.57212 18.44199,8.81944 29.260876,8.81944 6.185084,0 12.122334,-1.06098 17.639774,-3.01095 M 91.5706,192.31365 H 48.355319 c -4.939329,0 -7.409039,0 -9.295609,-0.96132 -1.65946,-0.84578 -3.00866,-2.19428 -3.85427,-3.8541 -0.96123,-1.88648 -0.96123,-4.35592 -0.96123,-9.29569 v -21.16667 c 0,-14.61294 11.84584,-26.45833 26.458335,-26.45833 h 4.40972 M 131.25809,68.841454 c 0,19.48339 -15.79474,35.277776 -35.277784,35.277776 -19.483376,0 -35.277761,-15.794386 -35.277761,-35.277776 0,-19.48338 15.794385,-35.27777 35.277761,-35.27777 19.483044,0 35.277784,15.79439 35.277784,35.27777 z"
       stroke="#ffffff"
       stroke-width="8.04333"
       stroke-linecap="round"
       stroke-linejoin="round"
       id="path1"
       style="mix-blend-mode:normal;fill:none;filter:url(#filter1)" />
  </g>
</svg>
