<?xml version="1.0" encoding="UTF-8" standalone="no"?>
<!-- Uploaded to: SVG Repo, www.svgrepo.com, Transformed by: SVG Repo Mixer Tools -->

<svg
   fill="#000000"
   width="51"
   height="62"
   viewBox="0 -8 4.59 5.58"
   id="Layer_1"
   data-name="Layer 1"
   version="1.1"
   sodipodi:docname="tables.svg"
   inkscape:export-filename="tables.svg"
   inkscape:export-xdpi="96"
   inkscape:export-ydpi="96"
   inkscape:version="1.3.2 (091e20e, 2023-11-25, custom)"
   xmlns:inkscape="http://www.inkscape.org/namespaces/inkscape"
   xmlns:sodipodi="http://sodipodi.sourceforge.net/DTD/sodipodi-0.dtd"
   xmlns="http://www.w3.org/2000/svg"
   xmlns:svg="http://www.w3.org/2000/svg">
  <defs
     id="defs1" />
  <sodipodi:namedview
     id="namedview1"
     pagecolor="#ffffff"
     bordercolor="#000000"
     borderopacity="0.25"
     inkscape:showpageshadow="2"
     inkscape:pageopacity="0.0"
     inkscape:pagecheckerboard="0"
     inkscape:deskcolor="#d1d1d1"
     inkscape:zoom="4.105"
     inkscape:cx="63.946407"
     inkscape:cy="60.048721"
     inkscape:window-width="1920"
     inkscape:window-height="1017"
     inkscape:window-x="-8"
     inkscape:window-y="-8"
     inkscape:window-maximized="1"
     inkscape:current-layer="Layer_1" />
  <g
     id="SVGRepo_bgCarrier"
     stroke-width="0" />
  <g
     id="SVGRepo_tracerCarrier"
     stroke-linecap="round"
     stroke-linejoin="round" />
  <g
     id="SVGRepo_iconCarrier"
     transform="matrix(0.07416348,0,0,0.07533976,-0.74171894,-7.4733101)"
     style="fill:#ececec;stroke:#ececec">
    <title
       id="title1">tables</title>
    <path
       d="M 47.67,16.27 H 14.22 a 2,2 0 0 0 -2,2 v 31.05 a 2,2 0 0 0 2,2 h 33.45 a 2,2 0 0 0 2,-2 V 18.25 a 2,2 0 0 0 -2,-1.98 z M 19.29,48.93 h -5.46 v -4.64 h 5.46 z m 0,-5.83 h -5.46 v -5.92 h 5.46 z m 0,-7.11 h -5.46 v -5.53 h 5.46 z m 0,-6.71 h -5.46 v -4.84 h 5.46 z M 27,48.93 H 20.48 V 44.29 H 27 Z M 27,43.1 H 20.48 V 37.18 H 27 Z M 27,36 H 20.48 V 30.46 H 27 Z m 0,-6.71 H 20.48 V 24.44 H 27 v 4.84 z m 7.11,19.65 h -5.93 v -4.65 h 5.93 v 4.64 z m 0,-5.83 h -5.93 v -5.93 h 5.93 v 5.92 z m 0,-7.11 h -5.93 v -5.54 h 5.93 z m 0,-6.71 h -5.93 v -4.85 h 5.93 v 4.84 z m 6.71,19.65 h -5.53 v -4.65 h 5.53 z m 0,-5.83 h -5.53 v -5.93 h 5.53 z m 0,-7.11 h -5.53 v -5.54 h 5.53 z m 0,-6.71 h -5.53 v -4.85 h 5.53 z m 7.25,19.65 H 42 v -4.65 h 6.06 z m 0,-5.83 H 42 v -5.93 h 6.06 z m 0,-7.11 H 42 v -5.54 h 6.06 z m 0,-6.71 H 42 v -4.85 h 6.06 z M 57.78,4.7 H 24.33 a 2,2 0 0 0 -2,2 v 8.51 h 1.59 v -2.35 h 5.48 v 2.33 h 1.19 v -2.33 h 6.51 v 2.33 h 1.19 v -2.33 h 5.92 v 2.33 h 1.19 v -2.33 h 5.53 v 4.84 h -0.22 a 3.58,3.58 0 0 1 0.15,1 v 0.15 h 0.07 v 5.53 h -0.07 v 1.22 h 0.07 v 5.93 h -0.07 v 1.18 h 0.07 v 4.65 h -0.07 v 2.37 h 6.92 a 2,2 0 0 0 2,-2 V 6.68 a 2,2 0 0 0 -2,-1.98 z m 0.39,32.66 h -6.06 v -4.65 h 6.06 z m 0,-5.83 H 52.11 V 25.6 h 6.06 z m 0,-7.11 h -6.06 v -5.53 h 6.06 z m 0,-6.72 h -6.06 v -4.84 h 6.06 z"
       id="path1"
       style="fill:#ececec;stroke:#ececec" />
  </g>
</svg>
