<svg width="1383.4200195312499px" height="114.40000610351562px" xmlns="http://www.w3.org/2000/svg" viewBox="-441.71000976562493 17.79999694824219 1383.4200195312499 114.40000610351562" style="background: none;" preserveAspectRatio="xMidYMid"><defs><linearGradient id="editing-gradient-gradient" x1="0" x2="1" y1="0.5" y2="0.5" gradientUnits="objectBoundingBox"><stop offset="0" stop-color="#f0f"></stop><stop offset="1" stop-color="#0ff"></stop></linearGradient></defs><g><g transform="translate(-250.350013256073, 103.99000358581543)"><path d="M9.98-15.10L9.98 0L5.18 0L5.18-42.37L24.26-42.37L24.26-42.37Q30.98-42.37 34.94-38.66L34.94-38.66L34.94-38.66Q38.85-34.94 38.85-28.74L38.85-28.74L38.85-28.74Q38.85-22.46 34.91-18.78L34.91-18.78L34.91-18.78Q30.98-15.10 24.26-15.10L24.26-15.10L9.98-15.10ZM23.94-37.82L9.98-37.82L9.98-19.58L23.94-19.58L23.94-19.58Q28.93-19.58 31.49-22.02L31.49-22.02L31.49-22.02Q34.05-24.45 34.05-28.70L34.05-28.70L34.05-28.70Q34.05-32.96 31.49-35.39L31.49-35.39L31.49-35.39Q28.93-37.82 23.94-37.82L23.94-37.82ZM49.15-44.80L49.15 0L44.35 0L44.35-44.80L49.15-44.80ZM71.74-3.84L71.74-3.84L71.74-3.84Q78.21-3.84 81.02-9.22L81.02-9.22L86.27-9.22L86.27-9.22Q84.61-4.86 80.99-2.18L80.99-2.18L80.99-2.18Q77.38 0.51 71.68 0.51L71.68 0.51L71.68 0.51Q64.45 0.51 59.90-4.29L59.90-4.29L59.90-4.29Q55.49-8.96 55.49-16L55.49-16L55.49-16Q55.49-23.10 59.71-27.71L59.71-27.71L59.71-27.71Q64.19-32.51 71.36-32.51L71.36-32.51L71.36-32.51Q78.53-32.51 83.01-27.71L83.01-27.71L83.01-27.71Q87.23-23.10 87.23-16L87.23-16L87.23-14.08L60.42-14.08L60.42-14.08Q60.93-9.66 63.94-6.78L63.94-6.78L63.94-6.78Q67.01-3.84 71.74-3.84ZM71.36-28.16L71.36-28.16L71.36-28.16Q66.94-28.16 63.94-25.41L63.94-25.41L63.94-25.41Q61.12-22.78 60.48-18.56L60.48-18.56L82.24-18.56L82.24-18.56Q81.60-22.78 78.78-25.41L78.78-25.41L78.78-25.41Q75.78-28.16 71.36-28.16ZM118.08 0L118.08-5.12L118.08-5.12Q114.24 0.51 106.62 0.51L106.62 0.51L106.62 0.51Q99.71 0.51 95.36-4.29L95.36-4.29L95.36-4.29Q91.14-9.02 91.14-16L91.14-16L91.14-16Q91.14-22.98 95.36-27.71L95.36-27.71L95.36-27.71Q99.71-32.51 106.94-32.51L106.94-32.51L106.94-32.51Q114.18-32.51 118.08-26.82L118.08-26.82L118.08-32L122.88-32L122.88 0L118.08 0ZM107.26-3.84L107.26-3.84L107.26-3.84Q112.45-3.84 115.46-7.42L115.46-7.42L115.46-7.42Q118.34-10.82 118.34-16L118.34-16L118.34-16Q118.34-21.18 115.46-24.58L115.46-24.58L115.46-24.58Q112.45-28.16 107.26-28.16L107.26-28.16L107.26-28.16Q102.14-28.16 98.94-24.58L98.94-24.58L98.94-24.58Q95.94-21.18 95.94-16L95.94-16L95.94-16Q95.94-10.82 98.94-7.42L98.94-7.42L98.94-7.42Q102.14-3.84 107.26-3.84ZM154.88-23.42L150.02-23.42L150.02-23.42Q149.38-28.42 141.98-28.42L141.98-28.42L141.98-28.42Q134.59-28.42 134.59-23.81L134.59-23.81L134.59-23.81Q134.59-21.89 136.16-20.90L136.16-20.90L136.16-20.90Q137.73-19.90 140.10-19.26L140.10-19.26L140.10-19.26Q142.46-18.62 145.25-18.08L145.25-18.08L145.25-18.08Q148.03-17.54 150.40-16.54L150.40-16.54L150.40-16.54Q152.77-15.55 154.34-13.82L154.34-13.82L154.34-13.82Q155.90-12.10 155.90-9.09L155.90-9.09L155.90-9.09Q155.90-4.42 152.38-1.95L152.38-1.95L152.38-1.95Q148.86 0.51 142.85 0.51L142.85 0.51L142.85 0.51Q136.45 0.51 132.67-2.69L132.67-2.69L132.67-2.69Q129.22-5.50 128.96-10.05L128.96-10.05L133.95-10.05L133.95-10.05Q134.40-5.63 138.94-4.10L138.94-4.10L138.94-4.10Q140.61-3.58 142.24-3.58L142.24-3.58L142.24-3.58Q143.87-3.58 145.28-3.78L145.28-3.78L145.28-3.78Q146.69-3.97 148.03-4.48L148.03-4.48L148.03-4.48Q151.10-5.70 151.10-8.64L151.10-8.64L151.10-8.64Q151.10-10.62 149.54-11.68L149.54-11.68L149.54-11.68Q147.97-12.74 145.60-13.41L145.60-13.41L145.60-13.41Q143.23-14.08 140.45-14.62L140.45-14.62L140.45-14.62Q137.66-15.17 135.30-16.13L135.30-16.13L135.30-16.13Q132.93-17.09 131.36-18.75L131.36-18.75L131.36-18.75Q129.79-20.42 129.79-23.36L129.79-23.36L129.79-23.36Q129.79-27.71 132.96-30.11L132.96-30.11L132.96-30.11Q136.13-32.51 142.34-32.51L142.34-32.51L142.34-32.51Q148.22-32.51 151.62-29.70L151.62-29.70L151.62-29.70Q154.43-27.33 154.88-23.42L154.88-23.42ZM176.32-3.84L176.32-3.84L176.32-3.84Q182.78-3.84 185.60-9.22L185.60-9.22L190.85-9.22L190.85-9.22Q189.18-4.86 185.57-2.18L185.57-2.18L185.57-2.18Q181.95 0.51 176.26 0.51L176.26 0.51L176.26 0.51Q169.02 0.51 164.48-4.29L164.48-4.29L164.48-4.29Q160.06-8.96 160.06-16L160.06-16L160.06-16Q160.06-23.10 164.29-27.71L164.29-27.71L164.29-27.71Q168.77-32.51 175.94-32.51L175.94-32.51L175.94-32.51Q183.10-32.51 187.58-27.71L187.58-27.71L187.58-27.71Q191.81-23.10 191.81-16L191.81-16L191.81-14.08L164.99-14.08L164.99-14.08Q165.50-9.66 168.51-6.78L168.51-6.78L168.51-6.78Q171.58-3.84 176.32-3.84ZM175.94-28.16L175.94-28.16L175.94-28.16Q171.52-28.16 168.51-25.41L168.51-25.41L168.51-25.41Q165.70-22.78 165.06-18.56L165.06-18.56L186.82-18.56L186.82-18.56Q186.18-22.78 183.36-25.41L183.36-25.41L183.36-25.41Q180.35-28.16 175.94-28.16ZM236.29-26.88L236.29-26.88L236.29-32L241.09-32L241.09-0.96L241.09-0.96Q241.09 5.95 237.15 9.57L237.15 9.57L237.15 9.57Q233.22 13.18 226.56 13.18L226.56 13.18L226.56 13.18Q219.90 13.18 216.16 10.62L216.16 10.62L216.16 10.62Q212.42 8.06 211.07 3.84L211.07 3.84L216.38 3.84L216.38 3.84Q218.43 8.83 225.73 8.83L225.73 8.83L225.73 8.83Q231.30 8.83 233.79 6.27L233.79 6.27L233.79 6.27Q236.29 3.71 236.29-1.28L236.29-1.28L236.29-5.70L236.29-5.70Q232.38 0 224.83 0L224.83 0L224.83 0Q217.92 0 213.57-4.74L213.57-4.74L213.57-4.74Q209.34-9.34 209.34-16.26L209.34-16.26L209.34-16.26Q209.34-23.17 213.57-27.78L213.57-27.78L213.57-27.78Q217.92-32.51 225.18-32.51L225.18-32.51L225.18-32.51Q232.45-32.51 236.29-26.88ZM225.47-4.35L225.47-4.35L225.47-4.35Q228.10-4.35 230.14-5.28L230.14-5.28L230.14-5.28Q232.19-6.21 233.66-7.81L233.66-7.81L233.66-7.81Q236.54-11.14 236.54-16.26L236.54-16.26L236.54-16.26Q236.54-21.38 233.66-24.70L233.66-24.70L233.66-24.70Q230.53-28.16 225.47-28.16L225.47-28.16L225.47-28.16Q220.29-28.16 217.15-24.70L217.15-24.70L217.15-24.70Q214.14-21.31 214.14-16.26L214.14-16.26L214.14-16.26Q214.14-11.20 217.15-7.81L217.15-7.81L217.15-7.81Q220.29-4.35 225.47-4.35ZM263.30-32.51L263.30-32.51L263.30-32.51Q270.46-32.51 274.94-27.71L274.94-27.71L274.94-27.71Q279.17-23.10 279.17-16L279.17-16L279.17-16Q279.17-8.90 274.94-4.29L274.94-4.29L274.94-4.29Q270.46 0.51 263.30 0.51L263.30 0.51L263.30 0.51Q256.13 0.51 251.65-4.29L251.65-4.29L251.65-4.29Q247.42-8.90 247.42-16L247.42-16L247.42-16Q247.42-23.10 251.65-27.71L251.65-27.71L251.65-27.71Q256.13-32.51 263.30-32.51ZM263.30-3.84L263.30-3.84L263.30-3.84Q268.48-3.84 271.49-7.42L271.49-7.42L271.49-7.42Q274.37-10.82 274.37-16L274.37-16L274.37-16Q274.37-21.18 271.49-24.58L271.49-24.58L271.49-24.58Q268.48-28.16 263.30-28.16L263.30-28.16L263.30-28.16Q258.11-28.16 255.10-24.58L255.10-24.58L255.10-24.58Q252.22-21.18 252.22-16L252.22-16L252.22-16Q252.22-10.82 255.10-7.42L255.10-7.42L255.10-7.42Q258.11-3.84 263.30-3.84ZM307.39 0L302.59 0L302.59-27.78L296.06-27.78L296.06-32L302.59-32L302.59-43.46L307.39-43.46L307.39-32L314.75-32L314.75-27.78L307.39-27.78L307.39 0ZM333.25-32.51L333.25-32.51L333.25-32.51Q340.42-32.51 344.90-27.71L344.90-27.71L344.90-27.71Q349.12-23.10 349.12-16L349.12-16L349.12-16Q349.12-8.90 344.90-4.29L344.90-4.29L344.90-4.29Q340.42 0.51 333.25 0.51L333.25 0.51L333.25 0.51Q326.08 0.51 321.60-4.29L321.60-4.29L321.60-4.29Q317.38-8.90 317.38-16L317.38-16L317.38-16Q317.38-23.10 321.60-27.71L321.60-27.71L321.60-27.71Q326.08-32.51 333.25-32.51ZM333.25-3.84L333.25-3.84L333.25-3.84Q338.43-3.84 341.44-7.42L341.44-7.42L341.44-7.42Q344.32-10.82 344.32-16L344.32-16L344.32-16Q344.32-21.18 341.44-24.58L341.44-24.58L341.44-24.58Q338.43-28.16 333.25-28.16L333.25-28.16L333.25-28.16Q328.06-28.16 325.06-24.58L325.06-24.58L325.06-24.58Q322.18-21.18 322.18-16L322.18-16L322.18-16Q322.18-10.82 325.06-7.42L325.06-7.42L325.06-7.42Q328.06-3.84 333.25-3.84ZM373.89-44.80L373.89 0L369.09 0L369.09-44.80L373.89-44.80ZM396.10-32.51L396.10-32.51L396.10-32.51Q403.26-32.51 407.74-27.71L407.74-27.71L407.74-27.71Q411.97-23.10 411.97-16L411.97-16L411.97-16Q411.97-8.90 407.74-4.29L407.74-4.29L407.74-4.29Q403.26 0.51 396.10 0.51L396.10 0.51L396.10 0.51Q388.93 0.51 384.45-4.29L384.45-4.29L384.45-4.29Q380.22-8.90 380.22-16L380.22-16L380.22-16Q380.22-23.10 384.45-27.71L384.45-27.71L384.45-27.71Q388.93-32.51 396.10-32.51ZM396.10-3.84L396.10-3.84L396.10-3.84Q401.28-3.84 404.29-7.42L404.29-7.42L404.29-7.42Q407.17-10.82 407.17-16L407.17-16L407.17-16Q407.17-21.18 404.29-24.58L404.29-24.58L404.29-24.58Q401.28-28.16 396.10-28.16L396.10-28.16L396.10-28.16Q390.91-28.16 387.90-24.58L387.90-24.58L387.90-24.58Q385.02-21.18 385.02-16L385.02-16L385.02-16Q385.02-10.82 387.90-7.42L387.90-7.42L387.90-7.42Q390.91-3.84 396.10-3.84ZM443.26-26.88L443.26-26.88L443.26-32L448.06-32L448.06-0.96L448.06-0.96Q448.06 5.95 444.13 9.57L444.13 9.57L444.13 9.57Q440.19 13.18 433.54 13.18L433.54 13.18L433.54 13.18Q426.88 13.18 423.14 10.62L423.14 10.62L423.14 10.62Q419.39 8.06 418.05 3.84L418.05 3.84L423.36 3.84L423.36 3.84Q425.41 8.83 432.70 8.83L432.70 8.83L432.70 8.83Q438.27 8.83 440.77 6.27L440.77 6.27L440.77 6.27Q443.26 3.71 443.26-1.28L443.26-1.28L443.26-5.70L443.26-5.70Q439.36 0 431.81 0L431.81 0L431.81 0Q424.90 0 420.54-4.74L420.54-4.74L420.54-4.74Q416.32-9.34 416.32-16.26L416.32-16.26L416.32-16.26Q416.32-23.17 420.54-27.78L420.54-27.78L420.54-27.78Q424.90-32.51 432.16-32.51L432.16-32.51L432.16-32.51Q439.42-32.51 443.26-26.88ZM432.45-4.35L432.45-4.35L432.45-4.35Q435.07-4.35 437.12-5.28L437.12-5.28L437.12-5.28Q439.17-6.21 440.64-7.81L440.64-7.81L440.64-7.81Q443.52-11.14 443.52-16.26L443.52-16.26L443.52-16.26Q443.52-21.38 440.64-24.70L440.64-24.70L440.64-24.70Q437.50-28.16 432.45-28.16L432.45-28.16L432.45-28.16Q427.26-28.16 424.13-24.70L424.13-24.70L424.13-24.70Q421.12-21.31 421.12-16.26L421.12-16.26L421.12-16.26Q421.12-11.20 424.13-7.81L424.13-7.81L424.13-7.81Q427.26-4.35 432.45-4.35ZM456.38 0L456.38-32L461.18-32L461.18 0L456.38 0ZM456.19-43.65L461.38-43.65L461.38-37.38L456.19-37.38L456.19-43.65ZM469.50-32L474.30-32L474.30-27.01L474.30-27.01Q476.03-29.31 478.53-30.91L478.53-30.91L478.53-30.91Q481.02-32.51 484.22-32.51L484.22-32.51L484.22-32.51Q487.42-32.51 489.73-31.62L489.73-31.62L489.73-31.62Q492.03-30.72 493.76-28.93L493.76-28.93L493.76-28.93Q497.73-25.02 497.73-18.62L497.73-18.62L497.73 0L492.93 0L492.93-18.50L492.93-18.50Q492.93-22.91 490.43-25.54L490.43-25.54L490.43-25.54Q487.94-28.16 483.97-28.16L483.97-28.16L483.97-28.16Q479.94-28.16 477.12-25.47L477.12-25.47L477.12-25.47Q474.30-22.72 474.30-18.43L474.30-18.43L474.30 0L469.50 0L469.50-32ZM524.16-32L524.16-26.88L524.16-26.88Q528.00-32.51 535.62-32.51L535.62-32.51L535.62-32.51Q542.53-32.51 546.82-27.71L546.82-27.71L546.82-27.71Q551.10-22.98 551.10-16L551.10-16L551.10-16Q551.10-9.02 546.82-4.29L546.82-4.29L546.82-4.29Q542.53 0.51 535.30 0.51L535.30 0.51L535.30 0.51Q528.06 0.51 524.16-5.18L524.16-5.18L524.16 12.67L519.36 12.67L519.36-32L524.16-32ZM534.98-28.16L534.98-28.16L534.98-28.16Q529.79-28.16 526.78-24.58L526.78-24.58L526.78-24.58Q523.90-21.18 523.90-16L523.90-16L523.90-16Q523.90-10.82 526.78-7.42L526.78-7.42L526.78-7.42Q529.79-3.84 534.98-3.84L534.98-3.84L534.98-3.84Q540.10-3.84 543.30-7.42L543.30-7.42L543.30-7.42Q546.30-10.82 546.30-16L546.30-16L546.30-16Q546.30-21.18 543.30-24.58L543.30-24.58L543.30-24.58Q540.10-28.16 534.98-28.16ZM582.34 0L582.34-5.12L582.34-5.12Q578.50 0.51 570.88 0.51L570.88 0.51L570.88 0.51Q563.97 0.51 559.62-4.29L559.62-4.29L559.62-4.29Q555.39-9.02 555.39-16L555.39-16L555.39-16Q555.39-22.98 559.62-27.71L559.62-27.71L559.62-27.71Q563.97-32.51 571.20-32.51L571.20-32.51L571.20-32.51Q578.43-32.51 582.34-26.82L582.34-26.82L582.34-32L587.14-32L587.14 0L582.34 0ZM571.52-3.84L571.52-3.84L571.52-3.84Q576.70-3.84 579.71-7.42L579.71-7.42L579.71-7.42Q582.59-10.82 582.59-16L582.59-16L582.59-16Q582.59-21.18 579.71-24.58L579.71-24.58L579.71-24.58Q576.70-28.16 571.52-28.16L571.52-28.16L571.52-28.16Q566.40-28.16 563.20-24.58L563.20-24.58L563.20-24.58Q560.19-21.18 560.19-16L560.19-16L560.19-16Q560.19-10.82 563.20-7.42L563.20-7.42L563.20-7.42Q566.40-3.84 571.52-3.84ZM620.42-26.88L620.42-26.88L620.42-32L625.22-32L625.22-0.96L625.22-0.96Q625.22 5.95 621.28 9.57L621.28 9.57L621.28 9.57Q617.34 13.18 610.69 13.18L610.69 13.18L610.69 13.18Q604.03 13.18 600.29 10.62L600.29 10.62L600.29 10.62Q596.54 8.06 595.20 3.84L595.20 3.84L600.51 3.84L600.51 3.84Q602.56 8.83 609.86 8.83L609.86 8.83L609.86 8.83Q615.42 8.83 617.92 6.27L617.92 6.27L617.92 6.27Q620.42 3.71 620.42-1.28L620.42-1.28L620.42-5.70L620.42-5.70Q616.51 0 608.96 0L608.96 0L608.96 0Q602.05 0 597.70-4.74L597.70-4.74L597.70-4.74Q593.47-9.34 593.47-16.26L593.47-16.26L593.47-16.26Q593.47-23.17 597.70-27.78L597.70-27.78L597.70-27.78Q602.05-32.51 609.31-32.51L609.31-32.51L609.31-32.51Q616.58-32.51 620.42-26.88ZM609.60-4.35L609.60-4.35L609.60-4.35Q612.22-4.35 614.27-5.28L614.27-5.28L614.27-5.28Q616.32-6.21 617.79-7.81L617.79-7.81L617.79-7.81Q620.67-11.14 620.67-16.26L620.67-16.26L620.67-16.26Q620.67-21.38 617.79-24.70L617.79-24.70L617.79-24.70Q614.66-28.16 609.60-28.16L609.60-28.16L609.60-28.16Q604.42-28.16 601.28-24.70L601.28-24.70L601.28-24.70Q598.27-21.31 598.27-16.26L598.27-16.26L598.27-16.26Q598.27-11.20 601.28-7.81L601.28-7.81L601.28-7.81Q604.42-4.35 609.60-4.35ZM647.81-3.84L647.81-3.84L647.81-3.84Q654.27-3.84 657.09-9.22L657.09-9.22L662.34-9.22L662.34-9.22Q660.67-4.86 657.06-2.18L657.06-2.18L657.06-2.18Q653.44 0.51 647.74 0.51L647.74 0.51L647.74 0.51Q640.51 0.51 635.97-4.29L635.97-4.29L635.97-4.29Q631.55-8.96 631.55-16L631.55-16L631.55-16Q631.55-23.10 635.78-27.71L635.78-27.71L635.78-27.71Q640.26-32.51 647.42-32.51L647.42-32.51L647.42-32.51Q654.59-32.51 659.07-27.71L659.07-27.71L659.07-27.71Q663.30-23.10 663.30-16L663.30-16L663.30-14.08L636.48-14.08L636.48-14.08Q636.99-9.66 640-6.78L640-6.78L640-6.78Q643.07-3.84 647.81-3.84ZM647.42-28.16L647.42-28.16L647.42-28.16Q643.01-28.16 640-25.41L640-25.41L640-25.41Q637.18-22.78 636.54-18.56L636.54-18.56L658.30-18.56L658.30-18.56Q657.66-22.78 654.85-25.41L654.85-25.41L654.85-25.41Q651.84-28.16 647.42-28.16ZM707.78 0L707.78-5.12L707.78-5.12Q703.94 0.51 696.32 0.51L696.32 0.51L696.32 0.51Q689.41 0.51 685.06-4.29L685.06-4.29L685.06-4.29Q680.83-9.02 680.83-16L680.83-16L680.83-16Q680.83-22.98 685.06-27.71L685.06-27.71L685.06-27.71Q689.41-32.51 696.64-32.51L696.64-32.51L696.64-32.51Q703.87-32.51 707.78-26.82L707.78-26.82L707.78-32L712.58-32L712.58 0L707.78 0ZM696.96-3.84L696.96-3.84L696.96-3.84Q702.14-3.84 705.15-7.42L705.15-7.42L705.15-7.42Q708.03-10.82 708.03-16L708.03-16L708.03-16Q708.03-21.18 705.15-24.58L705.15-24.58L705.15-24.58Q702.14-28.16 696.96-28.16L696.96-28.16L696.96-28.16Q691.84-28.16 688.64-24.58L688.64-24.58L688.64-24.58Q685.63-21.18 685.63-16L685.63-16L685.63-16Q685.63-10.82 688.64-7.42L688.64-7.42L688.64-7.42Q691.84-3.84 696.96-3.84ZM720.90-32L725.70-32L725.70-27.01L725.70-27.01Q727.42-29.31 729.92-30.91L729.92-30.91L729.92-30.91Q732.42-32.51 735.62-32.51L735.62-32.51L735.62-32.51Q738.82-32.51 741.12-31.62L741.12-31.62L741.12-31.62Q743.42-30.72 745.15-28.93L745.15-28.93L745.15-28.93Q749.12-25.02 749.12-18.62L749.12-18.62L749.12 0L744.32 0L744.32-18.50L744.32-18.50Q744.32-22.91 741.82-25.54L741.82-25.54L741.82-25.54Q739.33-28.16 735.36-28.16L735.36-28.16L735.36-28.16Q731.33-28.16 728.51-25.47L728.51-25.47L728.51-25.47Q725.70-22.72 725.70-18.43L725.70-18.43L725.70 0L720.90 0L720.90-32ZM782.08 0L782.08-5.12L782.08-5.12Q778.24 0.51 770.62 0.51L770.62 0.51L770.62 0.51Q763.71 0.51 759.36-4.29L759.36-4.29L759.36-4.29Q755.14-9.02 755.14-16L755.14-16L755.14-16Q755.14-22.98 759.36-27.71L759.36-27.71L759.36-27.71Q763.71-32.51 770.94-32.51L770.94-32.51L770.94-32.51Q778.18-32.51 782.08-26.82L782.08-26.82L782.08-44.80L786.88-44.80L786.88 0L782.08 0ZM771.26-3.84L771.26-3.84L771.26-3.84Q776.45-3.84 779.46-7.42L779.46-7.42L779.46-7.42Q782.34-10.82 782.34-16L782.34-16L782.34-16Q782.34-21.18 779.46-24.58L779.46-24.58L779.46-24.58Q776.45-28.16 771.26-28.16L771.26-28.16L771.26-28.16Q766.14-28.16 762.94-24.58L762.94-24.58L762.94-24.58Q759.94-21.18 759.94-16L759.94-16L759.94-16Q759.94-10.82 762.94-7.42L762.94-7.42L762.94-7.42Q766.14-3.84 771.26-3.84ZM832.51-23.42L827.65-23.42L827.65-23.42Q827.01-28.42 819.62-28.42L819.62-28.42L819.62-28.42Q812.22-28.42 812.22-23.81L812.22-23.81L812.22-23.81Q812.22-21.89 813.79-20.90L813.79-20.90L813.79-20.90Q815.36-19.90 817.73-19.26L817.73-19.26L817.73-19.26Q820.10-18.62 822.88-18.08L822.88-18.08L822.88-18.08Q825.66-17.54 828.03-16.54L828.03-16.54L828.03-16.54Q830.40-15.55 831.97-13.82L831.97-13.82L831.97-13.82Q833.54-12.10 833.54-9.09L833.54-9.09L833.54-9.09Q833.54-4.42 830.02-1.95L830.02-1.95L830.02-1.95Q826.50 0.51 820.48 0.51L820.48 0.51L820.48 0.51Q814.08 0.51 810.30-2.69L810.30-2.69L810.30-2.69Q806.85-5.50 806.59-10.05L806.59-10.05L811.58-10.05L811.58-10.05Q812.03-5.63 816.58-4.10L816.58-4.10L816.58-4.10Q818.24-3.58 819.87-3.58L819.87-3.58L819.87-3.58Q821.50-3.58 822.91-3.78L822.91-3.78L822.91-3.78Q824.32-3.97 825.66-4.48L825.66-4.48L825.66-4.48Q828.74-5.70 828.74-8.64L828.74-8.64L828.74-8.64Q828.74-10.62 827.17-11.68L827.17-11.68L827.17-11.68Q825.60-12.74 823.23-13.41L823.23-13.41L823.23-13.41Q820.86-14.08 818.08-14.62L818.08-14.62L818.08-14.62Q815.30-15.17 812.93-16.13L812.93-16.13L812.93-16.13Q810.56-17.09 808.99-18.75L808.99-18.75L808.99-18.75Q807.42-20.42 807.42-23.36L807.42-23.36L807.42-23.36Q807.42-27.71 810.59-30.11L810.59-30.11L810.59-30.11Q813.76-32.51 819.97-32.51L819.97-32.51L819.97-32.51Q825.86-32.51 829.25-29.70L829.25-29.70L829.25-29.70Q832.06-27.33 832.51-23.42L832.51-23.42ZM839.68 0L839.68-32L844.48-32L844.48 0L839.68 0ZM839.49-43.65L844.67-43.65L844.67-37.38L839.49-37.38L839.49-43.65ZM877.76-26.88L877.76-26.88L877.76-32L882.56-32L882.56-0.96L882.56-0.96Q882.56 5.95 878.62 9.57L878.62 9.57L878.62 9.57Q874.69 13.18 868.03 13.18L868.03 13.18L868.03 13.18Q861.38 13.18 857.63 10.62L857.63 10.62L857.63 10.62Q853.89 8.06 852.54 3.84L852.54 3.84L857.86 3.84L857.86 3.84Q859.90 8.83 867.20 8.83L867.20 8.83L867.20 8.83Q872.77 8.83 875.26 6.27L875.26 6.27L875.26 6.27Q877.76 3.71 877.76-1.28L877.76-1.28L877.76-5.70L877.76-5.70Q873.86 0 866.30 0L866.30 0L866.30 0Q859.39 0 855.04-4.74L855.04-4.74L855.04-4.74Q850.82-9.34 850.82-16.26L850.82-16.26L850.82-16.26Q850.82-23.17 855.04-27.78L855.04-27.78L855.04-27.78Q859.39-32.51 866.66-32.51L866.66-32.51L866.66-32.51Q873.92-32.51 877.76-26.88ZM866.94-4.35L866.94-4.35L866.94-4.35Q869.57-4.35 871.62-5.28L871.62-5.28L871.62-5.28Q873.66-6.21 875.14-7.81L875.14-7.81L875.14-7.81Q878.02-11.14 878.02-16.26L878.02-16.26L878.02-16.26Q878.02-21.38 875.14-24.70L875.14-24.70L875.14-24.70Q872-28.16 866.94-28.16L866.94-28.16L866.94-28.16Q861.76-28.16 858.62-24.70L858.62-24.70L858.62-24.70Q855.62-21.31 855.62-16.26L855.62-16.26L855.62-16.26Q855.62-11.20 858.62-7.81L858.62-7.81L858.62-7.81Q861.76-4.35 866.94-4.35ZM890.88-32L895.68-32L895.68-27.01L895.68-27.01Q897.41-29.31 899.90-30.91L899.90-30.91L899.90-30.91Q902.40-32.51 905.60-32.51L905.60-32.51L905.60-32.51Q908.80-32.51 911.10-31.62L911.10-31.62L911.10-31.62Q913.41-30.72 915.14-28.93L915.14-28.93L915.14-28.93Q919.10-25.02 919.10-18.62L919.10-18.62L919.10 0L914.30 0L914.30-18.50L914.30-18.50Q914.30-22.91 911.81-25.54L911.81-25.54L911.81-25.54Q909.31-28.16 905.34-28.16L905.34-28.16L905.34-28.16Q901.31-28.16 898.50-25.47L898.50-25.47L898.50-25.47Q895.68-22.72 895.68-18.43L895.68-18.43L895.68 0L890.88 0L890.88-32ZM940.74 0L940.74-32L945.54-32L945.54 0L940.74 0ZM940.54-43.65L945.73-43.65L945.73-37.38L940.54-37.38L940.54-43.65ZM953.86-32L958.66-32L958.66-27.01L958.66-27.01Q960.38-29.31 962.88-30.91L962.88-30.91L962.88-30.91Q965.38-32.51 968.58-32.51L968.58-32.51L968.58-32.51Q971.78-32.51 974.08-31.62L974.08-31.62L974.08-31.62Q976.38-30.72 978.11-28.93L978.11-28.93L978.11-28.93Q982.08-25.02 982.08-18.62L982.08-18.62L982.08 0L977.28 0L977.28-18.50L977.28-18.50Q977.28-22.91 974.78-25.54L974.78-25.54L974.78-25.54Q972.29-28.16 968.32-28.16L968.32-28.16L968.32-28.16Q964.29-28.16 961.47-25.47L961.47-25.47L961.47-25.47Q958.66-22.72 958.66-18.43L958.66-18.43L958.66 0L953.86 0L953.86-32ZM989.31-6.53L995.52-6.53L995.52 0L989.31 0L989.31-6.53Z" fill="url(#editing-gradient-gradient)"></path></g></g><style>text {
  font-size: 64px;
  font-family: Arial Black;
  dominant-baseline: central;
  text-anchor: middle;
}</style></svg>