<svg width="1459.62001953125px" height="114.40000610351562px" xmlns="http://www.w3.org/2000/svg" viewBox="-479.81000976562495 17.79999694824219 1459.62001953125 114.40000610351562" style="background: none;" preserveAspectRatio="xMidYMid"><defs><linearGradient id="editing-gradient-gradient" x1="0" x2="1" y1="0.5" y2="0.5" gradientUnits="objectBoundingBox"><stop offset="0" stop-color="#f0f"></stop><stop offset="1" stop-color="#0ff"></stop></linearGradient></defs><g><g transform="translate(-264.7188181877136, 104.24500465393066)"><path d="M9.98-16.26L9.98 0L5.18 0L5.18-42.37L25.47-42.37L25.47-42.37Q31.94-42.37 35.84-38.78L35.84-38.78L35.84-38.78Q39.74-35.26 39.74-29.12L39.74-29.12L39.74-29.12Q39.74-21.18 33.15-18.30L33.15-18.30L33.15-18.30Q31.30-17.47 29.50-17.09L29.50-17.09L40.64 0L34.94 0L24.70-16.26L9.98-16.26ZM9.98-37.82L9.98-20.80L24.64-20.80L24.64-20.80Q31.42-20.80 33.98-25.02L33.98-25.02L33.98-25.02Q34.94-26.62 34.94-29.12L34.94-29.12L34.94-29.12Q34.94-33.15 32.19-35.49L32.19-35.49L32.19-35.49Q29.44-37.82 24.90-37.82L24.90-37.82L9.98-37.82ZM60.48-3.84L60.48-3.84L60.48-3.84Q66.94-3.84 69.76-9.22L69.76-9.22L75.01-9.22L75.01-9.22Q73.34-4.86 69.73-2.18L69.73-2.18L69.73-2.18Q66.11 0.51 60.42 0.51L60.42 0.51L60.42 0.51Q53.18 0.51 48.64-4.29L48.64-4.29L48.64-4.29Q44.22-8.96 44.22-16L44.22-16L44.22-16Q44.22-23.10 48.45-27.71L48.45-27.71L48.45-27.71Q52.93-32.51 60.10-32.51L60.10-32.51L60.10-32.51Q67.26-32.51 71.74-27.71L71.74-27.71L71.74-27.71Q75.97-23.10 75.97-16L75.97-16L75.97-14.08L49.15-14.08L49.15-14.08Q49.66-9.66 52.67-6.78L52.67-6.78L52.67-6.78Q55.74-3.84 60.48-3.84ZM60.10-28.16L60.10-28.16L60.10-28.16Q55.68-28.16 52.67-25.41L52.67-25.41L52.67-25.41Q49.86-22.78 49.22-18.56L49.22-18.56L70.98-18.56L70.98-18.56Q70.34-22.78 67.52-25.41L67.52-25.41L67.52-25.41Q64.51-28.16 60.10-28.16ZM106.82-26.88L106.82-26.88L106.82-32L111.62-32L111.62-0.96L111.62-0.96Q111.62 5.95 107.68 9.57L107.68 9.57L107.68 9.57Q103.74 13.18 97.09 13.18L97.09 13.18L97.09 13.18Q90.43 13.18 86.69 10.62L86.69 10.62L86.69 10.62Q82.94 8.06 81.60 3.84L81.60 3.84L86.91 3.84L86.91 3.84Q88.96 8.83 96.26 8.83L96.26 8.83L96.26 8.83Q101.82 8.83 104.32 6.27L104.32 6.27L104.32 6.27Q106.82 3.71 106.82-1.28L106.82-1.28L106.82-5.70L106.82-5.70Q102.91 0 95.36 0L95.36 0L95.36 0Q88.45 0 84.10-4.74L84.10-4.74L84.10-4.74Q79.87-9.34 79.87-16.26L79.87-16.26L79.87-16.26Q79.87-23.17 84.10-27.78L84.10-27.78L84.10-27.78Q88.45-32.51 95.71-32.51L95.71-32.51L95.71-32.51Q102.98-32.51 106.82-26.88ZM96-4.35L96-4.35L96-4.35Q98.62-4.35 100.67-5.28L100.67-5.28L100.67-5.28Q102.72-6.21 104.19-7.81L104.19-7.81L104.19-7.81Q107.07-11.14 107.07-16.26L107.07-16.26L107.07-16.26Q107.07-21.38 104.19-24.70L104.19-24.70L104.19-24.70Q101.06-28.16 96-28.16L96-28.16L96-28.16Q90.82-28.16 87.68-24.70L87.68-24.70L87.68-24.70Q84.67-21.31 84.67-16.26L84.67-16.26L84.67-16.26Q84.67-11.20 87.68-7.81L87.68-7.81L87.68-7.81Q90.82-4.35 96-4.35ZM119.94 0L119.94-32L124.74-32L124.74 0L119.94 0ZM119.74-43.65L124.93-43.65L124.93-37.38L119.74-37.38L119.74-43.65ZM156.74-23.42L151.87-23.42L151.87-23.42Q151.23-28.42 143.84-28.42L143.84-28.42L143.84-28.42Q136.45-28.42 136.45-23.81L136.45-23.81L136.45-23.81Q136.45-21.89 138.02-20.90L138.02-20.90L138.02-20.90Q139.58-19.90 141.95-19.26L141.95-19.26L141.95-19.26Q144.32-18.62 147.10-18.08L147.10-18.08L147.10-18.08Q149.89-17.54 152.26-16.54L152.26-16.54L152.26-16.54Q154.62-15.55 156.19-13.82L156.19-13.82L156.19-13.82Q157.76-12.10 157.76-9.09L157.76-9.09L157.76-9.09Q157.76-4.42 154.24-1.95L154.24-1.95L154.24-1.95Q150.72 0.51 144.70 0.51L144.70 0.51L144.70 0.51Q138.30 0.51 134.53-2.69L134.53-2.69L134.53-2.69Q131.07-5.50 130.82-10.05L130.82-10.05L135.81-10.05L135.81-10.05Q136.26-5.63 140.80-4.10L140.80-4.10L140.80-4.10Q142.46-3.58 144.10-3.58L144.10-3.58L144.10-3.58Q145.73-3.58 147.14-3.78L147.14-3.78L147.14-3.78Q148.54-3.97 149.89-4.48L149.89-4.48L149.89-4.48Q152.96-5.70 152.96-8.64L152.96-8.64L152.96-8.64Q152.96-10.62 151.39-11.68L151.39-11.68L151.39-11.68Q149.82-12.74 147.46-13.41L147.46-13.41L147.46-13.41Q145.09-14.08 142.30-14.62L142.30-14.62L142.30-14.62Q139.52-15.17 137.15-16.13L137.15-16.13L137.15-16.13Q134.78-17.09 133.22-18.75L133.22-18.75L133.22-18.75Q131.65-20.42 131.65-23.36L131.65-23.36L131.65-23.36Q131.65-27.71 134.82-30.11L134.82-30.11L134.82-30.11Q137.98-32.51 144.19-32.51L144.19-32.51L144.19-32.51Q150.08-32.51 153.47-29.70L153.47-29.70L153.47-29.70Q156.29-27.33 156.74-23.42L156.74-23.42ZM172.16 0L167.36 0L167.36-27.78L160.83-27.78L160.83-32L167.36-32L167.36-43.46L172.16-43.46L172.16-32L179.52-32L179.52-27.78L172.16-27.78L172.16 0ZM201.34-32.51L201.66-32.51L201.66-27.71L201.09-27.71L201.09-27.71Q195.90-27.71 192.64-23.55L192.64-23.55L192.64-23.55Q189.57-19.58 189.57-14.08L189.57-14.08L189.57 0L184.77 0L184.77-32L189.57-32L189.57-24.13L189.57-24.13Q191.10-29.12 196.22-31.49L196.22-31.49L196.22-31.49Q198.34-32.51 201.34-32.51L201.34-32.51ZM230.98 0L230.98-5.12L230.98-5.12Q227.14 0.51 219.52 0.51L219.52 0.51L219.52 0.51Q212.61 0.51 208.26-4.29L208.26-4.29L208.26-4.29Q204.03-9.02 204.03-16L204.03-16L204.03-16Q204.03-22.98 208.26-27.71L208.26-27.71L208.26-27.71Q212.61-32.51 219.84-32.51L219.84-32.51L219.84-32.51Q227.07-32.51 230.98-26.82L230.98-26.82L230.98-32L235.78-32L235.78 0L230.98 0ZM220.16-3.84L220.16-3.84L220.16-3.84Q225.34-3.84 228.35-7.42L228.35-7.42L228.35-7.42Q231.23-10.82 231.23-16L231.23-16L231.23-16Q231.23-21.18 228.35-24.58L228.35-24.58L228.35-24.58Q225.34-28.16 220.16-28.16L220.16-28.16L220.16-28.16Q215.04-28.16 211.84-24.58L211.84-24.58L211.84-24.58Q208.83-21.18 208.83-16L208.83-16L208.83-16Q208.83-10.82 211.84-7.42L211.84-7.42L211.84-7.42Q215.04-3.84 220.16-3.84ZM252.35 0L247.55 0L247.55-27.78L241.02-27.78L241.02-32L247.55-32L247.55-43.46L252.35-43.46L252.35-32L259.71-32L259.71-27.78L252.35-27.78L252.35 0ZM264.96 0L264.96-32L269.76-32L269.76 0L264.96 0ZM264.77-43.65L269.95-43.65L269.95-37.38L264.77-37.38L264.77-43.65ZM291.97-32.51L291.97-32.51L291.97-32.51Q299.14-32.51 303.62-27.71L303.62-27.71L303.62-27.71Q307.84-23.10 307.84-16L307.84-16L307.84-16Q307.84-8.90 303.62-4.29L303.62-4.29L303.62-4.29Q299.14 0.51 291.97 0.51L291.97 0.51L291.97 0.51Q284.80 0.51 280.32-4.29L280.32-4.29L280.32-4.29Q276.10-8.90 276.10-16L276.10-16L276.10-16Q276.10-23.10 280.32-27.71L280.32-27.71L280.32-27.71Q284.80-32.51 291.97-32.51ZM291.97-3.84L291.97-3.84L291.97-3.84Q297.15-3.84 300.16-7.42L300.16-7.42L300.16-7.42Q303.04-10.82 303.04-16L303.04-16L303.04-16Q303.04-21.18 300.16-24.58L300.16-24.58L300.16-24.58Q297.15-28.16 291.97-28.16L291.97-28.16L291.97-28.16Q286.78-28.16 283.78-24.58L283.78-24.58L283.78-24.58Q280.90-21.18 280.90-16L280.90-16L280.90-16Q280.90-10.82 283.78-7.42L283.78-7.42L283.78-7.42Q286.78-3.84 291.97-3.84ZM314.18-32L318.98-32L318.98-27.01L318.98-27.01Q320.70-29.31 323.20-30.91L323.20-30.91L323.20-30.91Q325.70-32.51 328.90-32.51L328.90-32.51L328.90-32.51Q332.10-32.51 334.40-31.62L334.40-31.62L334.40-31.62Q336.70-30.72 338.43-28.93L338.43-28.93L338.43-28.93Q342.40-25.02 342.40-18.62L342.40-18.62L342.40 0L337.60 0L337.60-18.50L337.60-18.50Q337.60-22.91 335.10-25.54L335.10-25.54L335.10-25.54Q332.61-28.16 328.64-28.16L328.64-28.16L328.64-28.16Q324.61-28.16 321.79-25.47L321.79-25.47L321.79-25.47Q318.98-22.72 318.98-18.43L318.98-18.43L318.98 0L314.18 0L314.18-32ZM387.71-23.42L382.85-23.42L382.85-23.42Q382.21-28.42 374.82-28.42L374.82-28.42L374.82-28.42Q367.42-28.42 367.42-23.81L367.42-23.81L367.42-23.81Q367.42-21.89 368.99-20.90L368.99-20.90L368.99-20.90Q370.56-19.90 372.93-19.26L372.93-19.26L372.93-19.26Q375.30-18.62 378.08-18.08L378.08-18.08L378.08-18.08Q380.86-17.54 383.23-16.54L383.23-16.54L383.23-16.54Q385.60-15.55 387.17-13.82L387.17-13.82L387.17-13.82Q388.74-12.10 388.74-9.09L388.74-9.09L388.74-9.09Q388.74-4.42 385.22-1.95L385.22-1.95L385.22-1.95Q381.70 0.51 375.68 0.51L375.68 0.51L375.68 0.51Q369.28 0.51 365.50-2.69L365.50-2.69L365.50-2.69Q362.05-5.50 361.79-10.05L361.79-10.05L366.78-10.05L366.78-10.05Q367.23-5.63 371.78-4.10L371.78-4.10L371.78-4.10Q373.44-3.58 375.07-3.58L375.07-3.58L375.07-3.58Q376.70-3.58 378.11-3.78L378.11-3.78L378.11-3.78Q379.52-3.97 380.86-4.48L380.86-4.48L380.86-4.48Q383.94-5.70 383.94-8.64L383.94-8.64L383.94-8.64Q383.94-10.62 382.37-11.68L382.37-11.68L382.37-11.68Q380.80-12.74 378.43-13.41L378.43-13.41L378.43-13.41Q376.06-14.08 373.28-14.62L373.28-14.62L373.28-14.62Q370.50-15.17 368.13-16.13L368.13-16.13L368.13-16.13Q365.76-17.09 364.19-18.75L364.19-18.75L364.19-18.75Q362.62-20.42 362.62-23.36L362.62-23.36L362.62-23.36Q362.62-27.71 365.79-30.11L365.79-30.11L365.79-30.11Q368.96-32.51 375.17-32.51L375.17-32.51L375.17-32.51Q381.06-32.51 384.45-29.70L384.45-29.70L384.45-29.70Q387.26-27.33 387.71-23.42L387.71-23.42ZM422.78 0L417.98 0L417.98-4.99L417.98-4.99Q416.26-2.69 413.76-1.09L413.76-1.09L413.76-1.09Q411.26 0.51 408.06 0.51L408.06 0.51L408.06 0.51Q404.86 0.51 402.56-0.38L402.56-0.38L402.56-0.38Q400.26-1.28 398.53-3.07L398.53-3.07L398.53-3.07Q394.56-6.98 394.56-13.38L394.56-13.38L394.56-32L399.36-32L399.36-13.50L399.36-13.50Q399.36-9.09 401.86-6.46L401.86-6.46L401.86-6.46Q404.35-3.84 408.32-3.84L408.32-3.84L408.32-3.84Q412.35-3.84 415.17-6.53L415.17-6.53L415.17-6.53Q417.98-9.28 417.98-13.57L417.98-13.57L417.98-32L422.78-32L422.78 0ZM445.89-3.84L445.89-3.84L445.89-3.84Q448.96-3.84 451.33-5.57L451.33-5.57L451.33-5.57Q453.70-7.30 454.78-10.05L454.78-10.05L459.97-10.05L459.97-10.05Q458.50-5.31 454.59-2.43L454.59-2.43L454.59-2.43Q450.50 0.51 444.86 0.51L444.86 0.51L444.86 0.51Q437.82 0.51 433.41-4.29L433.41-4.29L433.41-4.29Q429.12-8.96 429.12-16L429.12-16L429.12-16Q429.12-23.04 433.41-27.71L433.41-27.71L433.41-27.71Q437.82-32.51 444.86-32.51L444.86-32.51L444.86-32.51Q450.50-32.51 454.59-29.57L454.59-29.57L454.59-29.57Q458.50-26.69 459.97-21.95L459.97-21.95L454.78-21.95L454.78-21.95Q453.70-24.70 451.33-26.43L451.33-26.43L451.33-26.43Q448.96-28.16 445.89-28.16L445.89-28.16L445.89-28.16Q442.82-28.16 440.67-27.20L440.67-27.20L440.67-27.20Q438.53-26.24 437.06-24.58L437.06-24.58L437.06-24.58Q433.92-21.12 433.92-16L433.92-16L433.92-16Q433.92-10.88 437.06-7.42L437.06-7.42L437.06-7.42Q440.26-3.84 445.89-3.84ZM480.70-3.84L480.70-3.84L480.70-3.84Q483.78-3.84 486.14-5.57L486.14-5.57L486.14-5.57Q488.51-7.30 489.60-10.05L489.60-10.05L494.78-10.05L494.78-10.05Q493.31-5.31 489.41-2.43L489.41-2.43L489.41-2.43Q485.31 0.51 479.68 0.51L479.68 0.51L479.68 0.51Q472.64 0.51 468.22-4.29L468.22-4.29L468.22-4.29Q463.94-8.96 463.94-16L463.94-16L463.94-16Q463.94-23.04 468.22-27.71L468.22-27.71L468.22-27.71Q472.64-32.51 479.68-32.51L479.68-32.51L479.68-32.51Q485.31-32.51 489.41-29.57L489.41-29.57L489.41-29.57Q493.31-26.69 494.78-21.95L494.78-21.95L489.60-21.95L489.60-21.95Q488.51-24.70 486.14-26.43L486.14-26.43L486.14-26.43Q483.78-28.16 480.70-28.16L480.70-28.16L480.70-28.16Q477.63-28.16 475.49-27.20L475.49-27.20L475.49-27.20Q473.34-26.24 471.87-24.58L471.87-24.58L471.87-24.58Q468.74-21.12 468.74-16L468.74-16L468.74-16Q468.74-10.88 471.87-7.42L471.87-7.42L471.87-7.42Q475.07-3.84 480.70-3.84ZM515.01-3.84L515.01-3.84L515.01-3.84Q521.47-3.84 524.29-9.22L524.29-9.22L529.54-9.22L529.54-9.22Q527.87-4.86 524.26-2.18L524.26-2.18L524.26-2.18Q520.64 0.51 514.94 0.51L514.94 0.51L514.94 0.51Q507.71 0.51 503.17-4.29L503.17-4.29L503.17-4.29Q498.75-8.96 498.75-16L498.75-16L498.75-16Q498.75-23.10 502.98-27.71L502.98-27.71L502.98-27.71Q507.46-32.51 514.62-32.51L514.62-32.51L514.62-32.51Q521.79-32.51 526.27-27.71L526.27-27.71L526.27-27.71Q530.50-23.10 530.50-16L530.50-16L530.50-14.08L503.68-14.08L503.68-14.08Q504.19-9.66 507.20-6.78L507.20-6.78L507.20-6.78Q510.27-3.84 515.01-3.84ZM514.62-28.16L514.62-28.16L514.62-28.16Q510.21-28.16 507.20-25.41L507.20-25.41L507.20-25.41Q504.38-22.78 503.74-18.56L503.74-18.56L525.50-18.56L525.50-18.56Q524.86-22.78 522.05-25.41L522.05-25.41L522.05-25.41Q519.04-28.16 514.62-28.16ZM560.06-23.42L555.20-23.42L555.20-23.42Q554.56-28.42 547.17-28.42L547.17-28.42L547.17-28.42Q539.78-28.42 539.78-23.81L539.78-23.81L539.78-23.81Q539.78-21.89 541.34-20.90L541.34-20.90L541.34-20.90Q542.91-19.90 545.28-19.26L545.28-19.26L545.28-19.26Q547.65-18.62 550.43-18.08L550.43-18.08L550.43-18.08Q553.22-17.54 555.58-16.54L555.58-16.54L555.58-16.54Q557.95-15.55 559.52-13.82L559.52-13.82L559.52-13.82Q561.09-12.10 561.09-9.09L561.09-9.09L561.09-9.09Q561.09-4.42 557.57-1.95L557.57-1.95L557.57-1.95Q554.05 0.51 548.03 0.51L548.03 0.51L548.03 0.51Q541.63 0.51 537.86-2.69L537.86-2.69L537.86-2.69Q534.40-5.50 534.14-10.05L534.14-10.05L539.14-10.05L539.14-10.05Q539.58-5.63 544.13-4.10L544.13-4.10L544.13-4.10Q545.79-3.58 547.42-3.58L547.42-3.58L547.42-3.58Q549.06-3.58 550.46-3.78L550.46-3.78L550.46-3.78Q551.87-3.97 553.22-4.48L553.22-4.48L553.22-4.48Q556.29-5.70 556.29-8.64L556.29-8.64L556.29-8.64Q556.29-10.62 554.72-11.68L554.72-11.68L554.72-11.68Q553.15-12.74 550.78-13.41L550.78-13.41L550.78-13.41Q548.42-14.08 545.63-14.62L545.63-14.62L545.63-14.62Q542.85-15.17 540.48-16.13L540.48-16.13L540.48-16.13Q538.11-17.09 536.54-18.75L536.54-18.75L536.54-18.75Q534.98-20.42 534.98-23.36L534.98-23.36L534.98-23.36Q534.98-27.71 538.14-30.11L538.14-30.11L538.14-30.11Q541.31-32.51 547.52-32.51L547.52-32.51L547.52-32.51Q553.41-32.51 556.80-29.70L556.80-29.70L556.80-29.70Q559.62-27.33 560.06-23.42L560.06-23.42ZM590.91-23.42L586.05-23.42L586.05-23.42Q585.41-28.42 578.02-28.42L578.02-28.42L578.02-28.42Q570.62-28.42 570.62-23.81L570.62-23.81L570.62-23.81Q570.62-21.89 572.19-20.90L572.19-20.90L572.19-20.90Q573.76-19.90 576.13-19.26L576.13-19.26L576.13-19.26Q578.50-18.62 581.28-18.08L581.28-18.08L581.28-18.08Q584.06-17.54 586.43-16.54L586.43-16.54L586.43-16.54Q588.80-15.55 590.37-13.82L590.37-13.82L590.37-13.82Q591.94-12.10 591.94-9.09L591.94-9.09L591.94-9.09Q591.94-4.42 588.42-1.95L588.42-1.95L588.42-1.95Q584.90 0.51 578.88 0.51L578.88 0.51L578.88 0.51Q572.48 0.51 568.70-2.69L568.70-2.69L568.70-2.69Q565.25-5.50 564.99-10.05L564.99-10.05L569.98-10.05L569.98-10.05Q570.43-5.63 574.98-4.10L574.98-4.10L574.98-4.10Q576.64-3.58 578.27-3.58L578.27-3.58L578.27-3.58Q579.90-3.58 581.31-3.78L581.31-3.78L581.31-3.78Q582.72-3.97 584.06-4.48L584.06-4.48L584.06-4.48Q587.14-5.70 587.14-8.64L587.14-8.64L587.14-8.64Q587.14-10.62 585.57-11.68L585.57-11.68L585.57-11.68Q584-12.74 581.63-13.41L581.63-13.41L581.63-13.41Q579.26-14.08 576.48-14.62L576.48-14.62L576.48-14.62Q573.70-15.17 571.33-16.13L571.33-16.13L571.33-16.13Q568.96-17.09 567.39-18.75L567.39-18.75L567.39-18.75Q565.82-20.42 565.82-23.36L565.82-23.36L565.82-23.36Q565.82-27.71 568.99-30.11L568.99-30.11L568.99-30.11Q572.16-32.51 578.37-32.51L578.37-32.51L578.37-32.51Q584.26-32.51 587.65-29.70L587.65-29.70L587.65-29.70Q590.46-27.33 590.91-23.42L590.91-23.42ZM612.48-40.77L611.84-40.77L611.84-40.77Q608.45-40.77 606.75-39.26L606.75-39.26L606.75-39.26Q605.06-37.76 605.06-34.43L605.06-34.43L605.06-32L612.48-32L612.48-27.78L605.06-27.78L605.06 0L600.26 0L600.26-27.78L594.75-27.78L594.75-32L600.26-32L600.26-34.82L600.26-34.82Q600.26-40.06 603.39-42.69L603.39-42.69L603.39-42.69Q606.53-45.31 612.10-45.31L612.10-45.31L612.48-45.31L612.48-40.77ZM645.63 0L640.83 0L640.83-4.99L640.83-4.99Q639.10-2.69 636.61-1.09L636.61-1.09L636.61-1.09Q634.11 0.51 630.91 0.51L630.91 0.51L630.91 0.51Q627.71 0.51 625.41-0.38L625.41-0.38L625.41-0.38Q623.10-1.28 621.38-3.07L621.38-3.07L621.38-3.07Q617.41-6.98 617.41-13.38L617.41-13.38L617.41-32L622.21-32L622.21-13.50L622.21-13.50Q622.21-9.09 624.70-6.46L624.70-6.46L624.70-6.46Q627.20-3.84 631.17-3.84L631.17-3.84L631.17-3.84Q635.20-3.84 638.02-6.53L638.02-6.53L638.02-6.53Q640.83-9.28 640.83-13.57L640.83-13.57L640.83-32L645.63-32L645.63 0ZM658.75-44.80L658.75 0L653.95 0L653.95-44.80L658.75-44.80ZM671.87-44.80L671.87 0L667.07 0L667.07-44.80L671.87-44.80ZM707.65-32L688.70 12.67L683.52 12.67L689.34-0.45L676.29-32L681.60-32L691.90-5.76L702.40-32L707.65-32ZM740.42-3.84L740.42-3.84L740.42-3.84Q743.49-3.84 745.86-5.57L745.86-5.57L745.86-5.57Q748.22-7.30 749.31-10.05L749.31-10.05L754.50-10.05L754.50-10.05Q753.02-5.31 749.12-2.43L749.12-2.43L749.12-2.43Q745.02 0.51 739.39 0.51L739.39 0.51L739.39 0.51Q732.35 0.51 727.94-4.29L727.94-4.29L727.94-4.29Q723.65-8.96 723.65-16L723.65-16L723.65-16Q723.65-23.04 727.94-27.71L727.94-27.71L727.94-27.71Q732.35-32.51 739.39-32.51L739.39-32.51L739.39-32.51Q745.02-32.51 749.12-29.57L749.12-29.57L749.12-29.57Q753.02-26.69 754.50-21.95L754.50-21.95L749.31-21.95L749.31-21.95Q748.22-24.70 745.86-26.43L745.86-26.43L745.86-26.43Q743.49-28.16 740.42-28.16L740.42-28.16L740.42-28.16Q737.34-28.16 735.20-27.20L735.20-27.20L735.20-27.20Q733.06-26.24 731.58-24.58L731.58-24.58L731.58-24.58Q728.45-21.12 728.45-16L728.45-16L728.45-16Q728.45-10.88 731.58-7.42L731.58-7.42L731.58-7.42Q734.78-3.84 740.42-3.84ZM774.34-32.51L774.34-32.51L774.34-32.51Q781.50-32.51 785.98-27.71L785.98-27.71L785.98-27.71Q790.21-23.10 790.21-16L790.21-16L790.21-16Q790.21-8.90 785.98-4.29L785.98-4.29L785.98-4.29Q781.50 0.51 774.34 0.51L774.34 0.51L774.34 0.51Q767.17 0.51 762.69-4.29L762.69-4.29L762.69-4.29Q758.46-8.90 758.46-16L758.46-16L758.46-16Q758.46-23.10 762.69-27.71L762.69-27.71L762.69-27.71Q767.17-32.51 774.34-32.51ZM774.34-3.84L774.34-3.84L774.34-3.84Q779.52-3.84 782.53-7.42L782.53-7.42L782.53-7.42Q785.41-10.82 785.41-16L785.41-16L785.41-16Q785.41-21.18 782.53-24.58L782.53-24.58L782.53-24.58Q779.52-28.16 774.34-28.16L774.34-28.16L774.34-28.16Q769.15-28.16 766.14-24.58L766.14-24.58L766.14-24.58Q763.26-21.18 763.26-16L763.26-16L763.26-16Q763.26-10.82 766.14-7.42L766.14-7.42L766.14-7.42Q769.15-3.84 774.34-3.84ZM801.34-32L801.34-27.14L801.34-27.14Q804.54-32.51 811.07-32.51L811.07-32.51L811.07-32.51Q814.27-32.51 816.99-30.82L816.99-30.82L816.99-30.82Q819.71-29.12 821.25-26.05L821.25-26.05L821.25-26.05Q823.42-30.08 828.03-31.81L828.03-31.81L828.03-31.81Q829.89-32.51 832.22-32.51L832.22-32.51L832.22-32.51Q834.56-32.51 836.70-31.58L836.70-31.58L836.70-31.58Q838.85-30.66 840.51-28.93L840.51-28.93L840.51-28.93Q844.10-25.09 844.10-19.33L844.10-19.33L844.10 0L839.30 0L839.30-19.20L839.30-19.20Q839.30-23.17 837.06-25.73L837.06-25.73L837.06-25.73Q834.82-28.16 831.36-28.16L831.36-28.16L831.36-28.16Q827.71-28.16 825.28-25.79L825.28-25.79L825.28-25.79Q822.72-23.36 822.72-19.14L822.72-19.14L822.72 0L817.92 0L817.92-19.20L817.92-19.20Q817.92-23.17 815.68-25.73L815.68-25.73L815.68-25.73Q813.44-28.16 809.98-28.16L809.98-28.16L809.98-28.16Q806.34-28.16 803.90-25.79L803.90-25.79L803.90-25.79Q801.34-23.36 801.34-19.14L801.34-19.14L801.34 0L796.54 0L796.54-32L801.34-32ZM856.90-32L856.90-26.88L856.90-26.88Q860.74-32.51 868.35-32.51L868.35-32.51L868.35-32.51Q875.26-32.51 879.55-27.71L879.55-27.71L879.55-27.71Q883.84-22.98 883.84-16L883.84-16L883.84-16Q883.84-9.02 879.55-4.29L879.55-4.29L879.55-4.29Q875.26 0.51 868.03 0.51L868.03 0.51L868.03 0.51Q860.80 0.51 856.90-5.18L856.90-5.18L856.90 12.67L852.10 12.67L852.10-32L856.90-32ZM867.71-28.16L867.71-28.16L867.71-28.16Q862.53-28.16 859.52-24.58L859.52-24.58L859.52-24.58Q856.64-21.18 856.64-16L856.64-16L856.64-16Q856.64-10.82 859.52-7.42L859.52-7.42L859.52-7.42Q862.53-3.84 867.71-3.84L867.71-3.84L867.71-3.84Q872.83-3.84 876.03-7.42L876.03-7.42L876.03-7.42Q879.04-10.82 879.04-16L879.04-16L879.04-16Q879.04-21.18 876.03-24.58L876.03-24.58L876.03-24.58Q872.83-28.16 867.71-28.16ZM894.91-44.80L894.91 0L890.11 0L890.11-44.80L894.91-44.80ZM917.50-3.84L917.50-3.84L917.50-3.84Q923.97-3.84 926.78-9.22L926.78-9.22L932.03-9.22L932.03-9.22Q930.37-4.86 926.75-2.18L926.75-2.18L926.75-2.18Q923.14 0.51 917.44 0.51L917.44 0.51L917.44 0.51Q910.21 0.51 905.66-4.29L905.66-4.29L905.66-4.29Q901.25-8.96 901.25-16L901.25-16L901.25-16Q901.25-23.10 905.47-27.71L905.47-27.71L905.47-27.71Q909.95-32.51 917.12-32.51L917.12-32.51L917.12-32.51Q924.29-32.51 928.77-27.71L928.77-27.71L928.77-27.71Q932.99-23.10 932.99-16L932.99-16L932.99-14.08L906.18-14.08L906.18-14.08Q906.69-9.66 909.70-6.78L909.70-6.78L909.70-6.78Q912.77-3.84 917.50-3.84ZM917.12-28.16L917.12-28.16L917.12-28.16Q912.70-28.16 909.70-25.41L909.70-25.41L909.70-25.41Q906.88-22.78 906.24-18.56L906.24-18.56L928-18.56L928-18.56Q927.36-22.78 924.54-25.41L924.54-25.41L924.54-25.41Q921.54-28.16 917.12-28.16ZM946.75 0L941.95 0L941.95-27.78L935.42-27.78L935.42-32L941.95-32L941.95-43.46L946.75-43.46L946.75-32L954.11-32L954.11-27.78L946.75-27.78L946.75 0ZM972.99-3.84L972.99-3.84L972.99-3.84Q979.46-3.84 982.27-9.22L982.27-9.22L987.52-9.22L987.52-9.22Q985.86-4.86 982.24-2.18L982.24-2.18L982.24-2.18Q978.62 0.51 972.93 0.51L972.93 0.51L972.93 0.51Q965.70 0.51 961.15-4.29L961.15-4.29L961.15-4.29Q956.74-8.96 956.74-16L956.74-16L956.74-16Q956.74-23.10 960.96-27.71L960.96-27.71L960.96-27.71Q965.44-32.51 972.61-32.51L972.61-32.51L972.61-32.51Q979.78-32.51 984.26-27.71L984.26-27.71L984.26-27.71Q988.48-23.10 988.48-16L988.48-16L988.48-14.08L961.66-14.08L961.66-14.08Q962.18-9.66 965.18-6.78L965.18-6.78L965.18-6.78Q968.26-3.84 972.99-3.84ZM972.61-28.16L972.61-28.16L972.61-28.16Q968.19-28.16 965.18-25.41L965.18-25.41L965.18-25.41Q962.37-22.78 961.73-18.56L961.73-18.56L983.49-18.56L983.49-18.56Q982.85-22.78 980.03-25.41L980.03-25.41L980.03-25.41Q977.02-28.16 972.61-28.16ZM1019.33 0L1019.33-5.12L1019.33-5.12Q1015.49 0.51 1007.87 0.51L1007.87 0.51L1007.87 0.51Q1000.96 0.51 996.61-4.29L996.61-4.29L996.61-4.29Q992.38-9.02 992.38-16L992.38-16L992.38-16Q992.38-22.98 996.61-27.71L996.61-27.71L996.61-27.71Q1000.96-32.51 1008.19-32.51L1008.19-32.51L1008.19-32.51Q1015.42-32.51 1019.33-26.82L1019.33-26.82L1019.33-44.80L1024.13-44.80L1024.13 0L1019.33 0ZM1008.51-3.84L1008.51-3.84L1008.51-3.84Q1013.70-3.84 1016.70-7.42L1016.70-7.42L1016.70-7.42Q1019.58-10.82 1019.58-16L1019.58-16L1019.58-16Q1019.58-21.18 1016.70-24.58L1016.70-24.58L1016.70-24.58Q1013.70-28.16 1008.51-28.16L1008.51-28.16L1008.51-28.16Q1003.39-28.16 1000.19-24.58L1000.19-24.58L1000.19-24.58Q997.18-21.18 997.18-16L997.18-16L997.18-16Q997.18-10.82 1000.19-7.42L1000.19-7.42L1000.19-7.42Q1003.39-3.84 1008.51-3.84ZM1031.68-6.53L1037.89-6.53L1037.89 0L1031.68 0L1031.68-6.53Z" fill="url(#editing-gradient-gradient)"></path></g></g><style>text {
  font-size: 64px;
  font-family: Arial Black;
  dominant-baseline: central;
  text-anchor: middle;
}</style></svg>