<?xml version="1.0" encoding="UTF-8" standalone="no"?>
<svg
   width="250"
   height="55"
   viewBox="-23.080005 19.639996 249.99999 54.999999"
   preserveAspectRatio="xMidYMid"
   version="1.1"
   id="svg3"
   sodipodi:docname="pollster-panel-name.svg"
   inkscape:export-filename="2.svg"
   inkscape:export-xdpi="96"
   inkscape:export-ydpi="96"
   inkscape:version="1.3.2 (091e20e, 2023-11-25, custom)"
   xmlns:inkscape="http://www.inkscape.org/namespaces/inkscape"
   xmlns:sodipodi="http://sodipodi.sourceforge.net/DTD/sodipodi-0.dtd"
   xmlns:xlink="http://www.w3.org/1999/xlink"
   xmlns="http://www.w3.org/2000/svg"
   xmlns:svg="http://www.w3.org/2000/svg">
  <sodipodi:namedview
     id="namedview3"
     pagecolor="#ffffff"
     bordercolor="#000000"
     borderopacity="0.25"
     inkscape:showpageshadow="2"
     inkscape:pageopacity="0.0"
     inkscape:pagecheckerboard="0"
     inkscape:deskcolor="#d1d1d1"
     inkscape:zoom="1.3201259"
     inkscape:cx="145.81943"
     inkscape:cy="36.73892"
     inkscape:window-width="1920"
     inkscape:window-height="1017"
     inkscape:window-x="-8"
     inkscape:window-y="-8"
     inkscape:window-maximized="1"
     inkscape:current-layer="svg3"
     showgrid="false" />
  <defs
     id="defs2">
    <linearGradient
       id="linearGradient10"
       inkscape:collect="always">
      <stop
         style="stop-color:#000000;stop-opacity:1;"
         offset="0"
         id="stop11" />
      <stop
         style="stop-color:#d1d1d1;stop-opacity:1;"
         offset="0.7336601"
         id="stop10" />
    </linearGradient>
    <linearGradient
       inkscape:collect="always"
       xlink:href="#linearGradient10"
       id="linearGradient11"
       x1="61.84"
       y1="87.669998"
       x2="438.16"
       y2="87.669998"
       gradientUnits="userSpaceOnUse" />
    <linearGradient
       inkscape:collect="always"
       xlink:href="#linearGradient10"
       id="linearGradient2"
       gradientUnits="userSpaceOnUse"
       x1="61.84"
       y1="87.669998"
       x2="438.16"
       y2="87.669998" />
    <linearGradient
       inkscape:collect="always"
       xlink:href="#linearGradient10"
       id="linearGradient3"
       gradientUnits="userSpaceOnUse"
       x1="61.84"
       y1="87.669998"
       x2="438.16"
       y2="87.669998" />
  </defs>
  <g
     id="g3"
     transform="matrix(0.603454,0,0,0.55185107,-56.530473,0.6565379)"
     style="fill:url(#linearGradient11);fill-opacity:1;stroke:none;stroke-width:1.00712;stroke-opacity:1">
    <g
       transform="translate(56.66,103.735)"
       id="g2"
       style="fill:url(#linearGradient3);fill-opacity:1;stroke:none;stroke-width:1.00712;stroke-opacity:1">
      <path
         d="M 9.98,-15.1 V 0 h -4.8 v -42.37 h 19.08 v 0 q 6.72,0 10.68,3.71 v 0 0 q 3.91,3.72 3.91,9.92 v 0 0 q 0,6.28 -3.94,9.96 v 0 0 q -3.93,3.68 -10.65,3.68 v 0 z M 23.94,-37.82 H 9.98 v 18.24 h 13.96 v 0 q 4.99,0 7.55,-2.44 v 0 0 q 2.56,-2.43 2.56,-6.68 v 0 0 q 0,-4.26 -2.56,-6.69 v 0 0 q -2.56,-2.43 -7.55,-2.43 z m 33.92,5.31 v 0 0 q 7.16,0 11.64,4.8 v 0 0 q 4.23,4.61 4.23,11.71 v 0 0 q 0,7.1 -4.23,11.71 v 0 0 q -4.48,4.8 -11.64,4.8 v 0 0 q -7.17,0 -11.65,-4.8 v 0 0 Q 41.98,-8.9 41.98,-16 v 0 0 q 0,-7.1 4.23,-11.71 v 0 0 q 4.48,-4.8 11.65,-4.8 z m 0,28.67 v 0 0 q 5.18,0 8.19,-3.58 v 0 0 q 2.88,-3.4 2.88,-8.58 v 0 0 q 0,-5.18 -2.88,-8.58 v 0 0 q -3.01,-3.58 -8.19,-3.58 v 0 0 q -5.19,0 -8.2,3.58 v 0 0 q -2.88,3.4 -2.88,8.58 v 0 0 q 0,5.18 2.88,8.58 v 0 0 q 3.01,3.58 8.2,3.58 z m 27,-40.96 V 0 h -4.8 v -44.8 z m 13.12,0 V 0 h -4.8 v -44.8 z m 32,21.38 h -4.86 v 0 q -0.64,-5 -8.03,-5 v 0 0 q -7.39,0 -7.39,4.61 v 0 0 q 0,1.92 1.56,2.91 v 0 0 q 1.57,1 3.94,1.64 v 0 0 q 2.37,0.64 5.15,1.18 v 0 0 q 2.79,0.54 5.15,1.54 v 0 0 q 2.37,0.99 3.94,2.72 v 0 0 q 1.57,1.72 1.57,4.73 v 0 0 q 0,4.67 -3.52,7.14 v 0 0 q -3.52,2.46 -9.54,2.46 v 0 0 q -6.4,0 -10.17,-3.2 v 0 0 q -3.46,-2.81 -3.72,-7.36 v 0 h 5 v 0 q 0.44,4.42 4.99,5.95 v 0 0 q 1.66,0.52 3.29,0.52 v 0 0 q 1.64,0 3.04,-0.2 v 0 0 q 1.41,-0.19 2.76,-0.7 v 0 0 q 3.07,-1.22 3.07,-4.16 v 0 0 q 0,-1.98 -1.57,-3.04 v 0 0 q -1.57,-1.06 -3.94,-1.73 v 0 0 q -2.36,-0.67 -5.15,-1.21 v 0 0 q -2.78,-0.55 -5.15,-1.51 v 0 0 q -2.37,-0.96 -3.94,-2.62 v 0 0 q -1.56,-1.67 -1.56,-4.61 v 0 0 q 0,-4.35 3.16,-6.75 v 0 0 q 3.17,-2.4 9.38,-2.4 v 0 0 q 5.89,0 9.28,2.81 v 0 0 q 2.82,2.37 3.26,6.28 z M 145.41,0 h -4.8 v -27.78 h -6.53 V -32 h 6.53 v -11.46 h 4.8 V -32 h 7.36 v 4.22 h -7.36 z m 26.24,-3.84 v 0 0 q 6.46,0 9.28,-5.38 v 0 h 5.25 v 0 q -1.67,4.36 -5.28,7.04 v 0 0 q -3.62,2.69 -9.32,2.69 v 0 0 q -7.23,0 -11.77,-4.8 v 0 0 Q 155.39,-8.96 155.39,-16 v 0 0 q 0,-7.1 4.23,-11.71 v 0 0 q 4.48,-4.8 11.64,-4.8 v 0 0 q 7.17,0 11.65,4.8 v 0 0 q 4.23,4.61 4.23,11.71 v 0 1.92 h -26.82 v 0 q 0.51,4.42 3.52,7.3 v 0 0 q 3.07,2.94 7.81,2.94 z m -0.39,-24.32 v 0 0 q -4.41,0 -7.42,2.75 v 0 0 q -2.82,2.63 -3.46,6.85 v 0 h 21.76 v 0 q -0.64,-4.22 -3.45,-6.85 v 0 0 q -3.01,-2.75 -7.43,-2.75 z m 38.34,-4.35 h 0.32 v 4.8 h -0.58 v 0 q -5.18,0 -8.44,4.16 v 0 0 q -3.08,3.97 -3.08,9.47 v 0 V 0 h -4.8 v -32 h 4.8 v 7.87 0 q 1.54,-4.99 6.66,-7.36 v 0 0 q 2.11,-1.02 5.12,-1.02 z m 23.94,0.51 v 5.12 0 q 3.84,-5.63 11.45,-5.63 v 0 0 q 6.91,0 11.2,4.8 v 0 0 q 4.29,4.73 4.29,11.71 v 0 0 q 0,6.98 -4.29,11.71 v 0 0 q -4.29,4.8 -11.52,4.8 v 0 0 q -7.23,0 -11.13,-5.69 v 0 17.85 h -4.8 V -32 Z m 10.81,3.84 v 0 0 q -5.18,0 -8.19,3.58 v 0 0 q -2.88,3.4 -2.88,8.58 v 0 0 q 0,5.18 2.88,8.58 v 0 0 q 3.01,3.58 8.19,3.58 v 0 0 q 5.12,0 8.32,-3.58 v 0 0 q 3.01,-3.4 3.01,-8.58 v 0 0 q 0,-5.18 -3.01,-8.58 v 0 0 q -3.2,-3.58 -8.32,-3.58 z M 291.71,0 v -5.12 0 q -3.84,5.63 -11.45,5.63 v 0 0 q -6.92,0 -11.27,-4.8 v 0 0 Q 264.77,-9.02 264.77,-16 v 0 0 q 0,-6.98 4.22,-11.71 v 0 0 q 4.35,-4.8 11.59,-4.8 v 0 0 q 7.23,0 11.13,5.69 v 0 -5.18 h 4.8 V 0 Z M 280.9,-3.84 v 0 0 q 5.18,0 8.19,-3.58 v 0 0 q 2.88,-3.4 2.88,-8.58 v 0 0 q 0,-5.18 -2.88,-8.58 v 0 0 q -3.01,-3.58 -8.19,-3.58 v 0 0 q -5.12,0 -8.32,3.58 v 0 0 q -3.01,3.4 -3.01,8.58 v 0 0 q 0,5.18 3.01,8.58 v 0 0 q 3.2,3.58 8.32,3.58 z M 304.83,-32 h 4.8 v 4.99 0 q 1.73,-2.3 4.23,-3.9 v 0 0 q 2.49,-1.6 5.69,-1.6 v 0 0 q 3.2,0 5.51,0.89 v 0 0 q 2.3,0.9 4.03,2.69 v 0 0 q 3.97,3.91 3.97,10.31 v 0 V 0 h -4.8 v -18.5 0 q 0,-4.41 -2.5,-7.04 v 0 0 q -2.5,-2.62 -6.46,-2.62 v 0 0 q -4.04,0 -6.85,2.69 v 0 0 q -2.82,2.75 -2.82,7.04 v 0 V 0 h -4.8 z m 50.5,28.16 v 0 0 q 6.46,0 9.28,-5.38 v 0 h 5.25 v 0 q -1.67,4.36 -5.28,7.04 v 0 0 q -3.62,2.69 -9.32,2.69 v 0 0 q -7.23,0 -11.77,-4.8 v 0 0 Q 339.07,-8.96 339.07,-16 v 0 0 q 0,-7.1 4.23,-11.71 v 0 0 q 4.48,-4.8 11.64,-4.8 v 0 0 q 7.17,0 11.65,4.8 v 0 0 q 4.23,4.61 4.23,11.71 v 0 1.92 H 344 v 0 q 0.51,4.42 3.52,7.3 v 0 0 q 3.07,2.94 7.81,2.94 z m -0.39,-24.32 v 0 0 q -4.41,0 -7.42,2.75 v 0 0 q -2.82,2.63 -3.46,6.85 v 0 h 21.76 v 0 q -0.64,-4.22 -3.45,-6.85 v 0 0 q -3.01,-2.75 -7.43,-2.75 z M 381.5,-44.8 V 0 h -4.8 v -44.8 z"
         fill="url(#editing-gradient-gradient)"
         id="path2"
         style="fill:url(#linearGradient2);fill-opacity:1;stroke:none;stroke-width:1.00712;stroke-opacity:1" />
    </g>
  </g>
  <style
     id="style3">text {
  font-size: 64px;
  font-family: Arial Black;
  dominant-baseline: central;
  text-anchor: middle;
}</style>
</svg>
